<svg width="1335" height="599" viewBox="0 0 1335 599" fill="none" xmlns="http://www.w3.org/2000/svg">
<path d="M762 644L1364.5 0L1372 636.5L762 644Z" fill="#359381" fill-opacity="0.3"/>
<path opacity="0.9" d="M0 52C1.75172 44.4234 8.56044 38.7744 16.7053 38.7744C18.2013 38.7744 19.6526 38.9653 21.0335 39.3215C25.0548 30.7653 33.775 24.8427 43.889 24.8427C46.5038 24.8427 49.0291 25.2371 51.401 25.975C56.8479 17.0053 66.7382 11 78.0413 11C91.4861 11 102.943 19.4926 107.284 31.3823C110.359 29.6774 113.894 28.7041 117.66 28.7041C129.449 28.7041 139 38.2146 139 49.9389C139 50.6323 138.962 51.3193 138.898 52H0Z" fill="#D1EAF2"/>
<path opacity="0.9" d="M1187 64C1188.36 58.0866 1193.65 53.6776 1199.98 53.6776C1201.14 53.6776 1202.27 53.8265 1203.34 54.1046C1206.47 47.4265 1213.24 42.804 1221.1 42.804C1223.13 42.804 1225.09 43.1119 1226.94 43.6878C1231.17 36.687 1238.85 32 1247.64 32C1258.08 32 1266.98 38.6284 1270.36 47.9081C1272.75 46.5775 1275.49 45.8178 1278.42 45.8178C1287.58 45.8178 1295 53.2406 1295 62.3913C1295 62.9325 1294.97 63.4687 1294.92 64H1187Z" fill="#D1EAF2"/>
</svg>
