<svg width="381" height="310" viewBox="0 0 381 310" fill="none" xmlns="http://www.w3.org/2000/svg">
<g clip-path="url(#clip0_114_2011)">
<path d="M144.791 291.879C145.055 292.553 127.454 299.458 125.828 300.411C120.923 303.3 115.168 302.713 110.936 298.813C106.997 295.163 103.102 292.524 97.9187 290.574C85.3841 285.853 72.5128 289.21 59.5097 289.577C46.6676 289.943 32.8738 285.897 24.3515 275.736C16.8835 266.822 18.6407 252.483 16.0049 241.795C14.3063 234.904 11.7437 228.439 7.86331 222.486C5.35933 218.63 -0.688287 214.261 0.0585135 209.115C0.395306 206.799 3.63144 205.89 5.47648 205.288C10.0451 203.808 14.9359 203.339 19.6803 202.825C28.7005 201.828 37.545 199.38 45.7891 195.597C50.592 193.398 56.01 193.061 61.2229 193.911C66.4213 194.776 71.3706 196.756 76.2615 198.72C89.5281 204.057 103.307 209.76 112.65 220.58C123.427 233.057 126.546 250.196 133.062 265.341C136.855 274.153 141.233 282.964 144.777 291.879H144.791Z" fill="#8DC134"/>
<path d="M0.571004 197.034C2.73819 200.025 5.54967 201.946 8.65402 203.896C13.047 206.652 16.1367 209.555 19.1532 213.821C24.1904 220.932 27.2508 228.483 29.0959 236.957C32.2441 251.516 33.9134 266.852 48.3369 274.754C57.0935 279.548 67.3438 279.299 76.9643 278.493C87.1999 277.642 96.6154 277.115 106.28 281.19C114.041 284.475 121.523 288.624 129.694 290.882C138.407 293.286 146.036 291.908 153.68 287.348C155.554 286.234 154.324 283.126 152.186 283.785C143.84 286.351 135.185 285.735 127.22 282.305C119.752 279.079 113.235 274.153 105.797 270.839C97.0401 266.954 88.0492 267.159 78.6775 267.834C69.3499 268.508 59.8318 269.227 51.6024 263.993C40.3564 256.838 41.0593 238.335 37.4571 227.017C34.997 219.275 30.0037 211.52 24.205 205.89C21.5839 203.353 18.5089 201.051 15.1263 199.673C10.8944 197.943 6.31112 197.767 2.35747 195.275C1.3178 194.615 -0.161153 195.964 0.600291 197.034H0.571004Z" fill="#6AA319"/>
<path d="M13.9842 190.539C17.4692 200.04 29.3009 202.987 37.3253 207.297C49.4499 213.807 47.3998 230.198 50.2992 241.766C53.755 255.548 64.957 260.606 78.0186 261.529C85.1645 262.043 92.2225 261.412 99.2658 263.157C102.985 264.081 106.295 265.825 109.545 267.805C112.489 269.579 115.271 271.309 118.814 270.59C119.781 270.4 120.454 269.373 120.454 268.435C120.484 262.087 113.001 258.583 108.022 256.442C101.36 253.583 94.2286 252.791 87.0388 252.791C80.713 252.791 74.5336 253.055 68.4713 250.944C61.7794 248.613 59.5829 241.59 58.5433 235.271C57.489 228.82 58.0161 222.281 56.5372 215.903C55.0875 209.643 50.9435 203.749 45.6866 200.157C41.2936 197.166 35.3632 195.7 30.3259 194.278C27.7048 193.545 25.0837 192.797 22.4479 192.108C20.1782 191.521 17.191 191.477 15.4924 189.645C14.892 189 13.662 189.659 13.9842 190.524V190.539Z" fill="#6AA319"/>
<path d="M247.777 172.33C247.821 169.368 247.894 166.363 248.787 163.533C250.691 157.507 255.933 153.226 259.564 148.051C264.294 141.321 266.271 133.111 268.526 125.193C270.957 116.661 273.812 108.245 276.873 99.9172C279.713 92.1907 283.491 85.4318 286.962 78.0131C290.769 69.9201 295.513 62.2082 301.283 55.3613C304.665 51.3441 308.297 47.3416 312.426 44.0721C313.7 43.0604 317.346 39.8789 319.235 40.7733C321.563 41.8729 321.549 46.9017 321.754 48.9983C322.94 61.739 323.526 74.5384 323.599 87.3231C323.687 104.873 324.375 122.554 317.668 139.342C313.539 149.693 307.125 159.164 298.925 166.729C292.716 172.462 285.6 177.095 278.439 181.596C270.195 186.771 260.443 191.991 251.218 188.882C250.281 188.575 249.329 188.135 248.728 187.372C247.923 186.361 247.85 184.968 247.821 183.678C247.733 179.895 247.718 176.112 247.762 172.33H247.777Z" fill="#8DC134"/>
<path d="M308.751 64.3341C306.73 68.5566 304.695 72.3539 303.128 76.8402C301.253 82.221 299.584 87.6603 297.9 93.0997C296.699 96.9703 289.07 114.315 296.011 116.235C302.864 118.127 305.91 99.6387 307.067 95.6361C308.487 90.7685 309.966 85.9303 311.094 81.0041C312.309 75.6673 312.704 70.8877 313.085 65.5217C313.246 63.2491 309.732 62.2668 308.751 64.3487V64.3341Z" fill="#6AA319"/>
<path d="M292.219 76.415C294.166 80.9601 296.685 85.3145 298.779 89.8155C299.13 90.5633 299.994 90.8858 300.756 90.9445C305.939 91.3696 312.675 89.7276 316.98 86.7513C319.147 85.2412 317.785 82.1183 315.223 82.5728C310.142 83.4965 306.203 86.6487 300.756 86.3701C301.517 87.1325 302.278 87.8949 303.04 88.6573C302.996 82.6168 300.756 74.5824 293.536 74.1279C292.262 74.0399 291.809 75.4474 292.219 76.415Z" fill="#6AA319"/>
<path d="M236.121 294.239C237.936 295.954 240.558 296.409 243.018 296.717C267.164 299.664 292.233 294.18 312.968 281.454C325.839 273.537 337.715 262.526 346.135 249.918C351.172 242.367 354.393 233.878 357.512 225.419C360.192 218.117 364.292 211.461 367.089 204.204C369.974 196.682 371.584 188.75 373.342 180.921C375.728 170.306 377.647 159.589 379.418 148.857C380.648 141.365 382.259 133.624 379.462 126.264C377.983 122.378 369.139 128.639 365.976 129.504C360.675 130.926 355.199 130.97 349.795 130.12C338.696 128.36 329.529 129.284 319.367 134.386C310.274 138.96 301.693 144.532 293.8 150.953C289.964 154.076 286.566 157.756 282.686 160.777C278.337 164.163 273.871 167.14 270.093 171.215C260.297 181.772 255.611 196.008 248.055 208.279C242.534 217.267 235.374 225.389 231.742 235.3C228.653 243.745 228.36 252.909 228.096 261.896C227.774 273.141 227.935 286.556 236.106 294.268L236.121 294.239Z" fill="#6AE590"/>
<path d="M350.103 69.6122C354.701 66.4307 365.229 57.6338 370.75 62.6187C372.492 64.1875 373.473 66.1667 374.264 68.322C376.314 73.9373 374.586 82.2503 370.735 86.81C367.353 90.7832 361.774 92.264 359.475 97.2489C357.044 102.498 357.395 109.169 357.644 114.769C358.142 125.97 348.536 135.163 340.848 142.039C333.058 149.003 324.272 155.059 317.917 163.357C309.175 174.764 305.837 189.278 299.818 202.327C295.85 210.933 290.652 218.982 284.443 226.137C278.981 232.441 272.524 238.174 264.704 241.048C256.885 243.921 247.484 243.481 240.924 238.321C234.232 233.042 231.64 223.791 232.475 215.302C233.309 206.813 237.087 198.911 241.187 191.433C244.892 184.66 248.977 178.004 254.483 172.594C266.359 160.923 284.179 155.748 293.595 142.01C297.461 136.365 299.555 129.768 302 123.434C303.245 120.209 304.548 116.983 306.261 113.977C308.956 109.242 312.104 105.225 317.112 102.835C322.837 100.108 329.222 101.427 334.625 97.5128C339.062 94.3019 339.457 89.9768 340.834 85.2412C342.386 79.8605 345.271 73.0429 350.044 69.6855C350.074 69.6562 350.103 69.6415 350.147 69.6122H350.103Z" fill="#809127"/>
<path d="M216.997 258.758C220.555 250.563 223.44 241.165 228.082 233.556C232.357 226.547 239.386 221.064 246.005 216.402C249.299 214.085 253.678 213.909 257.544 213.235C262.537 212.37 267.559 211.534 272.406 210.024C280.885 207.4 289.217 202.239 292.702 194.073C295.206 188.179 294.62 181.962 295.601 175.819C296.538 169.925 300.653 164.97 304.68 160.835C309.644 155.748 315.281 150.734 317.185 143.887C317.888 141.38 318.034 138.755 318.181 136.16C318.752 125.853 317.917 117.291 313.92 107.776C310.508 99.6387 301.429 96.5598 293.229 95.3722C284.428 94.1113 274.559 93.4222 270.722 83.9363C268.614 78.7609 264.558 74.1719 260.824 70.1107C255.069 63.8649 248.26 58.3522 241.465 53.514C227.262 43.4123 211.169 35.9643 194.241 31.8591C183.83 29.3374 173.067 28.0618 162.451 26.845C151.747 25.6134 144.996 18.2681 137.894 10.6002C132.989 5.29274 128.347 -2.21388 119.971 0.586441C113.44 2.77099 108.096 8.97274 105.943 15.4091C103.439 22.901 101.433 30.4223 96.3518 36.6387C90.231 44.1307 82.2065 49.3648 76.8179 57.5459C67.7684 71.2836 66.4798 89.2731 72.8789 104.462C77.4475 115.326 85.5891 123.331 95.81 128.903C99.9833 131.175 103.176 134.239 107.832 135.574C114.348 137.45 119.312 140.456 124.818 144.385C154.573 165.673 177.899 194.776 198.078 225.316C201.05 229.802 204.184 234.553 209.045 236.869C211.271 237.925 214.053 238.702 214.888 241.018C215.196 241.898 215.166 242.851 215.078 243.789C214.595 248.745 213.775 254.976 217.026 258.744L216.997 258.758Z" fill="#C1C94F"/>
<path d="M356.502 160.014C353.705 163.489 350.952 166.758 348.58 170.57C344.758 176.684 342.02 183.678 338.842 190.143C332.048 203.954 324.785 218.484 313.583 229.245C303.362 239.068 290.081 245.021 276.712 249.155C269.815 251.296 262.61 252.923 255.45 253.832C248.157 254.756 239.079 253.51 232.27 256.31C223.425 259.946 223.308 270.883 232.27 274.475C239.474 277.364 249.314 275.047 256.753 273.992C264.836 272.833 272.802 271.147 280.621 268.772C296.348 263.993 311.094 255.987 323.291 244.933C336.046 233.38 344.041 217.472 350.337 201.726C353.383 194.117 355.975 186.419 358.171 178.531C359.636 173.283 359.665 167.829 360.968 162.609C361.569 160.219 358.289 157.815 356.517 160.014H356.502Z" fill="#4FC978"/>
<path d="M131.203 267.643C136.899 267.643 142.317 265.444 146.651 261.808C151.322 257.894 150.327 253.055 150.092 247.264C149.565 234.523 147.12 221.871 142.829 209.863C141.101 205.01 139.037 200.186 135.859 196.125C126.034 183.575 107.905 180.731 96.4837 169.617C89.6014 162.917 85.7356 153.783 80.508 145.719C75.0315 137.274 67.9442 129.9 59.744 124.094C57.2693 122.349 54.5457 120.678 51.5146 120.546C45.2473 120.253 45.4084 124.974 44.6177 129.431C43.7244 134.43 41.323 139.166 37.7207 142.758C32.376 148.095 24.7616 150.836 19.9 156.613C13.2374 164.545 13.5156 176.875 19.0068 185.672C24.498 194.454 34.2503 199.922 44.3394 202.195C48.4102 203.104 52.8032 203.734 56.4933 205.802C66.3188 211.285 60.4469 228.585 62.4091 237.368C63.7563 243.393 67.6806 249.273 73.6111 250.973C78.7362 252.454 84.1542 250.592 89.2646 249.082C92.8522 248.026 96.8937 247.044 100.642 247.777C105.87 248.789 109.897 255.122 113.03 258.978C117.409 264.359 124.276 267.629 131.203 267.629V267.643Z" fill="#C1C94F"/>
<path d="M155.569 84.6987C150.839 73.688 148.115 62.3695 142.097 51.8426C137.616 44.0134 129.475 36.7121 128.406 27.3728C127.381 18.444 113.558 18.0481 114.158 27.3728C114.919 39.0139 122.563 47.5615 129.724 56.0651C133.794 60.9033 136.811 66.548 140.311 71.7967C143.927 77.2068 148.145 82.2063 152.142 87.3378C153.797 89.4783 156.462 86.7513 155.569 84.6841V84.6987Z" fill="#A2AF43"/>
<path d="M167.796 79.7139C166.946 73.2482 166.141 66.7386 164.999 60.3169C163.857 53.9538 161.28 46.4032 163.344 40.0109C166.244 31.0968 151.893 27.1089 149.331 36.1403C147.076 44.1014 148.95 52.2971 152.113 59.7011C155.32 67.2077 160.796 73.3215 164.164 80.6962C164.94 82.4116 168.045 81.6198 167.796 79.7139Z" fill="#A2AF43"/>
<path d="M178.998 73.7907C184.137 64.9938 179.906 53.3381 183.991 44.16C187.286 36.7854 177.431 30.5983 172.994 37.7237C169.641 43.0898 169.802 50.2885 170.373 56.3583C170.915 62.0322 171.94 68.8498 174.985 73.8053C175.893 75.2861 178.104 75.3448 179.012 73.8053L178.998 73.7907Z" fill="#A2AF43"/>
<path d="M133.106 79.7139C125.872 66.1667 118.961 49.5994 102.81 44.6439C95.4001 42.3713 90.48 53.7046 97.5087 57.2526C109.765 63.4397 119.664 73.1749 129.973 82.133C131.671 83.6138 134.204 81.7664 133.106 79.7139Z" fill="#A2AF43"/>
<path d="M124.159 86.3115C121.787 84.5668 119.664 81.7958 117.716 79.5966C115.974 77.6173 113.587 76.1072 111.464 74.5677C106.441 70.917 100.686 68.5126 94.7411 66.8412C85.0327 64.1288 82.4555 79.9045 92.8668 80.6669C97.8455 81.0334 102.604 82.8661 107.29 84.4788C112.108 86.1209 117.848 87.0885 122.387 89.361C124.452 90.3873 125.975 87.6457 124.159 86.3261V86.3115Z" fill="#A2AF43"/>
<path d="M143.195 276.777C133.179 275.443 123.076 273.435 114.187 268.626C105.299 263.817 97.699 255.856 95.3414 246.018C94.2579 241.502 94.1993 236.473 91.3146 232.837C87.0388 227.427 78.3993 227.413 73.7867 222.281C68.0027 215.83 71.4438 205.025 67.0362 197.577C61.6622 188.501 47.4876 189.146 42.7725 180.291C37.0617 169.588 44.2369 157.346 44.6322 146.423C44.9983 135.882 42.7579 125.311 39.6096 115.312C37.6621 109.11 34.9092 103.304 32.6102 97.2489C29.5205 89.1118 49.0691 94.7564 52.1735 95.6215C56.2735 96.7504 60.3736 98.2605 64.6348 98.1725C70.9313 98.0259 76.9204 94.4779 82.763 92.4986C89.0595 90.358 96.425 91.1497 102.414 93.8914C109.955 97.3368 112.064 102.791 115.007 109.99C120.821 124.226 124.496 139.195 129.255 153.812C131.656 161.187 134.073 168.576 136.723 175.863C139.286 182.901 142.068 189.865 144.352 197.005C151.791 220.346 153.563 245.475 149.477 269.637C149.155 271.514 148.789 273.435 147.735 275.003C146.68 276.572 145.07 277.041 143.195 276.792V276.777Z" fill="#4FC978"/>
<path d="M79.7465 143.637C79.029 151.291 79.644 159.061 79.9076 166.729C80.2151 175.423 80.5226 184.117 80.874 192.812C81.6062 210.64 82.3383 228.453 83.0266 246.282C83.5684 260.445 84.0809 274.593 84.6666 288.756C84.8423 292.861 85.0034 296.981 85.2084 301.086C85.267 302.376 84.9741 305 85.7941 306.144C87.522 308.578 91.5635 306.247 89.8063 303.798C90.4799 304.751 90.0699 304.795 89.9967 303.49C89.9235 302.244 89.8795 300.983 89.821 299.737C89.6306 295.265 89.4695 290.779 89.3085 286.307C88.796 272.13 88.2542 257.937 87.6977 243.76C87.0241 226.328 86.3213 208.91 85.4866 191.477C84.7252 175.717 85.0327 158.856 81.6355 143.388C81.3865 142.245 79.8197 142.611 79.7172 143.652L79.7465 143.637Z" fill="#002B11"/>
<path d="M93.9357 143.3C93.2182 150.953 93.8332 158.724 94.0968 166.392C94.4043 175.086 94.7118 183.78 95.0632 192.474C95.7954 210.303 96.5275 228.116 97.2158 245.944C97.7576 260.107 98.2701 274.256 98.8558 288.418C99.0315 292.524 99.1926 296.644 99.3976 300.749C99.4562 302.039 99.1633 304.663 99.9833 305.822C101.711 308.255 105.753 305.924 103.996 303.461C104.669 304.414 104.259 304.458 104.186 303.153C104.113 301.892 104.069 300.646 104.01 299.385C103.82 294.913 103.659 290.427 103.498 285.955C102.985 271.778 102.443 257.586 101.887 243.408C101.213 225.976 100.51 208.558 99.6758 191.126C98.9144 175.35 99.2219 158.504 95.8247 143.036C95.5757 141.893 94.0089 142.259 93.9064 143.3H93.9357Z" fill="#002B11"/>
<path d="M267.223 130.779C266.52 138.814 267.106 146.966 267.369 155.015C267.677 164.589 267.984 174.148 268.35 183.707C269.082 202.899 269.815 222.09 270.503 241.282C271.045 256.545 271.557 271.792 272.143 287.055C272.318 291.424 272.48 295.793 272.685 300.162C272.743 301.57 272.392 304.546 273.285 305.792C275.013 308.211 279.054 305.895 277.312 303.432C278.044 304.458 277.575 304.311 277.502 302.963C277.429 301.57 277.37 300.162 277.326 298.755C277.136 294.034 276.99 289.298 276.829 284.577C276.316 269.3 275.774 254.008 275.218 238.731C274.544 219.935 273.841 201.139 273.007 182.358C272.245 165.322 272.553 147.273 269.156 130.515C268.921 129.372 267.34 129.738 267.237 130.779H267.223Z" fill="#002B11"/>
<path d="M282.085 128.082C281.383 136.116 281.968 144.268 282.232 152.317C282.539 161.891 282.847 171.45 283.213 181.009C283.945 200.201 284.677 219.393 285.366 238.584C285.907 253.847 286.42 269.095 287.006 284.357C287.181 288.726 287.342 293.095 287.547 297.465C287.606 298.872 287.254 301.848 288.148 303.094C289.876 305.528 293.917 303.197 292.175 300.749C292.907 301.775 292.438 301.628 292.365 300.28C292.292 298.872 292.233 297.479 292.189 296.072C291.999 291.351 291.852 286.615 291.691 281.894C291.179 266.617 290.637 251.325 290.081 236.048C289.407 217.252 288.704 198.456 287.87 179.675C287.108 162.639 287.416 144.59 284.018 127.832C283.784 126.689 282.188 127.055 282.1 128.096L282.085 128.082Z" fill="#002B11"/>
<path d="M269.961 61.9736C268.965 60.786 267.091 61.9736 266.857 63.9822C266.637 65.8882 266.857 67.8235 266.974 69.7295C266.974 69.8468 269.946 69.7001 270.239 69.4069C271.235 68.3806 270.708 64.598 270.503 63.3371C270.4 62.7213 270.21 62.2668 269.961 61.9736Z" fill="#002B11"/>
<path d="M219.633 81.9424C217.246 76.6936 217.729 70.9464 217.436 65.3604C217.099 58.7334 216.675 52.1505 216.865 45.4796C217.099 37.4598 219.31 28.4284 222.151 20.9071C223.557 17.1685 225.446 13.4885 227.628 10.1457C229.502 7.28669 233.016 1.83266 236.648 4.80892C239.987 7.5506 242.198 14.3681 243.574 18.3267C247.176 28.6776 245.917 38.5741 246.532 49.1889C247.147 59.877 240.192 72.4565 234.29 80.9601C232.109 84.1123 228.902 87.4404 225.124 86.7953C222.532 86.3555 220.789 84.5081 219.633 81.9571V81.9424Z" fill="#43AF6E"/>
<path d="M161.851 97.4541C160.123 99.5214 157.341 100.313 154.69 100.826C148.584 102.014 142.346 102.263 136.123 102.527C129.972 102.776 123.822 103.04 117.658 103.289C114.626 103.421 111.112 103.319 109.267 100.914C108.066 99.3601 107.949 97.2489 107.876 95.2842C107.715 90.7832 107.568 86.1795 108.872 81.8544C111.493 73.1456 120.015 66.9145 129.035 65.8296C138.056 64.7446 147.251 68.322 154.119 74.2598C158.819 78.3064 162.671 83.7164 163.491 89.8742C163.842 92.5132 163.549 95.4162 161.836 97.4541H161.851Z" fill="#B38300"/>
<path d="M151.542 85.5638C150.605 85.0213 149.858 84.2296 149.389 83.1153C147.295 78.0864 148.438 71.8114 148.73 66.548C148.833 64.6566 148.965 62.7067 149.799 60.9913C151.659 57.2087 156.301 55.8305 160.445 55.0828C165.555 54.1591 170.724 53.5873 175.908 53.3674C177.094 53.3087 178.324 53.2941 179.422 53.7339C182.293 54.8922 183.083 58.5282 183.347 61.6217C183.654 65.2871 183.815 68.9524 183.801 72.6324C183.801 74.6117 183.728 76.6496 182.951 78.4676C181.809 81.136 179.261 82.9833 176.538 83.951C173.814 84.9186 170.886 85.1239 167.986 85.2998C163.579 85.5931 155.671 87.9536 151.542 85.5638Z" fill="#279157"/>
<path d="M234.334 67.6475C234.803 70.14 235.271 72.6324 235.725 75.1249C235.959 76.3711 236.179 77.7052 235.623 78.8488C235.125 79.8751 234.114 80.5349 233.104 81.0627C229.194 83.13 224.743 84.1416 220.335 83.9803C219.266 83.9363 218.168 83.8337 217.172 83.4232C212.018 81.3119 210.641 68.8351 215.708 66.0201C219.764 63.7623 225.651 63.3078 230.19 63.4837C230.995 63.513 231.83 63.5864 232.504 63.9969C233.704 64.7299 234.071 66.2694 234.319 67.6622L234.334 67.6475Z" fill="#00421C"/>
<path d="M220.247 98.3338C219.135 97.5568 218.388 96.2079 218.212 93.8768C218.022 91.355 217.7 89.6689 217.275 87.1765C216.894 84.904 216.513 82.5142 217.319 80.359C218.856 76.2245 223.894 74.7583 228.272 74.2745C230.615 74.0106 232.958 73.8786 235.315 73.8493C238.39 73.82 241.612 74.0399 244.262 75.6233C246.781 77.1188 248.494 79.7285 249.475 82.4849C250.471 85.2412 250.822 88.1881 251.159 91.0911C251.276 92.0587 251.379 93.0704 251.057 93.9794C250.339 95.9733 247.967 96.7064 245.902 97.1462C239.752 98.4364 233.485 98.8763 227.218 99.1988C224.479 99.3454 221.931 99.5067 220.247 98.3338Z" fill="#A16B08"/>
<path d="M180.345 68.8204C180.037 65.7562 179.686 62.6773 183.391 61.9882C189.292 60.9033 195.31 60.0529 201.329 60.1996C204.887 60.2875 208.709 60.786 211.345 63.1905C213.336 64.9938 214.346 67.6329 215.166 70.184C217.07 76.0632 218.373 82.1476 219.047 88.2907C219.354 91.0324 219.31 94.3019 217.099 95.9586C216.03 96.765 214.654 97.0143 213.321 97.2195C205.824 98.3778 198.268 99.0962 190.698 99.3747C189.028 99.4334 187.286 99.4627 185.807 98.715C183.391 97.4981 182.336 94.5805 182.087 91.8828C181.399 84.2149 181.136 76.5177 180.345 68.8351V68.8204Z" fill="#B38300"/>
<path d="M194.563 90.49C194.563 91.6189 194.505 92.7038 194.402 93.6715C193.934 98.0552 189.658 98.4804 185.529 98.7003C179.935 99.0082 174.327 99.3161 168.733 99.624C166.58 99.7413 164.384 99.8586 162.29 99.3748C160.181 98.8909 158.146 97.718 157.121 95.812C156.14 94.0087 156.184 91.8535 156.257 89.8009C156.389 85.8716 154.793 82.001 159.405 80.1537C165.614 77.6613 174.136 77.6466 180.74 77.3974C184.196 77.2654 189.599 77.0162 191.928 80.0511C193.919 82.6315 194.563 86.81 194.563 90.4607V90.49Z" fill="white"/>
<path d="M239.415 293.183C235.491 293.565 230.571 292.729 228.052 292.773C222.708 292.861 217.348 292.861 212.003 292.817C201.314 292.744 190.61 292.494 179.92 292.494C163.945 292.494 147.984 292.494 132.008 292.494C130.588 292.7 129.738 291.864 128.376 291.395C126.868 280.985 124.027 270.751 122.548 260.254C120.938 248.818 120.015 237.294 118.976 225.8C116.955 203.353 112.869 181.171 109.428 158.929C106.968 143.051 105.079 127.539 100.262 112.159C99.5734 109.975 99.5295 107.307 100.818 105.415H258.803C262.508 105.415 266.373 106.852 265.539 111.602C262.61 128.243 259.242 145.382 257.441 162.184C256.211 173.62 254.996 185.056 253.766 196.492C250.588 226.108 247.411 255.753 245.917 285.501C245.814 287.465 245.683 289.547 244.497 291.101C243.501 292.406 241.612 292.993 239.43 293.198L239.415 293.183Z" fill="#002B11"/>
<path d="M270.239 97.0436C270.752 97.7913 271.03 98.9056 271.118 100.577C271.264 103.275 271.66 108.392 269.39 110.385C266.959 112.497 262.142 111.045 259.257 111.133C256.065 111.236 252.872 111.28 249.68 111.294C236.399 111.353 223.132 110.796 209.851 110.811C184.591 110.84 159.332 110.855 134.073 110.884C123.735 110.884 113.426 111.412 103.176 111.221C96.9815 111.104 94.5508 111.734 93.3207 104.931C92.8082 102.102 91.0511 98.1579 94.6972 96.6624C99.3244 94.7858 105.46 95.2989 110.351 95.6361C110.351 95.6361 264.616 95.5628 264.631 95.5628C267.574 95.5628 269.302 95.6948 270.239 97.0583V97.0436Z" fill="#001909"/>
<path d="M246.459 288.873C247.22 291.615 246.766 295.207 246.503 297.377C245.917 302.215 244.57 304.839 239.342 305.528C234.32 306.188 229.282 305.22 224.245 305.323C212.882 305.558 201.504 305.69 190.141 305.675C172.906 305.675 155.671 305.646 138.436 305.631C133.399 306.921 127.82 306.349 127.425 300.353C127.19 296.746 126.165 293.11 127.22 289.518C128.318 285.794 134.16 285.31 137.894 285.325C152.45 285.413 166.99 285.281 181.546 285.266C200.831 285.237 220.116 285.208 239.415 285.193C240.499 285.193 241.89 284.958 242.959 285.193C244.921 285.618 245.961 287.07 246.459 288.873Z" fill="#001909"/>
<path d="M227.335 154.663C227.057 157.39 223.132 160.659 221.551 162.14C219.34 164.222 217.158 166.348 214.991 168.518C212.618 170.908 212.238 172.271 209.338 170.893C204.697 168.694 200.099 163.328 196.408 159.794C194.153 157.639 191.225 156.232 194.476 154.15C195.12 153.739 201.182 152.2 201.182 152.288C200.743 148.974 197.99 146.32 194.871 145.133C191.752 143.945 188.311 143.989 184.972 144.239C181.077 144.517 177.153 145.089 173.594 146.687C170.036 148.285 166.859 151.027 165.438 154.677C164.706 156.554 164.267 158.871 162.451 159.75C161.748 160.087 160.957 160.131 160.181 160.175C158.395 160.175 141.057 161.788 143.605 158.387C145.04 156.481 144.689 154.37 145.831 152.273C152.889 139.312 166.273 130.34 181.048 129.284C188.194 128.771 195.442 130.164 201.841 133.433C206.234 135.676 210.612 138.711 213.658 142.846C215.283 145.045 215.386 148.696 217.495 150.514C219.867 152.566 224.23 150.338 226.5 152.464C227.188 153.109 227.423 153.871 227.349 154.663H227.335Z" fill="#8DC134"/>
<path d="M219.925 194.307C220.379 193.032 220.745 191.727 221.009 190.378C221.726 186.639 223.293 179.719 220.994 176.318C219.047 173.429 211.403 174.764 208.387 174.983C207.215 175.071 206.805 176.274 206.541 177.417C204.477 186.273 201.358 193.574 191.62 195.759C189.658 196.198 187.652 196.536 185.646 196.55C178.763 196.58 170.095 191.844 167.986 184.895C165.467 176.582 175.762 182.109 176.933 178.15C178.105 174.162 163.725 167.037 160.957 165.395C159.844 164.735 158.644 164.061 157.37 164.149C155.393 164.281 154.031 166.099 152.816 167.667C149.726 171.611 145.655 174.558 142.068 178.033C139.93 180.086 140.662 181.83 143.635 181.757C148.306 181.654 152.025 180.379 151.395 186.053C150.824 191.287 152.245 198.662 155.437 202.899C164.457 214.862 178.266 216.798 192.191 215.156C203.979 213.763 215.796 205.758 219.94 194.322L219.925 194.307Z" fill="#8DC134"/>
<path d="M133.414 53.8805C134.439 53.47 135.259 52.6636 135.991 51.8279C137.997 49.5554 132.843 45.7581 131.466 44.1894C130.383 42.9431 129.299 41.5063 127.703 42.8258C126.678 43.6762 126.282 45.2596 125.726 46.4032C125.155 47.5761 124.847 49.0129 125.448 50.1859C126.824 52.8542 130.383 55.0827 133.399 53.8805H133.414Z" fill="#D9F9E3"/>
<path d="M104.947 67.9554C105.167 66.8265 105.606 65.7269 106.295 64.422C109.267 58.7628 114.129 54.1298 119.913 51.4174C121.026 50.9043 122.256 50.8456 123.12 51.8279C124.364 53.2208 123.281 53.9978 122.124 54.8188C119.166 56.9154 116.018 58.7628 113.484 61.3871C110.321 64.642 108.989 68.8791 110.878 73.2189C111.039 73.5854 111.229 73.9666 111.302 74.3625C111.625 76.1218 109.457 79.2594 107.642 79.4353C106.28 77.1628 105.372 74.6117 104.977 71.9873C104.742 70.4332 104.728 69.187 104.977 67.9554H104.947Z" fill="#FF703E"/>
<path d="M121.348 54.0858C120.63 53.0448 120.66 51.1535 121.743 50.567C122.915 49.9366 124.203 49.4968 125.521 49.2915C126.151 49.1889 126.927 49.2182 127.249 49.7607C127.586 50.3325 127.19 51.0509 126.766 51.5787C125.96 52.561 123.779 54.9654 122.344 54.7602C121.919 54.7015 121.582 54.4376 121.333 54.0858H121.348Z" fill="#F9C582"/>
<path d="M115.681 70.0814C115.974 69.9201 116.281 69.8468 116.589 69.9641C117.907 70.4332 117.233 73.6441 117.189 74.6704C117.16 75.5061 116.896 76.4297 116.164 76.8256C115.549 77.1628 114.802 77.0162 114.143 76.8109C113.528 76.6203 112.913 76.3418 112.474 75.8579C112.035 75.3741 111.859 74.6264 112.166 74.0692C112.694 73.1309 113.631 72.955 114.143 71.8407C114.378 71.3422 114.993 70.4479 115.666 70.0814H115.681Z" fill="#F9C582"/>
<path d="M118.405 64.4074C114.378 65.0672 113.03 72.8817 117.848 72.2366C120.586 71.87 122.871 63.6743 118.405 64.4074Z" fill="#F9C582"/>
<path d="M132.843 57.8538C131.993 57.9124 131.159 57.9711 130.309 58.0297C129.548 56.285 129.284 54.6722 129.958 52.8982C130.09 52.5317 130.28 52.1505 130.617 51.9306C131.056 51.652 131.657 51.74 132.096 52.0332C132.52 52.3264 132.813 52.7956 133.018 53.2794C133.648 54.7162 133.311 56.3436 132.843 57.8538Z" fill="#F9C582"/>
<path d="M118.478 66.8705C120.601 66.2987 122.871 64.7153 124.159 63.0292C124.803 62.1789 125.316 61.006 124.789 60.0823C124.364 59.3052 123.368 59.012 122.475 59.0267C119.737 59.0413 119.913 61.7977 117.994 62.9559C116.677 63.7476 114.875 63.2638 114.099 64.9059C113.06 67.1051 116.486 67.2517 117.819 67.0171C118.024 66.9731 118.243 66.9292 118.463 66.8705H118.478Z" fill="#001909"/>
<path d="M142.902 47.6641C143.591 46.9604 144.235 46.242 144.85 45.6262C147.764 42.7086 150.502 39.5417 153.358 36.5361C154.617 35.2166 154.675 34.3223 153.563 32.9001C151.513 30.305 145.963 21.8015 141.746 24.2059C141.277 24.4698 140.896 24.851 140.516 25.2322C139.505 26.2438 138.48 27.2701 137.47 28.2818C134.117 31.6246 130.661 35.158 129.27 39.6883C128.772 41.3011 127.41 42.6939 128.728 44.336C130.324 46.3299 132.447 48.0453 134.278 49.834C135.024 50.5671 136.02 51.2268 137.118 51.1389C139.403 50.9629 141.262 49.3355 142.888 47.6495L142.902 47.6641Z" fill="white"/>
<path d="M223.806 48.793C222.854 47.7374 222.62 46.4472 224.143 44.6878C225.285 43.3537 226.896 42.5326 228.462 41.7262C236.238 37.7677 244.131 33.7944 252.653 31.9324C253.078 31.8445 253.546 31.7712 253.898 32.0204C254.147 32.1963 254.278 32.5042 254.381 32.7975C256.094 37.4011 257.617 42.0781 258.949 46.7991C259.154 47.5468 259.374 48.3532 259.154 49.1156C258.862 50.1272 257.895 50.7576 257.017 51.3001C253.854 53.2501 250.705 55.1854 247.542 57.1353C245.097 58.6455 242.271 61.5777 239.474 60.0969C235.491 57.9857 232.226 54.8188 228.653 52.1211C227.247 51.0509 224.992 50.0979 223.821 48.793H223.806Z" fill="#A16B08"/>
<path d="M263.826 48.7637C261.571 49.3355 256.797 51.2268 255.699 48.1039C255.098 46.4179 255.303 44.2187 255.025 42.4447C254.703 40.3921 254.22 38.3541 253.619 36.3748C253.239 35.114 252.009 32.6509 253.063 31.5073C253.678 30.8475 254.556 30.5103 255.406 30.2171C256.299 29.8945 257.192 29.572 258.1 29.2494C258.525 29.1028 258.949 28.9415 259.403 28.9855C259.857 29.0295 260.267 29.2934 260.633 29.572C262.757 31.258 263.591 34.073 264.177 36.7267C264.851 39.8056 265.348 42.9285 265.597 46.0807C265.656 46.7844 265.671 47.5908 265.187 48.1186C264.851 48.4851 264.338 48.6464 263.84 48.7637H263.826Z" fill="#BF8012"/>
<path d="M281.412 139.356C282.906 138.916 284.399 138.477 285.907 138.051C286.625 137.846 287.357 137.626 287.914 137.128C289.246 135.911 288.455 133.462 287.972 131.718C286.596 126.836 284.414 122.276 283.037 117.394C282.496 115.488 279.23 105.899 277.883 105.752C276.551 105.606 275.072 106.412 274.764 107.717C274.544 108.655 274.911 109.623 275.277 110.517C278.117 117.291 281.529 123.889 283.286 131.014C283.594 132.246 283.814 133.653 283.067 134.665C282.393 135.588 281.148 135.867 280.197 136.512C279.245 137.157 278.674 138.755 279.655 139.356C280.167 139.679 280.841 139.518 281.427 139.356H281.412Z" fill="#F9C582"/>
<path d="M270.913 120.678C269.609 118.039 267.925 115.488 266.593 113.259C265.861 112.042 265.217 110.341 266.242 109.374C266.754 108.89 267.501 108.817 268.204 108.758C268.702 108.714 269.214 108.67 269.697 108.817C271.059 109.213 271.601 110.811 272.011 112.159C273.27 116.191 275.262 119.945 276.843 123.859C278.059 126.894 277.985 129.782 277.941 132.964C277.897 136.292 276.023 140.368 272.201 140.353C270.634 140.353 269.082 138.931 270.283 137.436C270.766 136.835 271.821 136.571 272.406 136.043C275.394 133.316 273.314 129.46 272.772 126.117C272.48 124.328 271.791 122.481 270.898 120.692L270.913 120.678Z" fill="#F9C582"/>
<path d="M263.123 110.253C263.24 111.338 263.386 112.423 263.547 113.508C263.606 113.89 263.664 114.285 263.855 114.623C265.363 117.54 272.201 114.256 274.222 113.523C276.697 112.614 279.186 111.69 281.661 110.781C281.939 110.679 282.232 110.561 282.364 110.297C282.452 110.122 282.437 109.902 282.422 109.696C281.719 100.914 276.521 92.5865 272.011 85.1826C271.337 84.0829 270.488 82.7341 269.141 82.4262C268.131 82.1916 265.861 82.5875 265.348 83.5112C264.367 85.2412 264.162 87.4697 263.738 89.3904C263.167 92.0294 262.976 94.8297 262.815 97.5274C262.566 101.765 262.669 106.031 263.123 110.253Z" fill="#F45516"/>
<path d="M259.872 75.9605C260.941 77.456 261.834 79.0834 262.552 80.7695C263.05 81.9424 263.313 84.6841 264.69 85.0653C265.524 85.2852 271.674 84.9186 271.601 82.4995C271.528 79.6405 271.074 76.8109 271.352 73.9959C271.601 71.4595 271.572 69.0111 269.961 68.1607C267.208 66.7239 263.811 68.9817 261.087 69.7295C258.115 70.5505 258.437 73.9666 259.857 75.9605H259.872Z" fill="#001909"/>
<path d="M262.552 64.8179C262.449 65.2138 262.522 65.7709 262.874 66.504C263.474 67.7209 262.903 69.1577 264.294 69.5829C266.447 70.2573 266.447 67.5743 265.934 66.0641C265.583 65.0525 265.392 63.9382 264.367 63.7476C263.855 63.645 262.698 64.2315 262.537 64.8179H262.552Z" fill="#F9C582"/>
<path d="M260.531 62.7507C260.633 63.9822 261.073 65.1258 261.863 65.639C264.924 67.6182 266.33 63.3664 265.758 60.962C265.348 59.2319 263.957 57.7658 262.112 58.7041C260.912 59.3052 260.414 61.1086 260.531 62.7653V62.7507Z" fill="#F9C582"/>
<path d="M258.525 53.0448C262.186 55.3174 264.323 59.3786 266.725 62.8973C266.915 63.1758 267.135 63.4837 267.442 63.6304C268.116 63.9382 268.921 63.3811 269.141 62.692C269.361 61.9883 269.156 61.2259 268.921 60.5368C267.97 57.6925 266.461 55.0241 264.338 52.8982C262.215 50.7723 259.477 49.2475 256.533 48.7784C255.757 48.6611 254.176 48.5438 253.927 49.5848C253.531 51.1975 255.494 51.6667 256.606 52.0919C257.295 52.3558 257.924 52.6783 258.525 53.0448Z" fill="#F9C582"/>
<path d="M247.132 52.2824C246.444 51.8573 245.58 52.1945 245.053 53.8072C243.413 58.8654 245.097 65.2431 248.948 68.8351C249.9 69.7148 250.837 70.8731 251.965 71.5475C252.667 71.9727 253.546 72.1926 254.337 71.9433C254.732 70.9904 255.098 69.8468 254.556 68.9671C254.395 68.7032 254.161 68.4833 253.927 68.278C252.126 66.5773 250.808 64.686 249.475 62.6187C248.421 60.9766 248.113 58.9827 247.982 57.0767C247.879 55.6252 248.538 53.1768 247.132 52.2971V52.2824Z" fill="#F9C582"/>
<path d="M296.568 298.549C296.831 297.025 297.007 295.485 297.285 293.975C298.178 289.166 297.563 284.724 297.549 279.886C297.549 276.807 298.134 273.772 298.339 270.707C298.369 270.282 298.369 269.813 298.061 269.52C297.827 269.3 297.49 269.271 297.168 269.241C295.323 269.095 293.2 269.095 291.94 270.458C290.769 271.734 290.827 273.684 290.988 275.399C291.413 279.856 291.999 284.313 292.336 288.77C292.672 293.33 292.306 297.611 291.999 302.127C291.896 303.505 293.668 305.382 295.074 304.311C295.616 303.886 295.85 301.643 296.04 300.969C296.26 300.177 296.436 299.37 296.568 298.549Z" fill="#F9C582"/>
<path d="M301.502 269.197C301.151 269.608 300.302 270.341 300.214 270.869C299.789 273.141 300.419 275.135 300.536 277.349C300.653 279.636 300.653 281.85 300.653 284.123C300.638 289.87 302.762 295.221 303.04 300.969C303.098 302.039 303.142 303.182 303.801 304.033C304.46 304.883 305.954 305.132 306.525 304.223C306.759 303.842 306.788 303.373 306.803 302.933C307.111 292.949 307.403 282.95 306.788 272.98C306.715 271.836 306.613 270.62 305.968 269.667C305.002 268.244 302.644 267.893 301.517 269.197H301.502Z" fill="#F9C582"/>
<path d="M291.853 302.611C292.409 301.628 294.518 300.573 295.352 301.804C295.909 302.64 295.206 305.778 295.089 306.76C295.059 307.024 295.015 307.317 294.81 307.508C294.62 307.684 294.357 307.727 294.108 307.757C291.809 308.021 289.495 307.947 287.196 308.065C285.732 308.138 282.906 307.244 285.512 305.939C286.127 305.631 286.815 305.558 287.489 305.426C289.144 305.118 290.886 304.399 291.691 302.919C291.75 302.816 291.809 302.713 291.853 302.611Z" fill="#809127"/>
<path d="M304.68 309.311C305.134 309.78 305.793 310.132 306.422 309.941C307.286 309.692 307.579 308.622 307.696 307.727C308.048 304.912 308.209 302.523 305.061 302.185C304.768 302.156 304.46 302.127 304.167 302.229C303.347 302.523 303.23 303.622 303.274 304.502C303.347 306.217 303.494 308.094 304.68 309.311Z" fill="#809127"/>
<path d="M291.413 256.413C290.798 257.263 290.784 258.48 290.549 259.726C290.008 262.688 289.598 265.693 289.685 268.699C289.759 271.543 289.436 274.417 289.744 277.261C289.788 277.716 289.876 278.199 290.213 278.493C290.462 278.727 290.828 278.801 291.164 278.859C293.903 279.328 296.714 279.182 299.482 279.035C301.195 278.947 302.923 279.123 304.636 278.962C307.228 278.727 307.682 278.317 307.784 275.81C308.019 270.165 306.642 264.872 305.559 259.374C304.768 255.372 303.318 254.375 299.13 254.683C297.08 254.829 294.518 254.756 292.585 255.518C292.058 255.724 291.692 256.032 291.428 256.398L291.413 256.413Z" fill="#001909"/>
<path d="M273.49 231.254C272.831 231.136 272.172 231.107 271.513 231.18C271.03 230.594 270.4 229.993 270.181 229.26C269.697 227.735 270.181 225.785 271.63 225.14C271.879 225.037 272.158 224.964 272.421 224.993C272.963 225.037 273.417 225.433 273.68 225.902C273.944 226.372 274.047 226.914 274.149 227.442C274.266 228.058 274.383 228.688 274.5 229.304C274.574 229.714 274.662 230.125 274.588 230.55C274.515 230.961 273.885 231.107 273.505 231.254H273.49Z" fill="#F9C582"/>
<path d="M311.855 224.642C311.767 225.067 311.621 225.536 311.255 225.77C310.288 226.357 308.531 225.565 308.179 224.583C307.843 223.645 308.531 222.31 308.985 221.519C310.054 219.686 312.192 219.745 312.148 222.134C312.133 222.97 312.031 223.82 311.87 224.642H311.855Z" fill="#F9C582"/>
<path d="M180.521 65.9761C183.947 66.8998 190.127 65.3604 192.338 65.2871C197.375 65.1404 202.398 64.9792 207.435 64.8326C211.711 64.7006 215.855 65.6829 214.654 60.1116C214.449 59.1586 214.185 58.1177 213.409 57.5165C212.75 57.0034 211.857 56.9447 211.008 56.9154C202.222 56.5489 193.538 57.8098 184.826 57.6925C181.941 57.6485 180.301 57.4432 178.881 60.5808C177.358 63.9089 178.427 65.4044 180.521 65.9615V65.9761Z" fill="#D98E16"/>
<path d="M285.995 58.1616C287.474 61.5484 285.512 65.1698 282.144 66.0495C279.274 66.7972 276.272 67.2077 273.329 66.8412C269.859 66.416 265.158 64.2754 263.137 61.3138C261.468 58.8507 261.278 55.288 263.196 53.0155C264.763 51.1535 267.955 50.3618 269.858 52.1505C271.352 53.5433 271.967 56.197 273.988 56.4463C275.247 56.6075 276.36 55.6692 277.502 55.1121C280.519 53.6313 284.648 55.0974 285.995 58.1763V58.1616Z" fill="#F45516"/>
<path d="M253.839 68.4686C254.395 68.1754 255.084 68.3073 255.933 68.7178C257.822 69.6122 262.171 70.052 261.556 72.9843C260.692 77.0162 256.724 74.1719 254.557 73.0723C252.887 72.2072 252.184 71.7234 252.96 69.6415C253.195 69.0404 253.488 68.6592 253.839 68.4686Z" fill="#002B11"/>
<path d="M279.04 137.421C279.362 136.248 280.416 135.163 281.544 135.324C282.115 135.412 282.1 136.058 282.539 136.263C283.389 136.644 284.077 136.175 284.809 135.764C285.863 135.178 288.016 133.609 289.1 134.987C290.549 136.82 285.937 138.198 284.897 138.77C283.491 139.547 279.904 141.174 279.04 138.799C278.893 138.389 278.893 137.905 279.04 137.421Z" fill="#F45516"/>
<path d="M267.911 138.301C268.379 137.186 269.551 136.219 270.664 136.541C271.22 136.703 271.118 137.333 271.542 137.597C272.333 138.081 273.08 137.7 273.856 137.392C274.969 136.952 277.297 135.662 278.22 137.157C279.435 139.166 274.676 139.943 273.578 140.383C272.084 140.984 268.321 142.142 267.764 139.679C267.662 139.254 267.735 138.77 267.926 138.315L267.911 138.301Z" fill="#F45516"/>
<path d="M82.2212 156.158C85.018 158.709 90.9778 157.522 94.4189 157.375C96.8643 157.273 96.879 153.519 94.4189 153.563C92.5299 153.593 90.641 153.812 88.752 153.93C86.8777 154.047 84.9594 153.871 83.0851 154.062C82.104 154.164 81.3572 155.367 82.2212 156.158Z" fill="#002B11"/>
<path d="M83.5392 167.404C85.7649 168.093 88.0932 167.961 90.3921 167.858C92.6618 167.741 95.488 168.4 97.4941 167.286C98.0944 166.949 98.2994 165.952 97.7284 165.498C95.9126 164.031 93.5697 164.515 91.344 164.662C88.7375 164.823 86.0138 165.028 83.5392 165.879C82.7924 166.128 82.7631 167.169 83.5392 167.418V167.404Z" fill="#002B11"/>
<path d="M83.9785 177.842C84.2713 179.675 86.9217 179.807 88.3275 179.895C90.5239 180.027 93.0865 179.968 95.2537 179.528C97.3623 179.103 96.6594 176.186 94.7851 176.01C95.3562 176.45 95.9273 176.889 96.513 177.329C96.3959 176.508 95.5026 176.083 94.7851 176.01C93.1304 175.863 91.3147 176.274 89.6454 176.362C88.0932 176.45 86.4971 176.42 84.9596 176.538C84.242 176.596 83.8613 177.139 83.9785 177.828V177.842Z" fill="#002B11"/>
<path d="M83.5538 190.656C85.6477 191.771 87.6538 191.712 89.9967 191.668C92.4568 191.624 95.5904 192.167 97.6697 190.642C98.1676 190.275 98.1676 189.645 97.6697 189.293C95.7661 187.929 93.2622 188.457 91.0364 188.589C88.4006 188.736 85.9113 188.677 83.5538 189.967C83.2902 190.114 83.2902 190.524 83.5538 190.671V190.656Z" fill="#002B11"/>
<path d="M84.857 202.723C87.0681 203.045 89.2646 203.412 91.461 203.764C93.3939 204.086 95.3708 204.614 97.3183 204.218C98.8119 203.91 98.5922 201.843 97.3183 201.418C95.3708 200.773 93.0718 200.714 91.0364 200.48C88.8838 200.245 86.9217 200.201 84.857 200.875C84.0516 201.139 83.8612 202.561 84.857 202.708V202.723Z" fill="#002B11"/>
<path d="M85.0034 215.405C87.0388 216.299 89.1328 216.372 91.3439 216.241C93.3793 216.123 96.264 216.695 97.8601 215.244C98.2262 214.906 98.1237 214.408 97.8601 214.071C96.6886 212.59 94.7411 213.015 93.0279 213.132C90.5092 213.308 87.9613 213.499 85.4573 213.792C84.7105 213.88 84.1248 215.024 85.0181 215.405H85.0034Z" fill="#002B11"/>
<path d="M85.267 226.328C87.8296 229.7 92.7058 227.984 96.2787 228.644C97.0841 228.791 97.7137 228.541 98.1969 227.867C98.3873 227.603 98.4312 227.324 98.4312 227.017C98.4312 226.284 97.9187 225.55 97.1866 225.389C93.599 224.553 89.9821 225.829 86.3946 224.876C85.6331 224.671 84.7106 225.609 85.267 226.342V226.328Z" fill="#002B11"/>
<path d="M85.8088 238.643C87.0534 239.992 89.0156 240.095 90.7289 240.168C92.94 240.271 95.9711 240.168 98.0651 239.449C99.3976 239.01 99.588 236.913 98.0651 236.561C96.1615 236.121 94.0675 236.678 92.1492 236.854C90.2456 237.03 88.342 236.898 86.4531 237.074C85.6623 237.148 85.2377 238.013 85.8088 238.643Z" fill="#002B11"/>
<path d="M85.8089 251.311C88.2982 252.205 90.9047 252.571 93.5258 252.894C95.9273 253.187 98.7827 254.023 100.686 252.234C101.082 251.853 101.067 251.193 100.686 250.797C99.0755 249.17 96.7473 249.61 94.5801 249.463C91.754 249.258 88.9571 248.803 86.1164 248.979C84.7546 249.067 84.5349 250.856 85.7942 251.311H85.8089Z" fill="#002B11"/>
<path d="M86.7899 262.585C89.1474 263.025 91.5636 263.098 93.9358 263.406C95.9419 263.67 98.2994 264.652 100.13 263.509C100.54 263.245 100.789 262.629 100.481 262.189C99.2512 260.474 97.2451 260.503 95.2683 260.254C92.4714 259.887 89.6014 259.624 86.8045 260.063C85.5306 260.269 85.5745 262.351 86.8045 262.585H86.7899Z" fill="#002B11"/>
<path d="M86.8631 273.816C89.3377 274.27 91.8124 274.637 94.3311 274.739C96.2054 274.827 99.6905 275.106 100.569 273.024C100.818 272.438 100.701 271.939 100.188 271.558C98.7094 270.488 96.0736 271.411 94.3457 271.455C91.8417 271.529 89.367 271.441 86.8777 271.822C85.882 271.983 85.9113 273.61 86.8777 273.786L86.8631 273.816Z" fill="#002B11"/>
<path d="M87.4781 284.738C91.0071 285.208 94.5068 285.398 98.0651 285.398C98.6215 285.398 99.339 285.076 99.5733 284.533C99.8955 283.771 99.9101 283.522 99.5733 282.774C99.339 282.246 98.6215 281.894 98.0651 281.909C94.4189 282.041 90.8753 282.701 87.2731 283.258C86.3652 283.404 86.7166 284.636 87.4781 284.724V284.738Z" fill="#002B11"/>
<path d="M88.0052 295.192C90.4799 294.708 93.0132 295.265 95.4732 295.69C97.2743 295.998 99.6026 296.907 101.243 295.822C101.872 295.412 102.033 294.547 101.477 293.99C99.9833 292.465 97.0693 292.714 95.0486 292.568C92.3982 292.362 89.8649 292.744 87.4488 293.843C86.6434 294.21 87.2438 295.339 88.0199 295.192H88.0052Z" fill="#002B11"/>
<path d="M268.76 142.684C271.001 143.769 273.461 143.549 275.906 143.579C278.586 143.608 281.91 144.297 284.297 142.919C285.029 142.494 285.029 141.38 284.297 140.954C282.144 139.723 279.435 140.251 277.019 140.28C274.252 140.324 271.294 139.957 268.76 141.189C268.189 141.468 268.189 142.421 268.76 142.684Z" fill="#002B11"/>
<path d="M269.566 154.941C274.061 156.363 279.142 154.194 283.799 155.264C286.01 155.777 286.845 152.625 284.721 151.892C282.364 151.056 279.64 151.335 277.18 151.511C274.691 151.701 271.923 151.76 269.551 152.596C268.424 152.991 268.365 154.56 269.551 154.941H269.566Z" fill="#002B11"/>
<path d="M270.649 165.864C271.938 167.096 274.017 166.89 275.687 166.934C278.22 166.993 280.753 167.066 283.286 166.993C284.077 166.964 284.677 166.48 284.926 165.732C285.044 165.395 285.044 165.16 284.926 164.823C284.677 164.075 284.077 163.592 283.286 163.562C280.753 163.489 278.22 163.562 275.687 163.621C274.017 163.665 271.953 163.46 270.649 164.691C270.327 164.999 270.327 165.556 270.649 165.849V165.864Z" fill="#002B11"/>
<path d="M271.381 178.033C273.109 179.015 275.115 178.927 277.063 178.942C279.128 178.957 281.514 179.338 283.462 178.561C284.868 177.989 284.868 176.259 283.462 175.687C281.514 174.895 279.128 175.291 277.063 175.306C275.115 175.321 273.109 175.218 271.381 176.215C270.693 176.611 270.693 177.652 271.381 178.048V178.033Z" fill="#002B11"/>
<path d="M272.026 191.8C274.178 192.636 276.521 192.636 278.791 192.65C280.797 192.665 283.711 193.442 285.087 191.668C285.439 191.214 285.439 190.759 285.087 190.305C283.828 188.677 281.573 189.293 279.728 189.308C277.151 189.337 274.456 189.22 272.026 190.173C271.235 190.481 271.235 191.492 272.026 191.8Z" fill="#002B11"/>
<path d="M271.645 203.089C275.789 203.676 280.211 203.632 284.399 203.588C286.683 203.558 286.683 200.098 284.399 200.04C280.167 199.937 275.335 199.424 271.411 201.301C270.693 201.652 270.81 202.972 271.645 203.089Z" fill="#002B11"/>
<path d="M273.885 213.543C276.814 215.009 280.943 214.408 284.121 214.437C286.449 214.466 286.449 210.801 284.121 210.83C280.943 210.86 276.814 210.259 273.885 211.725C273.197 212.077 273.197 213.206 273.885 213.558V213.543Z" fill="#002B11"/>
<path d="M271.762 224.964C275.408 227.662 281.866 226.665 286.098 226.357C288.514 226.181 288.543 222.692 286.098 222.574C283.608 222.457 281.105 222.809 278.615 222.911C276.419 222.999 274.164 222.853 271.996 223.19C271.074 223.337 271.191 224.524 271.762 224.949V224.964Z" fill="#002B11"/>
<path d="M273.563 237.397C274.749 239.039 277.649 238.76 279.435 238.687C281.749 238.584 285.571 238.848 287.006 236.708C287.445 236.048 287.137 235.11 286.478 234.729C284.589 233.629 281.529 234.816 279.435 234.992C277.649 235.139 274.72 234.948 273.563 236.59C273.402 236.81 273.402 237.206 273.563 237.412V237.397Z" fill="#002B11"/>
<path d="M273.344 250.079C275.174 250.812 277.253 250.929 279.201 250.973C281.353 251.032 283.608 251.193 285.746 250.915C288.001 250.607 288.001 247.689 285.746 247.396C283.594 247.117 281.368 247.308 279.201 247.337C277.253 247.367 275.159 247.513 273.344 248.232C272.436 248.584 272.436 249.712 273.344 250.064V250.079Z" fill="#002B11"/>
<path d="M274.749 259.492C276.111 260.738 277.707 261.104 279.538 261.134C281.675 261.163 283.989 261.28 286.098 261.119C287.591 261.002 288.558 258.788 286.932 258.025C283.638 256.471 278.527 257.483 275.071 258.245C274.53 258.363 274.339 259.125 274.735 259.492H274.749Z" fill="#002B11"/>
<path d="M274.398 271.895C276.58 272.701 278.966 272.599 281.28 272.57C283.403 272.54 285.878 273.039 287.723 271.851C288.499 271.353 288.514 270.253 287.723 269.755C285.849 268.567 283.418 269.153 281.28 269.256C278.879 269.373 276.433 269.491 274.222 270.458C273.534 270.766 273.856 271.69 274.412 271.895H274.398Z" fill="#002B11"/>
<path d="M274.676 284.958C276.755 285.779 279.113 285.765 281.309 285.809C283.477 285.853 285.922 286.395 287.635 284.856C288.118 284.416 288.118 283.536 287.635 283.111C286.083 281.704 284.209 282.129 282.217 282.143C279.728 282.173 277.019 282.085 274.676 283.008C273.724 283.39 273.724 284.577 274.676 284.958Z" fill="#002B11"/>
<path d="M303.186 249.111C302.791 246.868 302.864 244.61 304.094 242.484C304.636 241.531 305.427 240.74 306.144 239.889C308.853 236.693 310.61 232.735 311.43 228.629C311.635 227.574 312.002 225.712 311.225 224.788C310.728 224.187 308.722 223.41 307.975 223.762C307.155 224.143 306.964 225.624 306.833 226.386C306.261 229.436 305.251 234.069 303.128 236.459C301.473 238.321 297.681 239.625 295.938 237.25C294.942 235.887 294.195 233.365 292.131 234.948C291.56 235.388 291.325 236.121 291.179 236.825C291.018 237.617 290.93 238.438 290.623 239.186C289.89 241.004 287.211 240.974 285.527 240.974C281.69 240.989 277.986 237.236 276.243 234.113C275.423 232.632 276.067 229.612 274.764 228.556C273.754 227.735 270.913 227.955 270.327 229.187C269.815 230.271 269.976 232.002 270.151 233.145C270.532 235.462 271.674 237.675 272.992 239.581C274.984 242.44 278.249 244.596 281.602 245.519C283.155 245.944 284.414 245.827 285.746 246.927C286.947 247.909 287.694 249.243 288.045 250.739C288.543 252.938 288.939 254.815 289.202 257.028C289.436 259.36 289.759 260.577 292.35 260.635C295.089 260.708 297.724 259.785 300.448 259.58C302.996 259.389 306.218 259.653 305.266 256.339C304.607 254.023 303.626 251.574 303.201 249.126L303.186 249.111Z" fill="#F45516"/>
<path d="M297.666 230.843C297.329 230.066 296.641 229.406 295.66 228.967C292.57 227.588 285.512 231.576 289.949 234.538C292.511 236.239 299.555 235.124 297.651 230.843H297.666Z" fill="#F9C582"/>
<path d="M300.097 225.682C297.973 224.773 296.04 226.606 296.172 228.776C296.333 231.503 299.994 233.306 301.634 230.55C302.19 229.626 302.205 228.424 301.78 227.427C301.458 226.665 300.858 226.005 300.097 225.682Z" fill="white"/>
<path d="M85.9113 141.658C85.9113 141.658 85.8673 141.6 85.8527 141.585C84.8423 140.397 83.0998 141.453 82.7776 142.699C82.558 143.564 82.6458 144.502 82.3237 145.353C82.1919 145.719 81.9723 146.071 81.9869 146.452C82.0015 146.834 82.2505 147.171 82.4994 147.479C83.7294 149.003 84.813 150.822 86.4823 151.906C88.8692 153.475 90.3188 151.965 88.8985 149.429C88.4006 148.534 87.7124 147.757 87.2731 146.834C86.8045 145.822 86.3945 144.766 86.1895 143.681C86.087 143.183 86.2041 142.142 85.9113 141.673V141.658Z" fill="#C1C94F"/>
<path d="M91.2415 147.259C91.3586 148.05 92.0029 148.754 92.53 150C92.9547 151.012 92.9108 152.537 93.0718 153.636C93.1743 154.355 93.2915 155.117 93.7161 155.718C94.1408 156.319 94.9462 156.715 95.6198 156.407C96.2641 156.114 96.4983 155.323 96.5862 154.604C96.8644 152.126 96.0444 149.663 96.0005 147.171C96.0005 146.584 96.0151 145.983 95.8833 145.397C95.7515 144.825 95.4294 144.253 94.8876 143.989C93.9944 143.564 92.9401 144.165 92.2958 144.913C91.3879 145.954 91.1536 146.628 91.2561 147.259H91.2415Z" fill="#C1C94F"/>
<path d="M106.163 99.7853C102.048 98.2458 98.0212 99.9759 96.4544 104.096C95.6783 106.104 95.8833 108.201 95.1218 110.18C94.0383 112.995 93.4379 115.986 91.9882 118.654C89.4989 123.243 87.6099 128.126 85.9406 133.067C85.1059 135.53 84.2566 138.022 83.5391 140.529C82.7484 143.286 85.1938 143.403 87.3171 143.857C87.7124 143.945 91.6953 131.043 92.1346 129.973C93.2622 127.29 93.8479 124.636 94.8729 121.924C95.4879 120.311 96.1469 117.892 97.7576 116.983C99.6612 115.913 99.1048 118.039 98.8851 119.168C98.1969 122.686 96.7179 125.824 95.9565 129.269C95.649 130.633 91.8418 145.455 91.8711 145.47C93.189 145.969 94.5947 146.247 96.0151 146.291C96.6594 145.778 96.8644 144.913 97.0255 144.107C98.0651 139.019 98.8705 133.858 100.672 128.961C101.799 125.912 103.512 123.126 104.698 120.135C106.002 116.836 107.144 113.288 107.935 109.828C108.403 107.805 109.311 105.298 109.457 103.304C109.604 101.398 107.715 100.342 106.163 99.756V99.7853Z" fill="#D9F9E3"/>
<path d="M99.8955 103.245C103.073 104.536 106.368 105.547 109.721 106.295C110.219 106.412 110.805 106.5 111.215 106.207C111.566 105.958 111.713 105.503 111.83 105.093C113.704 98.4951 115.871 91.9854 118.317 85.5931C118.888 84.0976 119.049 82.7927 119.371 81.2826C119.693 79.7725 120.542 78.1891 119.898 76.635C119.342 75.3155 118.492 75.55 117.277 75.2128C114.524 74.4358 111.478 71.7527 108.74 74.0986C107.73 74.9636 107.188 76.2538 106.661 77.4853C103.717 84.5081 100.789 91.5309 97.8454 98.5684C97.494 99.4187 97.1279 100.357 97.4061 101.237C97.7429 102.292 98.8705 102.85 99.8955 103.26V103.245Z" fill="#F45516"/>
<path d="M129.021 58.8214C129.153 58.103 129.021 56.7102 129.621 56.197C130.368 55.5519 132.286 55.376 133.15 55.8598C134.966 56.8714 133.414 60.0676 133.165 61.5044C132.682 64.2754 132.081 67.0318 131.188 69.7148C129.401 75.0222 126.282 79.8458 121.275 82.5875C119.473 83.5698 117.789 82.7488 117.262 80.8135C116.662 78.6582 117.526 77.1334 119.342 76.2538C123.778 74.0985 127.337 68.7618 128.435 63.9969C128.64 63.0732 128.699 60.8593 129.05 58.8214H129.021Z" fill="#FF703E"/>
</g>
<defs>
<clipPath id="clip0_114_2011">
<rect width="381" height="310" fill="white"/>
</clipPath>
</defs>
</svg>
