<svg width="555" height="395" viewBox="0 0 555 395" fill="none" xmlns="http://www.w3.org/2000/svg">
<g clip-path="url(#clip0_107_1285)">
<path d="M9.19315 347.844C9.19315 347.844 5.45123 358.785 20.9503 361.525C42.1481 365.273 162.007 375.327 131.778 382.807C114.714 387.031 145.066 392.557 228.182 394.669C311.3 396.781 453.921 388.505 405.96 376.263C357.998 364.022 553.408 373.308 541.504 347.841H9.19315V347.844Z" fill="#CFDDF9"/>
<path d="M102.903 347.701C102.903 347.701 42.65 187.672 87.8273 153.625C118.025 130.869 147.507 188.162 185.71 161.624C219.72 137.996 196.786 81.5047 231.064 56.1752C284.371 16.7792 339.824 185.965 387.617 160.753C462.799 121.095 508.76 183.657 456.554 347.993L102.903 347.701Z" fill="#D4E8FF"/>
<path d="M53.7826 335.102C52.7295 332.178 51.6863 329.149 50.6847 326.098L53.1557 325.433C54.1524 328.464 55.1882 331.474 56.2339 334.378L53.7826 335.102ZM495.785 331.327L493.226 331.04C493.65 327.927 494.054 324.793 494.426 321.724L496.988 321.977C496.615 325.058 496.211 328.202 495.785 331.327ZM47.8391 317.027C46.9379 314.013 46.0612 310.94 45.2383 307.898L47.7411 307.344C48.5591 310.368 49.4284 313.422 50.3272 316.419L47.8391 317.03V317.027ZM498.043 312.612L495.477 312.392C495.802 309.267 496.104 306.122 496.375 303.049L498.944 303.233C498.675 306.319 498.371 309.475 498.043 312.61V312.612ZM42.8825 298.715C42.138 295.642 41.4303 292.537 40.7764 289.483L43.3062 289.039C43.9551 292.075 44.658 295.161 45.3975 298.215L42.8801 298.715H42.8825ZM499.684 293.844L497.113 293.697C497.33 290.574 497.522 287.425 497.681 284.335L500.254 284.442C500.095 287.545 499.902 290.707 499.684 293.844ZM38.93 280.202C38.3569 277.092 37.8255 273.957 37.3529 270.881L39.9046 270.56C40.3748 273.614 40.9013 276.729 41.4719 279.819L38.93 280.204V280.202ZM500.649 275.031L498.073 274.963C498.173 271.826 498.241 268.674 498.278 265.591L500.857 265.615C500.82 268.713 500.752 271.88 500.649 275.031ZM36.0599 261.522C35.6754 258.38 35.3423 255.22 35.0656 252.132L37.6345 251.944C37.9088 255.01 38.2394 258.147 38.6214 261.264L36.0599 261.522ZM498.29 256.219C498.261 253.079 498.195 249.927 498.095 246.849L500.671 246.781C500.771 249.876 500.837 253.042 500.867 256.199L498.288 256.219H498.29ZM34.3897 242.719C34.2183 239.56 34.1056 236.388 34.0518 233.29L36.628 233.254C36.6794 236.325 36.7921 239.471 36.9611 242.604L34.3873 242.719H34.3897ZM497.678 237.487C497.502 234.353 497.284 231.206 497.032 228.137L499.603 227.963C499.858 231.049 500.076 234.213 500.254 237.367L497.681 237.487H497.678ZM36.6525 223.901L34.0762 223.852C34.1473 220.683 34.2869 217.512 34.4877 214.422L37.0615 214.559C36.8631 217.62 36.726 220.762 36.6549 223.901H36.6525ZM496.135 218.809C495.79 215.675 495.401 212.545 494.977 209.506L497.534 209.214C497.962 212.275 498.354 215.425 498.699 218.581L496.135 218.812V218.809ZM37.8769 205.243L35.3129 205.01C35.6631 201.854 36.0892 198.699 36.5815 195.636L39.1332 195.972C38.6459 199.004 38.2247 202.123 37.8794 205.246L37.8769 205.243ZM493.535 200.235C492.998 197.12 492.411 194.017 491.784 191.013L494.316 190.581C494.945 193.61 495.54 196.737 496.079 199.874L493.532 200.235H493.535ZM188.683 199.906C185.1 199.396 182.512 197.919 178.922 195.369L180.55 193.561C183.694 195.788 185.965 197.125 188.957 197.586L188.683 199.906ZM197.626 194.353L195.332 193.291C196.512 191.199 197.555 188.295 198.432 184.662L200.949 185.16C200.012 189.043 198.924 192.05 197.626 194.353ZM171.357 188.675C169.305 186.605 167.108 184.221 164.649 181.39L166.675 179.948C169.101 182.739 171.259 185.084 173.274 187.118L171.357 188.677V188.675ZM40.8548 186.762L38.3251 186.318C38.9936 183.203 39.7479 180.098 40.5707 177.086L43.0735 177.645C42.2605 180.618 41.516 183.684 40.8548 186.762ZM489.702 181.852C488.938 178.768 488.115 175.712 487.256 172.769L489.749 172.173C490.618 175.146 491.448 178.231 492.22 181.341L489.705 181.852H489.702ZM202.683 175.769L200.127 175.472C200.523 172.686 200.878 169.637 201.212 166.147L203.78 166.348C203.442 169.87 203.085 172.953 202.683 175.771V175.769ZM158.336 173.873C156.24 171.31 154.068 168.602 152.194 166.264L154.281 164.893C156.149 167.226 158.319 169.929 160.408 172.482L158.336 173.87V173.873ZM347.051 173.681C345.043 173.681 343.074 173.139 341.198 172.068L342.572 170.093C345.391 171.704 348.165 171.707 351.16 170.422L352.27 172.529C350.499 173.294 348.743 173.681 347.051 173.681ZM45.8138 168.653L43.3478 167.971C44.3714 164.94 45.4955 161.923 46.6881 159.007L49.1052 159.816C47.9297 162.691 46.8228 165.663 45.8138 168.653ZM360.696 166.429L358.803 164.847C360.758 162.931 362.854 160.567 365.207 157.618L367.296 158.987C364.879 162.009 362.722 164.444 360.696 166.429ZM333.866 164.825C332.198 162.494 330.545 159.75 328.812 156.436L331.141 155.438C332.823 158.658 334.422 161.312 336.029 163.554L333.866 164.825ZM484.405 163.792C483.367 160.768 482.26 157.793 481.111 154.945L483.533 154.145C484.694 157.027 485.816 160.039 486.866 163.1L484.405 163.792ZM146.084 158.658C143.726 155.74 141.759 153.346 139.898 151.119L141.953 149.711C143.824 151.948 145.795 154.351 148.163 157.28L146.084 158.658ZM204.554 156.924L201.983 156.775C202.179 154.04 202.377 150.967 202.59 147.378L205.164 147.503C204.951 151.099 204.75 154.182 204.554 156.924ZM52.9695 151.18L50.6112 150.238C52.0267 147.336 53.5352 144.486 55.1368 141.7L57.4216 142.779C55.8446 145.521 54.3605 148.325 52.9695 151.18ZM373.2 151.18L371.045 149.897C372.877 147.376 374.77 144.705 376.685 142.007L378.853 143.267C376.933 145.973 375.04 148.646 373.198 151.18H373.2ZM324.663 147.729C323.495 145.077 322.29 142.186 320.975 138.884L323.4 138.092C324.705 141.366 325.9 144.236 327.058 146.863L324.663 147.726V147.729ZM477.32 146.274C475.934 143.351 474.47 140.513 472.964 137.837L475.261 136.777C476.792 139.5 478.28 142.384 479.689 145.355L477.32 146.274ZM133.536 143.728C131.197 141.099 129.02 138.759 126.88 136.576L128.807 135.029C130.974 137.241 133.176 139.608 135.542 142.267L133.534 143.731L133.536 143.728ZM205.7 138.095L203.127 137.977C203.3 134.859 203.472 131.739 203.656 128.566L206.229 128.688C206.046 131.86 205.872 134.98 205.7 138.095ZM384.505 135.389L382.354 134.101C384.507 131.151 386.434 128.6 388.244 126.299L390.343 127.653C388.553 129.932 386.642 132.461 384.505 135.389ZM62.5325 134.729L60.3603 133.474C62.3856 130.601 64.4745 128.006 66.5683 125.765L68.5372 127.271C66.5169 129.436 64.4965 131.945 62.5325 134.729ZM317.532 129.981C316.349 126.844 315.191 123.707 314.211 121.05L316.655 120.312C317.632 122.964 318.791 126.098 319.971 129.228L317.532 129.981ZM119.79 129.817C117.155 127.494 114.564 125.443 112.091 123.719L113.663 121.87C116.217 123.648 118.882 125.76 121.588 128.144L119.79 129.817ZM467.956 129.716C466.109 126.986 464.172 124.406 462.201 122.046L464.256 120.638C466.278 123.059 468.262 125.703 470.153 128.497L467.956 129.716ZM75.7639 120.918L74.2015 119.061C77.2798 116.935 80.483 115.402 83.7229 114.504L84.4771 116.736C81.5311 117.553 78.5998 118.958 75.7639 120.918ZM396.556 120.204L394.552 118.735C396.97 116.035 399.259 113.712 401.556 111.632L403.381 113.28C401.15 115.301 398.919 117.567 396.558 120.204H396.556ZM206.802 119.287L204.229 119.147C204.451 115.755 204.674 112.674 204.907 109.729L207.478 109.895C207.246 112.831 207.025 115.902 206.802 119.284V119.287ZM103.566 118.799C100.351 117.349 97.187 116.425 94.1626 116.049L94.5127 113.736C97.8139 114.146 101.247 115.147 104.715 116.709L103.566 118.799ZM455.567 115.026C453.086 112.723 450.515 110.692 447.931 108.988L449.45 107.102C452.151 108.885 454.832 111.001 457.413 113.398L455.569 115.029L455.567 115.026ZM310.92 112.12C309.637 108.647 308.581 105.816 307.594 103.209L310.033 102.454C311.023 105.066 312.081 107.904 313.366 111.379L310.922 112.12H310.92ZM411.092 107.325L409.616 105.412C412.785 103.403 415.988 101.917 419.132 100.992L419.928 103.212C417.026 104.065 414.053 105.448 411.092 107.325ZM439.218 104.465C436.025 103.246 432.795 102.49 429.613 102.223L429.853 99.9004C433.297 100.192 436.784 101.004 440.22 102.316L439.218 104.467V104.465ZM208.304 100.528L205.737 100.322C206.058 97.0478 206.408 93.8862 206.775 90.9233L209.337 91.1833C208.972 94.1266 208.624 97.271 208.304 100.528ZM304.166 94.3326C302.919 91.1857 301.746 88.3087 300.578 85.5371L302.985 84.7031C304.161 87.4895 305.341 90.3813 306.593 93.5453L304.166 94.3326ZM210.65 81.8776L208.098 81.544C208.619 78.2769 209.192 75.135 209.802 72.2039L212.334 72.6356C211.732 75.5323 211.166 78.6424 210.65 81.8776ZM296.748 76.8225C295.362 73.8056 293.966 70.9212 292.597 68.2452L294.936 67.2641C296.32 69.967 297.728 72.8809 299.126 75.9272L296.746 76.8225H296.748ZM214.524 63.5016L212.023 62.935C212.922 59.6753 213.914 56.6069 214.969 53.8108L217.409 54.5662C216.378 57.2986 215.405 60.3057 214.524 63.5016ZM288.02 59.8691C286.326 56.9773 284.594 54.2646 282.873 51.802L285.05 50.5536C286.806 53.0652 288.569 55.8294 290.295 58.7727L288.018 59.8666L288.02 59.8691ZM221.278 46.0184L218.966 44.9858C220.658 41.8806 222.537 39.136 224.545 36.8255L226.57 38.2702C224.672 40.4531 222.892 43.0604 221.278 46.0184ZM276.966 44.2353C274.713 41.6795 272.389 39.4132 270.058 37.5049L271.786 35.7733C274.223 37.7674 276.643 40.1245 278.981 42.7808L276.966 44.2353ZM233.762 32.2217L232.374 30.2571C235.428 28.4887 238.792 27.3359 242.373 26.838L242.764 29.1435C239.539 29.5924 236.512 30.6299 233.762 32.2217ZM261.925 32.2217C258.922 30.755 255.795 29.7543 252.629 29.2441L253.082 26.9459C256.518 27.5002 259.904 28.5843 263.149 30.1663L261.925 32.2217Z" fill="#DCE6FF"/>
<path d="M513.672 279.804C492.281 276.819 494.218 321.668 463.729 321.668C435.853 321.668 420.935 221.471 390.343 241.851C267.359 323.777 363.047 184.366 280.353 181.641C242.96 180.409 218.043 217.934 208.855 284.376C195.535 344.442 164.647 238.564 132.86 248.407C112.657 254.664 114.971 321.668 87.0951 321.668C56.6038 321.668 58.6143 283.957 37.2231 286.942C14.1936 290.155 8.99707 348.624 8.99707 348.624H541.807C541.807 348.624 536.704 283.017 513.675 279.807L513.672 279.804Z" fill="#EEF7FF"/>
<path d="M493.177 326.873C473.498 325.597 476.711 337.11 448.659 337.11C423.011 337.11 423.717 311.31 406.555 305.828C374.949 295.73 348.893 346.835 336.641 321.187C313.369 253.128 245.495 218.998 214.181 321.187C201.927 346.835 173.275 301.07 144.267 305.828C126.412 308.757 127.811 337.11 102.163 337.11C74.1137 337.11 77.3242 325.597 57.6448 326.873C36.4569 328.244 30.1289 348.621 30.1289 348.621H520.691C520.691 348.621 514.363 328.246 493.175 326.873H493.177Z" fill="#DCE6FF"/>
<path d="M354.44 160.432C354.506 136.917 351.648 115.281 347.637 96.5523C346.753 99.2405 338.843 107.021 337.131 105.36C335.235 103.472 344.642 93.8494 347.108 94.1339C346.826 92.8634 346.54 91.6076 346.246 90.3665C345.293 92.91 335.74 99.9298 334.197 97.9553C332.615 95.7969 343.38 87.7445 345.778 88.3994C345.401 86.8345 345.014 85.2942 344.624 83.776C343.508 86.3121 334.212 93.0743 332.715 91.1318C331.18 88.9881 341.532 81.2153 344.049 81.5759C343.647 80.0625 343.243 78.5663 342.832 77.1045C342.063 79.5327 330.607 85.5297 329.341 83.2192C328.094 80.8278 340.27 74.4776 342.423 75.6721C342.019 74.2618 341.615 72.8686 341.206 71.5098C340.023 73.8939 329.196 79.4837 327.962 77.2492C326.796 74.8946 338.181 68.9099 340.633 69.6285C340.133 67.9999 339.629 66.4081 339.127 64.8579C337.87 67.2322 327.166 72.7362 325.944 70.5189C324.793 68.1814 335.965 62.2899 338.483 62.8933C338.086 61.7013 337.692 60.5436 337.297 59.4006C335.897 61.6032 324 65.4319 323.143 62.9889C322.408 60.5141 334.187 56.6216 336.648 57.5414C336.078 55.9201 335.529 54.397 334.954 52.8518C333.367 54.9979 321.803 58.677 320.963 56.2733C320.241 53.8525 331.584 50.0507 334.18 50.7841C333.734 49.6092 333.291 48.4589 332.845 47.3306C331.378 49.3689 318.247 50.6786 317.951 48.037C317.765 45.4984 329.818 44.2181 332.138 45.545C331.582 44.1592 331.031 42.8127 330.484 41.5029C328.932 43.4994 315.948 44.7871 315.642 42.1602C315.453 39.6486 327.294 38.3658 329.691 39.6216C329.094 38.2187 328.503 36.8623 327.923 35.555C325.631 37.1297 314.251 38.0764 313.981 35.6482C313.692 33.4383 323.855 32.0378 326.684 32.7981C326.103 31.5251 325.533 30.3037 324.979 29.1362C322.788 30.5955 310.472 29.639 310.599 27.0685C310.702 24.8218 321.056 25.2044 323.691 26.4602C323.175 25.4031 322.675 24.3999 322.195 23.4482C320.393 25.1627 307.122 23.3231 307.467 20.6717C307.788 18.3416 318.6 19.5827 321.007 21.1279C320.26 19.6882 319.575 18.4054 318.96 17.282C316.861 18.7561 304.203 16.9656 304.511 14.3633C304.734 12.1656 314.843 13.1639 317.437 14.5497C316.866 13.549 316.425 12.8033 316.136 12.3226C313.597 11.5451 306.343 1.71936 308.349 0.139794C309.301 -0.573955 312.14 1.61144 314.689 5.02076C317.784 8.97458 317.172 10.5566 319.198 13.7108C318.945 10.7651 321.847 1.1724 323.924 1.81257C326.53 2.48462 323.118 15.7589 320.802 16.5953C321.37 17.6401 321.997 18.8175 322.675 20.1199C322.876 17.233 327.93 7.90274 329.958 8.96723C332.306 10.1985 326.387 21.9668 323.961 22.629C324.526 23.7499 325.119 24.9444 325.734 26.21C326.206 23.3501 332.022 14.5472 333.94 15.7859C336.134 17.2109 329.446 28.1085 326.97 28.7928C327.524 29.9652 328.092 31.1916 328.67 32.4645C329.334 29.6635 336.004 21.2628 337.841 22.6732C339.886 24.2871 332.326 34.4316 329.791 34.9639C330.318 36.1535 330.852 37.3823 331.393 38.6479C332.226 35.9597 340.209 28.079 341.94 29.7493C343.762 31.6183 334.919 40.7303 332.346 40.902C332.828 42.0621 333.315 43.2493 333.805 44.4683C334.726 41.9223 344.326 34.8584 345.873 36.8402C347.404 38.979 337.101 46.7223 334.569 46.3937C335.071 47.6666 335.573 48.9666 336.078 50.2985C336.861 47.755 346.662 40.4973 348.237 42.5061C349.801 44.6596 339.178 52.6187 336.737 52.062C337.278 53.514 337.794 54.9464 338.331 56.4597C339.281 53.9162 348.837 46.8965 350.379 48.8709C351.917 51.0171 341.529 58.8144 339.021 58.4293C339.394 59.5012 339.766 60.5926 340.138 61.7086C341.571 59.3687 351.971 54.0757 353.159 56.2537C354.285 58.5544 343.473 64.2987 340.856 63.8842C341.296 65.2332 341.735 66.6043 342.173 68.0122C343.456 65.6428 354.114 60.1707 355.334 62.3807C356.485 64.7181 345.3 70.617 342.785 70.0063C343.221 71.4387 343.652 72.9029 344.083 74.3918C345.104 71.9856 356.186 66.2266 357.437 68.4929C358.637 70.8696 346.895 77.0138 344.568 76.0842C344.955 77.4577 345.34 78.8582 345.719 80.2759C347.149 78.0316 358.515 73.6388 359.504 75.9934C360.395 78.4363 348.69 83.0843 346.238 82.2283C346.637 83.7539 347.027 85.3114 347.414 86.8861C348.393 84.5461 360.496 79.7829 361.505 82.2258C362.467 84.7301 349.875 89.6626 347.774 88.3528C348.173 90.0084 348.56 91.6959 348.942 93.403C350.328 91.2519 362.817 88.2645 363.479 90.808C364.037 93.3809 351.506 96.4027 349.317 95.0929C353.47 114.185 356.458 136.333 356.387 160.441L354.442 160.437L354.44 160.432Z" fill="#274FC1"/>
<path d="M330.416 175.052C347.306 155.166 360.369 134.769 370.377 116.01C367.703 117.656 355.427 118.571 355.167 115.934C354.912 112.971 369.772 111.568 371.66 113.579C372.331 112.299 372.988 111.028 373.627 109.765C370.999 111.239 357.876 110.329 357.981 107.546C358.184 104.58 373.076 105.483 374.638 107.759C375.437 106.16 376.215 104.578 376.97 103.01C374.207 104.359 361.485 103.418 361.608 100.695C361.84 97.7763 376.179 98.6176 378.057 100.732C378.801 99.1596 379.526 97.6021 380.227 96.0667C377.837 97.5727 363.831 94.4307 364.412 91.5635C365.068 88.6422 379.935 92 380.905 94.5583C381.574 93.0719 382.225 91.6003 382.852 90.1531C380.141 91.3255 366.963 88.289 367.514 85.5101C368.212 82.6747 382.147 85.7774 383.712 88.1492C384.454 86.4078 385.166 84.6982 385.849 83.023C383.085 84.1341 370.071 81.1148 370.622 78.3554C371.32 75.547 385.007 78.5737 386.711 80.894C387.228 79.599 387.725 78.3334 388.208 77.0825C385.443 77.9434 372.616 72.6479 373.639 69.9597C374.788 67.3352 387.561 72.4934 388.989 75.0393C389.662 73.2562 390.292 71.5687 390.906 69.8468C388.024 70.5263 375.591 65.3436 376.595 62.702C377.714 60.1315 390.052 65.0542 391.729 67.5388C392.192 66.2217 392.638 64.9291 393.069 63.6537C390.365 64.3257 378.299 56.0085 379.938 53.5557C381.598 51.2697 392.728 58.8365 393.747 61.6277C394.269 60.0555 394.766 58.5176 395.238 57.0141C392.493 57.5929 380.565 49.3591 382.186 46.9137C383.824 44.6498 394.778 52.062 395.914 54.8483C396.412 53.2295 396.882 51.6573 397.327 50.1341C380.567 43.7864 382.433 32.2364 398.248 46.9063C398.667 45.4101 399.059 43.9655 399.426 42.5797C396.524 42.2412 386.768 32.5896 388.715 30.4999C390.412 28.6701 398.912 36.4257 400.249 39.3813C400.567 38.1157 400.864 36.904 401.138 35.7537C398.38 35.9107 388.45 24.8242 390.639 22.8253C392.579 21.0813 400.856 29.8965 401.792 32.9306C402.188 31.1769 402.526 29.5924 402.811 28.2017C399.975 27.9441 390.524 17.336 392.65 15.3517C394.411 13.6495 402.267 21.7534 403.474 24.7924C403.707 23.5292 403.866 22.5849 403.966 21.9692C402.37 19.4846 403.251 5.94791 406.085 6.04847C407.402 6.12696 408.245 10.017 407.968 14.7385C407.762 20.3136 406.109 21.2163 405.57 25.3418C407.463 22.6634 416.791 16.6149 418.094 18.6482C419.821 21.0887 407.427 29.8941 404.865 28.9375C404.598 30.2325 404.29 31.6797 403.93 33.2715C406.166 30.9684 417.132 26.6859 418.089 29.0479C419.199 31.7802 405.752 37.5049 403.224 36.3227C402.901 37.6815 402.551 39.1164 402.164 40.6322C404.613 38.5449 415.844 35.2607 416.583 37.6864C417.423 40.4728 403.949 44.9073 401.363 43.7079C400.993 45.1011 400.597 46.5458 400.175 48.0444C402.742 46.146 414.413 43.8134 414.96 46.3275C415.537 49.1628 401.868 52.3367 399.338 50.9681C398.934 52.3539 398.505 53.7814 398.057 55.2432C400.687 53.5631 413.096 52.6114 413.37 55.2702C413.578 58.162 399.556 59.538 397.252 57.8333C396.833 59.1627 396.392 60.524 395.934 61.9073C398.535 60.4087 411.734 61.3137 411.629 64.1074C411.394 67.0213 397.114 66.1849 395.207 64.0878C394.719 65.5276 394.22 66.9894 393.693 68.4831C396.176 66.8888 409.682 67.7718 409.582 70.6072C409.369 73.5579 394.658 72.6749 392.99 70.4502C392.412 72.0715 391.822 73.656 391.195 75.3238C393.823 73.8497 406.949 74.7597 406.841 77.5411C406.611 80.4648 392.219 79.6161 390.37 77.4872C389.917 78.662 389.452 79.854 388.969 81.0682C391.859 80.1116 404.464 83.0941 403.915 85.7946C403.224 88.5539 389.946 85.6622 388.022 83.4302C387.429 84.8895 386.819 86.3685 386.182 87.8745C388.967 86.7855 401.919 89.7999 401.371 92.5495C400.673 95.3579 386.969 92.3287 385.274 90.0035C384.618 91.5316 383.937 93.0817 383.234 94.6539C385.82 93.3466 399.338 96.4224 398.777 99.243C398.094 102.12 383.738 98.8972 382.433 96.4395C381.779 97.8817 381.101 99.3436 380.408 100.82C383.227 99.9445 396.007 104.382 395.16 107.087C394.166 109.8 380.915 105.333 379.45 102.846C378.696 104.426 377.913 106.025 377.114 107.639C379.619 106.358 393.289 111.011 392.395 113.805C391.418 116.618 377.212 111.759 376.367 109.14C375.52 110.83 374.641 112.539 373.742 114.261C376.455 113.432 389.182 119.868 387.926 122.5C386.56 125.083 373.771 118.647 372.853 115.963C362.71 135.132 349.385 156.054 332.069 176.443L330.423 175.043L330.416 175.052Z" fill="#42B297"/>
<path d="M495.536 141.771C497.368 148.048 498.496 153.657 498.643 156.757C500.502 153.449 502.29 150.405 503.999 147.606C501.465 145.342 496.54 114.168 499.584 113.547C502.466 113.464 506.404 139.917 505.684 144.884C507.641 141.769 509.485 138.982 511.211 136.503C508.699 135.205 510.244 101.311 513.349 101.681C514.674 101.75 515.347 109.648 514.853 119.321C514.539 125.485 513.824 130.881 513.006 133.969C515.328 130.751 517.407 128.114 519.214 125.973C516.934 124.33 524.964 91.1808 527.932 92.1717C530.589 93.1406 524.323 118.517 521.795 123.037C527.122 117.56 528.319 115.282 537.799 108.448C556.212 95.0979 559.085 99.0811 540.605 112.35C531.596 119.348 528.398 118.107 522.427 125.289C526.6 123.246 554.339 120.319 554.998 123.216C555.242 126.326 523.103 129.346 520.718 127.268C518.827 129.51 516.633 132.301 514.162 135.75C517.968 133.974 547.19 134.045 547.511 137.074C547.394 140.192 515.242 139.667 513.023 137.359C511.236 139.914 509.313 142.796 507.273 146.041C511.527 144.425 539.712 144.54 540.052 147.513C539.751 150.594 509.117 150.086 506.044 148.018C504.239 150.949 502.346 154.153 500.37 157.658C504.638 156.046 532.791 156.164 533.129 159.132C532.801 162.203 502.469 161.702 499.238 159.681C497.615 162.61 495.94 165.737 494.216 169.073C498.195 167.356 527.029 167.444 527.359 170.454C527.083 173.542 496.207 173.029 493.266 170.925C491.676 174.098 489.95 177.255 488.135 180.164C492.085 178.945 521.141 183.473 520.99 186.522C520.277 189.546 489.556 184.302 487.126 181.756C485.069 184.937 482.885 187.912 480.583 190.672C483.637 189.19 514.289 196.558 513.697 199.612C513.124 202.688 480.404 194.363 479.816 191.579C476.848 195.035 473.665 198.17 470.18 201.003C474.238 200.782 501.318 212.763 500.37 215.675C498.969 218.456 470.072 205.17 468.752 202.131C465.071 204.969 461.195 207.365 457.161 209.295C461.303 209.928 485.569 226.285 484.151 228.981C482.282 231.471 456.177 213.337 455.393 210.11C444.64 214.841 436.676 214.637 436.333 214.625L436.397 212.687C436.476 212.69 444.136 212.871 454.323 208.459C451.517 205.572 442.977 177.061 445.808 175.894C448.811 175.411 456.789 203.411 456.152 207.627C459.527 206.026 463.355 203.801 467.371 200.718C464.449 199.396 452.92 169.369 455.805 168.197C458.783 167.363 469.369 196.215 468.534 199.806C471.661 197.296 474.882 194.26 478.075 190.591C475.058 189.521 461.151 160.498 463.933 159.1C466.837 158.079 479.476 185.479 479.133 189.352C481.246 186.823 483.34 184.012 485.38 180.885C482.53 180.794 468.008 150.366 470.905 149.188C473.804 148.107 486.712 176.11 486.127 179.713C487.851 176.988 489.565 173.963 491.162 170.787C487.991 168.717 474.84 141.281 477.5 139.721C480.286 138.821 491.816 163.527 492.406 168.359C494.133 165.011 495.81 161.874 497.434 158.933C494.62 157.466 485.348 126.545 488.319 125.608C489.592 125.235 492.825 132.47 495.538 141.769L495.536 141.771Z" fill="#8A9EDD"/>
<path d="M67.9276 198.224C68.268 204.755 69.0541 210.424 69.9357 213.396C67.0901 210.89 64.3987 208.606 61.8641 206.529C63.5098 203.553 57.8773 172.499 54.8015 172.919C52.0538 173.792 57.0594 200.063 59.376 204.515C56.5035 202.222 53.8415 200.203 51.395 198.432C53.3395 196.377 40.7056 164.896 37.8942 166.272C36.6673 166.774 38.6363 174.452 42.2925 183.421C44.6214 189.136 47.0727 193.993 48.8629 196.637C45.6107 194.368 42.7798 192.568 40.3676 191.142C41.979 188.837 23.4702 160.204 20.9944 162.122C18.8075 163.915 33.087 185.793 36.9637 189.224C30.1312 185.818 28.248 184.061 17.0467 180.748C-4.73628 174.236 -6.1346 178.945 15.6851 185.359C26.4946 188.984 29.1051 186.755 37.1081 191.559C32.4969 191.012 5.34831 197.424 5.68381 200.377C6.4797 203.394 37.811 195.611 39.3758 192.862C41.8982 194.353 44.8908 196.261 48.3584 198.699C44.1806 198.282 16.6206 208.015 17.3185 210.98C18.4573 213.884 48.6327 202.754 49.9649 199.842C52.4971 201.662 55.2594 203.747 58.2569 206.136C53.7068 206.018 27.1435 215.449 27.8023 218.366C29.1027 221.174 57.8503 210.561 60.0691 207.596C62.7408 209.764 65.5815 212.163 68.6035 214.816C64.0436 214.706 37.5098 224.129 38.1685 227.043C39.4909 229.835 67.9545 219.329 70.3373 216.354C72.8352 218.581 75.4482 220.98 78.1738 223.558C73.8515 223.254 46.6638 232.873 47.3446 235.824C48.6229 238.647 77.5983 227.951 79.6799 224.99C82.2267 227.46 84.896 229.869 87.5678 232.015C83.4365 232.17 57.5051 246.055 58.6536 248.883C60.3213 251.502 87.5923 236.391 89.0469 233.183C92.037 235.505 95.081 237.593 98.1642 239.435C94.7945 239.045 68.29 256.14 69.8573 258.826C71.4148 261.541 99.5527 242.859 99.1878 240.038C103.131 242.317 107.166 244.225 111.391 245.746C107.487 246.879 85.8781 267.146 87.7319 269.579C89.9726 271.74 112.865 249.64 113.11 246.337C117.518 247.796 121.97 248.777 126.412 249.265C122.712 251.232 105.2 274.698 107.428 276.773C110.012 278.504 128.675 252.753 128.349 249.447C140.06 250.357 147.507 247.529 147.828 247.404L147.13 245.596C147.057 245.625 139.886 248.328 128.815 247.536C130.512 243.881 129.172 214.147 126.116 213.982C123.123 214.52 124.825 243.587 126.816 247.357C123.104 246.96 118.757 246.126 113.95 244.546C116.271 242.334 117.253 210.178 114.146 210.024C111.06 210.222 110.58 240.955 112.554 244.07C108.775 242.736 104.732 240.936 100.51 238.53C103.006 236.523 106.562 204.527 103.476 204.127C100.398 204.127 97.503 234.169 99.1046 237.708C96.2761 236.02 93.3717 234.061 90.4159 231.782C93.0754 230.754 96.7512 197.228 93.6288 197.076C90.5359 197.014 87.5849 227.715 89.3237 230.924C86.7964 228.922 84.1834 226.634 81.6292 224.164C83.941 221.162 87.3082 190.914 84.2838 190.321C81.3574 190.392 78.6195 217.527 79.6554 222.283C76.9224 219.695 74.3045 217.286 71.8018 215.049C73.9739 212.734 72.5291 180.48 69.4165 180.579C68.0917 180.647 67.428 188.547 67.93 198.221L67.9276 198.224Z" fill="#42B297"/>
<path d="M82.5524 141.585C81.5263 139.623 99.0139 127.675 102.033 127.18C99.4915 125.983 96.6165 124.32 93.6043 122.024C92.708 124.222 71.7331 134.03 70.7242 132.009C70.0385 129.893 89.6371 121.072 92.5807 121.222C90.2664 119.363 87.8861 117.121 85.5303 114.421C85.1801 116.442 61.3939 122.657 60.9849 120.42C60.5465 118.205 82.7875 112.704 84.9866 113.785C83.3581 111.867 81.7443 109.731 80.1721 107.344C78.4407 109.201 56.1459 113.153 55.6316 110.96C55.5263 108.745 76.5428 105.331 79.4325 106.194C78.1419 104.163 76.844 101.833 75.6661 99.5177C73.5625 101.058 51.133 101.576 50.9346 99.3362C51.1819 97.1508 72.0515 96.9546 74.9681 98.1785C73.7021 95.7675 72.4727 93.506 71.2825 91.3893C68.9708 92.8708 46.9331 93.376 46.698 91.1489C46.9502 88.993 67.3251 88.7771 70.4524 89.925C69.0026 87.3913 67.6141 85.0784 66.2917 82.9592C64.0926 84.4726 41.8369 84.9852 41.6239 82.7532C41.8761 80.5948 62.2755 80.3814 65.3905 81.5317C63.8942 79.1869 62.4885 77.107 61.1784 75.2601C59.5939 76.9426 36.2485 77.4749 36.1628 75.2159C36.4004 73.0158 57.554 72.8294 60.3457 74.0975C58.5384 71.6079 56.932 69.5942 55.5508 67.9779C53.8439 69.4986 30.4936 67.4579 30.6675 65.2013C31.1524 63.0969 51.2407 65.0885 54.2994 66.5504C49.9452 61.3751 47.6139 62.2801 41.0533 57.252C27.5916 47.7182 29.6487 44.8092 43.0712 54.4093C49.9869 59.327 50.8464 60.9581 54.7475 64.9144C52.8962 61.6669 48.2261 43.2542 50.1509 42.5551C52.2986 41.8267 58.2764 65.8268 56.6332 67.0311C57.9556 68.5763 59.4739 70.4797 61.1735 72.8C59.8804 69.5353 58.6854 49.754 60.7743 49.3836C63.0248 49.1064 64.3032 73.6731 62.4885 74.6297C63.7522 76.4227 65.104 78.4315 66.5366 80.6831C65.988 77.1045 68.7259 57.8578 70.8148 57.9265C73.0213 58.3778 69.6026 80.9774 67.7708 82.6502C69.0247 84.6737 70.3348 86.8714 71.6989 89.2628C71.4025 85.954 76.9052 66.2879 79.0431 66.6239C81.1982 67.3034 74.6253 89.746 72.5878 90.8374C73.7804 92.9615 75.0098 95.2303 76.2783 97.6487C76.6726 94.1609 84.9401 76.1504 86.9555 76.8077C88.8828 77.9434 79.4913 97.867 77.1917 99.4049C78.3648 101.701 79.6211 103.886 80.8847 105.856C80.4365 103.261 89.6836 82.8562 91.7823 83.6435C93.8859 84.4873 83.5001 106.616 81.4308 106.702C82.9246 108.961 84.4552 110.989 86.0005 112.814C85.7237 110.028 94.7798 90.0575 96.8834 90.8007C98.9013 91.8136 88.9636 112.905 86.7743 113.709C89.1081 116.356 91.4591 118.541 93.739 120.349C93.1096 117.766 100.667 96.7535 102.824 97.3618C104.916 98.2129 96.7046 120.018 94.5863 121.004C97.5127 123.221 100.302 124.815 102.756 125.963C102.269 122.929 107.935 102.542 110.11 102.898C112.162 103.749 106.113 124.428 104.086 126.557C111.489 129.704 117.04 129.542 117.106 129.539L117.163 130.945C116.915 130.955 111.141 131.141 103.317 127.759C102.775 130.094 83.9017 143.388 82.5475 141.582L82.5524 141.585Z" fill="#8A9EDD"/>
<path d="M303.422 300.417H247.403V352.823H303.422V300.417Z" fill="#255084"/>
<path d="M303.422 267.911H247.403V330.821H303.422V267.911Z" fill="#1D3F70"/>
<path d="M459.255 92.1644V305.887C459.255 314.655 452.148 321.773 443.393 321.773H107.431C98.6758 321.773 91.5691 314.655 91.5691 305.887V92.1644C91.5691 83.3958 98.6758 76.278 107.431 76.278L443.393 76.278C452.148 76.278 459.255 83.3958 459.255 92.1644Z" fill="#255084"/>
<path d="M444.858 90.6976H105.966V290.211H444.858V90.6976Z" fill="white"/>
<path d="M281.359 312.156C284.644 308.866 284.644 303.531 281.359 300.241C278.074 296.951 272.747 296.951 269.462 300.241C266.177 303.531 266.177 308.866 269.462 312.156C272.747 315.446 278.074 315.446 281.359 312.156Z" fill="#1D3F70"/>
<path d="M330.088 352.823H220.737C216.981 352.823 213.936 355.872 213.936 359.634C213.936 363.396 216.981 366.445 220.737 366.445H330.088C333.843 366.445 336.888 363.396 336.888 359.634C336.888 355.872 333.843 352.823 330.088 352.823Z" fill="#1D3F70"/>
<path d="M387.473 102.145H324.681V139.753H387.473V102.145Z" fill="#B0C7F5"/>
<path d="M387.473 240.926H324.681V278.534H387.473V240.926Z" fill="#B0C7F5"/>
<path d="M387.473 194.667H324.681V232.275H387.473V194.667Z" fill="#B0C7F5"/>
<path d="M387.473 148.406H324.681V186.014H387.473V148.406Z" fill="#B0C7F5"/>
<path d="M363.785 128.666C368.041 124.403 368.041 117.49 363.785 113.227C359.528 108.964 352.626 108.964 348.37 113.227C344.113 117.49 344.113 124.403 348.37 128.666C352.626 132.93 359.528 132.93 363.785 128.666Z" fill="white"/>
<path d="M356.078 132.954C349.469 132.954 344.093 127.567 344.093 120.95C344.093 114.332 349.471 108.946 356.078 108.946C362.685 108.946 368.063 114.332 368.063 120.95C368.063 127.567 362.685 132.954 356.078 132.954ZM356.078 111.117C350.666 111.117 346.263 115.527 346.263 120.947C346.263 126.368 350.666 130.778 356.078 130.778C361.49 130.778 365.893 126.368 365.893 120.947C365.893 115.527 361.49 111.117 356.078 111.117Z" fill="#677CC1"/>
<path d="M362.497 120.947L352.265 115.031V126.863L362.497 120.947Z" fill="#677CC1"/>
<path d="M366.672 170.207C368.055 164.338 364.426 158.459 358.567 157.074C352.709 155.689 346.838 159.323 345.455 165.191C344.072 171.059 347.701 176.939 353.56 178.324C359.419 179.709 365.289 176.075 366.672 170.207Z" fill="white"/>
<path d="M356.078 179.715C349.469 179.715 344.093 174.329 344.093 167.711C344.093 161.094 349.471 155.708 356.078 155.708C362.685 155.708 368.063 161.094 368.063 167.711C368.063 174.329 362.685 179.715 356.078 179.715ZM356.078 157.878C350.666 157.878 346.263 162.288 346.263 167.709C346.263 173.13 350.666 177.54 356.078 177.54C361.49 177.54 365.893 173.13 365.893 167.709C365.893 162.288 361.49 157.878 356.078 157.878Z" fill="#677CC1"/>
<path d="M362.497 167.709L352.265 161.793V173.627L362.497 167.709Z" fill="#677CC1"/>
<path d="M366.672 215.964C368.055 210.096 364.426 204.216 358.567 202.831C352.709 201.446 346.838 205.081 345.455 210.949C344.072 216.817 347.701 222.697 353.56 224.082C359.419 225.467 365.289 221.832 366.672 215.964Z" fill="white"/>
<path d="M356.078 225.474C349.469 225.474 344.093 220.087 344.093 213.47C344.093 206.852 349.471 201.466 356.078 201.466C362.685 201.466 368.063 206.852 368.063 213.47C368.063 220.087 362.685 225.474 356.078 225.474ZM356.078 203.637C350.666 203.637 346.263 208.047 346.263 213.467C346.263 218.888 350.666 223.298 356.078 223.298C361.49 223.298 365.893 218.888 365.893 213.467C365.893 208.047 361.49 203.637 356.078 203.637Z" fill="#677CC1"/>
<path d="M362.497 213.47L352.265 207.554V219.386L362.497 213.47Z" fill="#677CC1"/>
<path d="M356.078 270.648C362.098 270.648 366.978 265.76 366.978 259.731C366.978 253.702 362.098 248.814 356.078 248.814C350.058 248.814 345.178 253.702 345.178 259.731C345.178 265.76 350.058 270.648 356.078 270.648Z" fill="white"/>
<path d="M356.078 271.735C349.469 271.735 344.093 266.349 344.093 259.731C344.093 253.114 349.471 247.727 356.078 247.727C362.685 247.727 368.063 253.114 368.063 259.731C368.063 266.349 362.685 271.735 356.078 271.735ZM356.078 249.898C350.666 249.898 346.263 254.308 346.263 259.729C346.263 265.149 350.666 269.559 356.078 269.559C361.49 269.559 365.893 265.149 365.893 259.729C365.893 254.308 361.49 249.898 356.078 249.898Z" fill="#677CC1"/>
<path d="M362.497 259.731L352.265 253.813V265.647L362.497 259.731Z" fill="#677CC1"/>
<path d="M409.92 110.145H394.318C393.689 110.145 393.177 109.633 393.177 109.002C393.177 108.372 393.689 107.859 394.318 107.859H409.92C410.549 107.859 411.061 108.372 411.061 109.002C411.061 109.633 410.549 110.145 409.92 110.145Z" fill="#BFD2F9"/>
<path d="M418.253 128.065H407.476C406.846 128.065 406.334 127.553 406.334 126.922C406.334 126.292 406.846 125.779 407.476 125.779H418.253C418.883 125.779 419.394 126.292 419.394 126.922C419.394 127.553 418.883 128.065 418.253 128.065Z" fill="#BFD2F9"/>
<path d="M402.928 128.065H394.32C393.691 128.065 393.179 127.553 393.179 126.922C393.179 126.292 393.691 125.779 394.32 125.779H402.928C403.558 125.779 404.069 126.292 404.069 126.922C404.069 127.553 403.558 128.065 402.928 128.065Z" fill="#BFD2F9"/>
<path d="M419.826 122.09H394.32C393.691 122.09 393.179 121.578 393.179 120.947C393.179 120.317 393.691 119.804 394.32 119.804H419.826C420.455 119.804 420.967 120.317 420.967 120.947C420.967 121.578 420.455 122.09 419.826 122.09Z" fill="#BFD2F9"/>
<path d="M438.011 110.145H415.047C414.418 110.145 413.906 109.633 413.906 109.002C413.906 108.372 414.418 107.859 415.047 107.859H438.011C438.64 107.859 439.152 108.372 439.152 109.002C439.152 109.633 438.64 110.145 438.011 110.145Z" fill="#BFD2F9"/>
<path d="M438.011 134.038H394.32C393.691 134.038 393.179 133.525 393.179 132.895C393.179 132.264 393.691 131.752 394.32 131.752H438.011C438.641 131.752 439.152 132.264 439.152 132.895C439.152 133.525 438.641 134.038 438.011 134.038Z" fill="#BFD2F9"/>
<path d="M438.011 128.065H423.932C423.303 128.065 422.791 127.553 422.791 126.922C422.791 126.292 423.303 125.779 423.932 125.779H438.011C438.64 125.779 439.152 126.292 439.152 126.922C439.152 127.553 438.64 128.065 438.011 128.065Z" fill="#BFD2F9"/>
<path d="M438.011 122.09H425.186C424.557 122.09 424.045 121.578 424.045 120.947C424.045 120.317 424.557 119.804 425.186 119.804H438.011C438.64 119.804 439.152 120.317 439.152 120.947C439.152 121.578 438.64 122.09 438.011 122.09Z" fill="#BFD2F9"/>
<path d="M438.011 116.118H394.32C393.691 116.118 393.179 115.605 393.179 114.975C393.179 114.345 393.691 113.832 394.32 113.832H438.011C438.641 113.832 439.152 114.345 439.152 114.975C439.152 115.605 438.641 116.118 438.011 116.118Z" fill="#BFD2F9"/>
<path d="M438.011 180.299H422.409C421.78 180.299 421.268 179.786 421.268 179.156C421.268 178.526 421.78 178.013 422.409 178.013H438.011C438.641 178.013 439.152 178.526 439.152 179.156C439.152 179.786 438.641 180.299 438.011 180.299Z" fill="#BFD2F9"/>
<path d="M424.858 162.379H414.08C413.451 162.379 412.939 161.867 412.939 161.236C412.939 160.606 413.451 160.093 414.08 160.093H424.858C425.487 160.093 425.999 160.606 425.999 161.236C425.999 161.867 425.487 162.379 424.858 162.379Z" fill="#BFD2F9"/>
<path d="M438.011 162.379H429.4C428.771 162.379 428.259 161.867 428.259 161.236C428.259 160.606 428.771 160.093 429.4 160.093H438.011C438.64 160.093 439.152 160.606 439.152 161.236C439.152 161.867 438.64 162.379 438.011 162.379Z" fill="#BFD2F9"/>
<path d="M438.011 168.352H412.506C411.877 168.352 411.365 167.839 411.365 167.209C411.365 166.578 411.877 166.066 412.506 166.066H438.011C438.641 166.066 439.152 166.578 439.152 167.209C439.152 167.839 438.641 168.352 438.011 168.352Z" fill="#BFD2F9"/>
<path d="M417.284 180.299H394.32C393.691 180.299 393.179 179.786 393.179 179.156C393.179 178.526 393.691 178.013 394.32 178.013H417.284C417.913 178.013 418.425 178.526 418.425 179.156C418.425 179.786 417.913 180.299 417.284 180.299Z" fill="#BFD2F9"/>
<path d="M438.011 156.404H394.32C393.691 156.404 393.179 155.892 393.179 155.261C393.179 154.631 393.691 154.118 394.32 154.118H438.011C438.641 154.118 439.152 154.631 439.152 155.261C439.152 155.892 438.641 156.404 438.011 156.404Z" fill="#BFD2F9"/>
<path d="M408.397 162.379H394.318C393.689 162.379 393.177 161.867 393.177 161.236C393.177 160.606 393.689 160.093 394.318 160.093H408.397C409.026 160.093 409.538 160.606 409.538 161.236C409.538 161.867 409.026 162.379 408.397 162.379Z" fill="#BFD2F9"/>
<path d="M407.145 168.352H394.32C393.691 168.352 393.179 167.839 393.179 167.209C393.179 166.578 393.691 166.066 394.32 166.066H407.145C407.775 166.066 408.286 166.578 408.286 167.209C408.286 167.839 407.775 168.352 407.145 168.352Z" fill="#BFD2F9"/>
<path d="M438.011 174.324H394.32C393.691 174.324 393.179 173.811 393.179 173.181C393.179 172.551 393.691 172.038 394.32 172.038H438.011C438.641 172.038 439.152 172.551 439.152 173.181C439.152 173.811 438.641 174.324 438.011 174.324Z" fill="#BFD2F9"/>
<path d="M438.011 202.665H422.409C421.78 202.665 421.268 202.153 421.268 201.523C421.268 200.892 421.78 200.38 422.409 200.38H438.011C438.641 200.38 439.152 200.892 439.152 201.523C439.152 202.153 438.641 202.665 438.011 202.665Z" fill="#BFD2F9"/>
<path d="M424.858 220.585H414.08C413.451 220.585 412.939 220.073 412.939 219.442C412.939 218.812 413.451 218.299 414.08 218.299H424.858C425.487 218.299 425.999 218.812 425.999 219.442C425.999 220.073 425.487 220.585 424.858 220.585Z" fill="#BFD2F9"/>
<path d="M438.011 220.585H429.4C428.771 220.585 428.259 220.073 428.259 219.442C428.259 218.812 428.771 218.299 429.4 218.299H438.011C438.64 218.299 439.152 218.812 439.152 219.442C439.152 220.073 438.64 220.585 438.011 220.585Z" fill="#BFD2F9"/>
<path d="M438.011 214.613H412.506C411.877 214.613 411.365 214.1 411.365 213.47C411.365 212.839 411.877 212.327 412.506 212.327H438.011C438.641 212.327 439.152 212.839 439.152 213.47C439.152 214.1 438.641 214.613 438.011 214.613Z" fill="#BFD2F9"/>
<path d="M417.284 202.665H394.32C393.691 202.665 393.179 202.153 393.179 201.523C393.179 200.892 393.691 200.38 394.32 200.38H417.284C417.913 200.38 418.425 200.892 418.425 201.523C418.425 202.153 417.913 202.665 417.284 202.665Z" fill="#BFD2F9"/>
<path d="M438.011 226.558H394.32C393.691 226.558 393.179 226.045 393.179 225.415C393.179 224.784 393.691 224.272 394.32 224.272H438.011C438.641 224.272 439.152 224.784 439.152 225.415C439.152 226.045 438.641 226.558 438.011 226.558Z" fill="#BFD2F9"/>
<path d="M408.397 220.585H394.318C393.689 220.585 393.177 220.073 393.177 219.442C393.177 218.812 393.689 218.299 394.318 218.299H408.397C409.026 218.299 409.538 218.812 409.538 219.442C409.538 220.073 409.026 220.585 408.397 220.585Z" fill="#BFD2F9"/>
<path d="M407.145 214.613H394.32C393.691 214.613 393.179 214.1 393.179 213.47C393.179 212.839 393.691 212.327 394.32 212.327H407.145C407.775 212.327 408.286 212.839 408.286 213.47C408.286 214.1 407.775 214.613 407.145 214.613Z" fill="#BFD2F9"/>
<path d="M438.011 208.638H394.32C393.691 208.638 393.179 208.125 393.179 207.495C393.179 206.865 393.691 206.352 394.32 206.352H438.011C438.641 206.352 439.152 206.865 439.152 207.495C439.152 208.125 438.641 208.638 438.011 208.638Z" fill="#BFD2F9"/>
<path d="M409.92 272.819H394.318C393.689 272.819 393.177 272.306 393.177 271.676C393.177 271.046 393.689 270.533 394.318 270.533H409.92C410.549 270.533 411.061 271.046 411.061 271.676C411.061 272.306 410.549 272.819 409.92 272.819Z" fill="#BFD2F9"/>
<path d="M418.253 254.899H407.476C406.846 254.899 406.334 254.387 406.334 253.756C406.334 253.126 406.846 252.613 407.476 252.613H418.253C418.883 252.613 419.394 253.126 419.394 253.756C419.394 254.387 418.883 254.899 418.253 254.899Z" fill="#BFD2F9"/>
<path d="M402.928 254.899H394.32C393.691 254.899 393.179 254.387 393.179 253.756C393.179 253.126 393.691 252.613 394.32 252.613H402.928C403.558 252.613 404.069 253.126 404.069 253.756C404.069 254.387 403.558 254.899 402.928 254.899Z" fill="#BFD2F9"/>
<path d="M419.826 260.872H394.32C393.691 260.872 393.179 260.359 393.179 259.729C393.179 259.098 393.691 258.586 394.32 258.586H419.826C420.455 258.586 420.967 259.098 420.967 259.729C420.967 260.359 420.455 260.872 419.826 260.872Z" fill="#BFD2F9"/>
<path d="M438.011 272.819H415.047C414.418 272.819 413.906 272.306 413.906 271.676C413.906 271.046 414.418 270.533 415.047 270.533H438.011C438.64 270.533 439.152 271.046 439.152 271.676C439.152 272.306 438.64 272.819 438.011 272.819Z" fill="#BFD2F9"/>
<path d="M438.011 248.927H394.32C393.691 248.927 393.179 248.414 393.179 247.784C393.179 247.153 393.691 246.641 394.32 246.641H438.011C438.641 246.641 439.152 247.153 439.152 247.784C439.152 248.414 438.641 248.927 438.011 248.927Z" fill="#BFD2F9"/>
<path d="M438.011 254.899H423.932C423.303 254.899 422.791 254.387 422.791 253.756C422.791 253.126 423.303 252.613 423.932 252.613H438.011C438.64 252.613 439.152 253.126 439.152 253.756C439.152 254.387 438.64 254.899 438.011 254.899Z" fill="#BFD2F9"/>
<path d="M438.011 260.872H425.186C424.557 260.872 424.045 260.359 424.045 259.729C424.045 259.098 424.557 258.586 425.186 258.586H438.011C438.64 258.586 439.152 259.098 439.152 259.729C439.152 260.359 438.64 260.872 438.011 260.872Z" fill="#BFD2F9"/>
<path d="M438.011 266.846H394.32C393.691 266.846 393.179 266.334 393.179 265.704C393.179 265.073 393.691 264.561 394.32 264.561H438.011C438.641 264.561 439.152 265.073 439.152 265.704C439.152 266.334 438.641 266.846 438.011 266.846Z" fill="#BFD2F9"/>
<path d="M138.707 281.544C145.282 277.576 147.401 269.021 143.439 262.435C139.477 255.849 130.935 253.727 124.359 257.695C117.784 261.663 115.665 270.219 119.627 276.805C123.589 283.391 132.131 285.513 138.707 281.544Z" fill="#72D3C7"/>
<path d="M277.36 260.67H306.414C310.835 260.67 314.422 264.264 314.422 268.691C314.422 273.118 310.835 276.711 306.414 276.711H277.36C272.94 276.711 269.353 273.118 269.353 268.691C269.353 264.264 272.94 260.67 277.36 260.67Z" fill="#72D3C7"/>
<path d="M256.072 261.423H220.308C219.679 261.423 219.167 260.911 219.167 260.281C219.167 259.65 219.679 259.138 220.308 259.138H256.072C256.701 259.138 257.213 259.65 257.213 260.281C257.213 260.911 256.701 261.423 256.072 261.423Z" fill="#BFD2F9"/>
<path d="M212.619 261.423H159.113C158.483 261.423 157.972 260.911 157.972 260.281C157.972 259.65 158.483 259.138 159.113 259.138H212.619C213.248 259.138 213.76 259.65 213.76 260.281C213.76 260.911 213.248 261.423 212.619 261.423Z" fill="#BFD2F9"/>
<path d="M256.072 280.126H203.261C202.632 280.126 202.12 279.613 202.12 278.983C202.12 278.352 202.632 277.84 203.261 277.84H256.072C256.701 277.84 257.213 278.352 257.213 278.983C257.213 279.613 256.701 280.126 256.072 280.126Z" fill="#BFD2F9"/>
<path d="M193.113 280.126H159.11C158.481 280.126 157.969 279.613 157.969 278.983C157.969 278.352 158.481 277.84 159.11 277.84H193.113C193.742 277.84 194.254 278.352 194.254 278.983C194.254 279.613 193.742 280.126 193.113 280.126Z" fill="#BFD2F9"/>
<path d="M247.403 270.773H159.113C158.483 270.773 157.972 270.261 157.972 269.63C157.972 269 158.483 268.487 159.113 268.487H247.403C248.033 268.487 248.544 269 248.544 269.63C248.544 270.261 248.033 270.773 247.403 270.773Z" fill="#BFD2F9"/>
<path d="M277.806 264.651C279.347 263.148 281.409 263.832 282.604 265.387C283.865 263.825 285.819 263.17 287.406 264.691C288.907 266.231 288.224 268.299 286.674 269.495L282.572 273.572L278.502 269.464C276.937 268.186 276.288 266.258 277.806 264.651Z" fill="white"/>
<path d="M314.419 102.145H117.628V244.188H314.419V102.145Z" fill="#B0C7F5"/>
<path d="M314.419 232.268H117.628V248.838H314.419V232.268Z" fill="#255084"/>
<path d="M303.01 241.696H249.227C248.598 241.696 248.086 241.183 248.086 240.553C248.086 239.923 248.598 239.41 249.227 239.41H303.01C303.639 239.41 304.151 239.923 304.151 240.553C304.151 241.183 303.639 241.696 303.01 241.696Z" fill="#BFD2F9"/>
<path d="M249.227 241.696H135.884C135.255 241.696 134.743 241.183 134.743 240.553C134.743 239.923 135.255 239.41 135.884 239.41H249.227C249.856 239.41 250.368 239.923 250.368 240.553C250.368 241.183 249.856 241.696 249.227 241.696Z" fill="#EB5648"/>
<path d="M249.227 244.213C251.245 244.213 252.881 242.574 252.881 240.553C252.881 238.532 251.245 236.894 249.227 236.894C247.209 236.894 245.573 238.532 245.573 240.553C245.573 242.574 247.209 244.213 249.227 244.213Z" fill="#677CC1"/>
<path d="M124.473 245.412C123.843 245.412 123.332 244.899 123.332 244.269V236.84C123.332 236.209 123.843 235.697 124.473 235.697C125.102 235.697 125.614 236.209 125.614 236.84V244.269C125.614 244.899 125.102 245.412 124.473 245.412Z" fill="#BFD2F9"/>
<path d="M128.589 245.412C127.96 245.412 127.448 244.899 127.448 244.269V236.84C127.448 236.209 127.96 235.697 128.589 235.697C129.219 235.697 129.731 236.209 129.731 236.84V244.269C129.731 244.899 129.219 245.412 128.589 245.412Z" fill="#BFD2F9"/>
<path d="M198.535 162.252C220.215 188.15 257.71 189.107 282.324 138.516C282.324 138.516 276.611 139.024 273.78 136.586C270.775 133.998 270.008 130.018 270.008 130.018C222.127 164.422 226.007 127.805 190.387 116.358C190.387 116.358 198.087 161.504 198.535 162.249V162.252Z" fill="#42B297"/>
<path d="M218.768 232.268H134.672C135.385 228.275 136.129 224.23 136.95 220.198C138.742 211.392 140.922 202.648 144.003 194.677C146.356 188.592 149.236 182.955 152.873 178.082C171.763 187.704 196.906 192.698 216.965 194.478C217.073 194.49 217.178 194.498 217.284 194.505C217.313 194.51 217.342 194.513 217.372 194.515C217.413 195.533 217.455 196.553 217.492 197.578C217.543 198.851 217.595 200.129 217.644 201.41C217.712 203.156 217.781 204.907 217.847 206.659C218.028 211.348 218.202 216.057 218.369 220.75C218.506 224.608 218.638 228.456 218.763 232.27L218.768 232.268Z" fill="#9358E0"/>
<path d="M187.035 115.519C187.642 107.173 189.704 92.0466 183.156 89.1279C178.564 87.254 172.816 90.9527 173.977 96.3071C174.416 96.0618 174.979 111.188 173.82 115.316C161.282 118.372 197.761 132.529 187.032 115.519H187.035Z" fill="#F99370"/>
<path d="M173.887 95.6154C173.906 95.846 173.936 96.0814 173.977 96.3071C174.293 96.1207 174.712 104.47 174.401 110.499C179.921 113.373 186.286 112.574 187.451 112.397C187.385 103.589 189.484 92.4465 183.153 89.1279C178.838 87.0038 173.365 90.7541 173.887 95.6154Z" fill="#E57D61"/>
<path d="M162.685 232.268H161.449C161.995 229.788 162.409 228.26 162.668 227.826C162.715 227.742 162.756 227.701 162.793 227.696C162.823 227.72 162.847 227.772 162.869 227.848C162.992 228.331 162.923 229.844 162.685 232.265V232.268Z" fill="#7640CC"/>
<path d="M137.07 220.345C156.646 231.927 199.786 230.57 217.029 221.983C222.799 218.716 221.305 198.165 218.3 178.158C214.157 151.504 205.424 132.895 191.036 116.42C190.877 116.375 188.414 115.6 187.042 115.527C187.383 117.965 187.632 125.1 173.826 115.316C173.777 115.37 170.035 115.299 168.942 115.927C167.848 116.976 155.3 127.369 155.118 128.845C154.589 133.26 151.227 144.415 147.639 157.383C143.511 172.538 139.276 188.069 138.282 201.932C137.934 207.689 132.89 215.437 137.072 220.345H137.07Z" fill="#72D3C7"/>
<path d="M169.136 115.99C174.065 122.559 193.522 131.438 191.044 116.424C190.882 116.371 188.426 115.603 187.045 115.527C187.118 115.919 189.023 126.223 173.825 115.316C173.852 115.419 170.088 115.176 169.138 115.993L169.136 115.99Z" fill="#274FC1"/>
<path d="M159.524 118.718C161.003 115.794 167.032 113.923 169.136 115.993C178.978 125.676 188.085 137.04 190.694 140.537C191.215 140.052 192.415 140.241 192.662 139.596C196.086 130.704 191.039 116.42 191.039 116.42C196.742 115.044 201.589 119.834 204.238 123.005C208.184 123.079 212.628 127.329 210.659 133.726C209.112 138.754 206.416 143.652 201.968 146.745C206.837 154.194 213.231 166.188 208.825 169.446C207.001 171.871 201.79 173.713 200.639 167.736C199.686 162.791 198.136 155.281 196.737 150.704C196.255 150.856 195.694 150.92 195.04 150.856C195.045 150.856 197.144 167.579 201.638 177.495C206.129 187.409 192.966 187.62 188.179 184.935C184.422 182.828 183.736 161.234 186.614 149.004C183.437 147.91 131.215 126.238 159.526 118.718H159.524Z" fill="#1D3F70"/>
<path d="M197.771 85.0195C197.771 85.0195 197.915 78.0464 195.927 73.1605L191.879 74.9633L197.771 85.0195Z" fill="#8C4225"/>
<path d="M202.201 94.9139C201.87 105.917 188.563 112.62 179.088 109.645C165.683 106.302 162.641 86.5746 168.335 75.8438C172.028 68.1912 183.112 64.3208 189.733 70.4208C193.066 73.3935 194.477 77.8501 196.093 82.1253C198.055 86.2778 202.845 89.7729 202.201 94.9114V94.9139Z" fill="#F99370"/>
<path d="M188.247 86.8934C188.487 86.4642 188.333 85.9197 187.904 85.6793C187.475 85.4389 186.932 85.5935 186.692 86.0227C186.452 86.4519 186.606 86.9964 187.035 87.2368C187.463 87.4772 188.007 87.3227 188.247 86.8934Z" fill="#C16256"/>
<path d="M195.775 85.9246C196.015 85.4954 195.861 84.9508 195.432 84.7105C195.004 84.4701 194.46 84.6246 194.22 85.0539C193.98 85.4831 194.134 86.0276 194.563 86.268C194.992 86.5083 195.535 86.3538 195.775 85.9246Z" fill="#C16256"/>
<path d="M193.757 93.4668C193.057 93.6164 192.278 93.609 191.663 93.3858C191.49 93.3221 191.399 93.1283 191.463 92.9542C191.526 92.7776 191.72 92.6893 191.894 92.753C193.008 93.1577 194.627 92.6549 194.867 92.1521C194.95 91.9755 194.715 91.7866 194.504 91.6616C192.636 90.5529 191.494 86.8861 191.448 86.7291C191.394 86.55 191.492 86.3612 191.671 86.3072C191.845 86.2483 192.038 86.3514 192.092 86.5304C192.102 86.5672 193.204 90.1041 194.847 91.0803C195.743 91.6125 195.587 92.2085 195.476 92.4391C195.246 92.9247 194.553 93.2975 193.757 93.4668Z" fill="#C16256"/>
<path d="M194.546 77.9752C187.581 74.8701 182.296 77.313 176.527 76.9402C176.527 76.9402 177.161 84.3377 169.55 89.302C169.55 89.302 163.452 84.7056 168.335 75.8438C174.631 64.051 190.468 64.6887 194.546 77.9728V77.9752Z" fill="#E57D61"/>
<path d="M198.582 63.3495C196.02 57.772 187.919 54.4828 180.575 60.9802C174.92 65.9813 169.026 65.7164 168.94 71.2081C157.8 75.7776 162.781 88.0781 162.781 88.0781L168.293 87.6366C174.756 82.7875 174.847 75.3018 174.847 75.3018C180.869 75.4391 187.304 73.0501 193.6 75.834C198.094 77.6883 201.447 69.5844 198.582 63.3495Z" fill="#8C4225"/>
<path d="M161.833 92.4832C162.32 95.3309 164.571 97.3225 166.858 96.9301C169.145 96.5376 170.607 93.9107 170.12 91.0607C169.633 88.213 167.382 86.2214 165.095 86.6138C162.808 87.0063 161.346 89.6331 161.833 92.4832Z" fill="#F99370"/>
<path d="M167.363 88.9439C167.275 88.9071 165.222 88.0266 164.015 89.0617C163.707 89.3266 163.493 89.692 163.364 90.1458C163.364 90.1482 163.364 90.1531 163.359 90.158C163.349 90.1973 163.334 90.2292 163.324 90.2709C163.324 90.2709 163.324 90.2733 163.324 90.2758C163.324 90.2758 163.324 90.2758 163.324 90.2782C163.124 91.122 163.212 92.265 163.587 93.6974C163.633 93.8715 163.807 93.9794 163.983 93.9426C163.988 93.9426 163.993 93.9426 163.998 93.9377C164.177 93.8911 164.284 93.7047 164.238 93.5257C163.929 92.3532 163.831 91.4065 163.932 90.7025C165.864 91.1195 166.748 93.3589 166.758 93.3834C166.817 93.5404 166.983 93.6262 167.142 93.5919C167.159 93.587 167.177 93.5845 167.194 93.5772C167.368 93.5109 167.456 93.3172 167.39 93.143C167.348 93.0327 166.381 90.5578 164.118 90.0477C164.206 89.8588 164.314 89.6969 164.453 89.5767C165.342 88.8164 167.079 89.5547 167.096 89.562C167.265 89.6356 167.463 89.5596 167.539 89.3879C167.613 89.2186 167.537 89.0175 167.365 88.9439H167.363Z" fill="#C16256"/>
<path d="M192.807 95.5933C191.678 94.6907 190.184 94.6784 189.476 95.5688C189.124 96.0103 189.018 96.5965 189.18 97.2268C189.332 97.8229 189.706 98.3845 190.24 98.8113C190.779 99.2381 191.408 99.4834 192.023 99.4981C192.209 99.503 192.388 99.4858 192.554 99.4515C192.971 99.3632 193.319 99.1522 193.573 98.8358C193.823 98.5219 193.938 98.1442 193.938 97.7395C193.938 96.9938 193.537 96.1771 192.807 95.5933ZM193.091 98.4532C192.863 98.7402 192.491 98.8947 192.04 98.8824C191.56 98.8677 191.058 98.674 190.627 98.3281C190.196 97.9847 189.895 97.5408 189.773 97.0723C189.662 96.6382 189.728 96.2384 189.956 95.949C190.12 95.7405 190.358 95.608 190.627 95.5516C191.164 95.4339 191.847 95.6154 192.42 96.0716C193.282 96.7633 193.583 97.8302 193.086 98.4508L193.091 98.4532Z" fill="#C16256"/>
<path d="M183.932 84.7644C183.846 84.7644 183.758 84.7326 183.692 84.6663C183.555 84.5339 183.553 84.3156 183.685 84.1782C183.763 84.0973 185.629 82.1989 189.075 81.8776C189.263 81.8604 189.432 82.0002 189.449 82.1891C189.467 82.3779 189.327 82.5472 189.138 82.5643C185.96 82.8611 184.199 84.6393 184.182 84.659C184.113 84.7276 184.025 84.7644 183.935 84.7644H183.932Z" fill="#C16256"/>
<path d="M195.888 82.8807C195.826 82.8807 195.763 82.8636 195.706 82.8292C194.318 81.9634 192.175 82.2087 192.153 82.2111C191.964 82.2357 191.793 82.0983 191.768 81.9095C191.746 81.7206 191.881 81.5464 192.07 81.5244C192.168 81.5121 194.472 81.2472 196.071 82.2406C196.233 82.3411 196.282 82.5545 196.181 82.7164C196.115 82.8219 196.003 82.8807 195.888 82.8807Z" fill="#C16256"/>
<path d="M270.009 130.02C270.009 130.02 276.729 116.142 283.904 114.69C283.904 114.69 303.209 129.61 282.322 138.519C282.322 138.519 272.384 141.433 270.006 130.02H270.009Z" fill="#F99370"/>
<path d="M293.07 131.376V107.948C293.07 106.761 292.11 105.799 290.922 105.799H279.016C278.781 105.799 278.551 105.841 278.335 105.91C277.85 106.057 277.515 106.324 277.287 106.677C277.025 107.03 276.871 107.472 276.871 107.948V108.09C276.858 108.208 276.854 108.33 276.849 108.453C276.836 108.801 276.849 109.152 276.871 109.498V133.822C276.871 134.143 276.939 134.447 277.067 134.722C277.407 135.458 278.151 135.968 279.013 135.968H290.92C290.998 135.968 291.072 135.968 291.148 135.956C291.816 135.897 292.262 135.617 292.558 135.208C292.877 134.832 293.068 134.349 293.068 133.819V133.574C293.134 132.855 293.092 132.073 293.068 131.374L293.07 131.376Z" fill="#163356"/>
<path d="M289.953 105.802H278.046C277.833 105.802 277.63 105.834 277.436 105.892C277.409 105.9 277.382 105.907 277.356 105.914C276.937 106.057 276.572 106.329 276.312 106.682C276.312 106.682 276.307 106.69 276.305 106.692C276.05 107.045 275.898 107.479 275.898 107.95V133.824C275.898 134.146 275.969 134.45 276.094 134.724C276.437 135.46 277.182 135.97 278.044 135.97H289.95C291.136 135.97 292.093 135.011 292.093 133.824V107.95C292.093 106.763 291.136 105.802 289.95 105.802H289.953ZM291.177 132.272H276.822V109.5H291.177V132.272Z" fill="#1D3F70"/>
<path d="M282.131 107.783C282.131 108.154 281.567 108.154 281.567 107.783C281.567 107.413 282.131 107.413 282.131 107.783Z" fill="#306599"/>
<path d="M286.325 107.967H282.836C282.777 107.967 282.731 107.921 282.731 107.862C282.735 107.776 282.699 107.597 282.836 107.6H286.325C286.46 107.597 286.428 107.776 286.431 107.862C286.431 107.921 286.384 107.967 286.325 107.967Z" fill="#255084"/>
<path d="M289.953 105.802C277.348 105.802 275.901 109.5 275.901 109.5C275.803 107.796 275.881 105.914 278.046 105.802H289.953Z" fill="#255084"/>
<path d="M291.177 109.5H276.821V132.272H291.177V109.5Z" fill="#647DBC"/>
<path d="M292.037 127.827C292.211 127.788 292.25 127.776 292.338 127.749C292.414 127.727 292.485 127.702 292.553 127.675C292.691 127.624 292.823 127.567 292.953 127.506C293.21 127.381 293.457 127.226 293.682 127.04C293.91 126.856 294.116 126.64 294.28 126.402C294.451 126.167 294.566 125.914 294.655 125.662C294.917 124.916 294.417 124.143 293.54 123.935C292.923 123.788 292.282 123.959 291.865 124.335L291.233 124.906C291.221 124.918 291.246 124.891 291.241 124.896C291.241 124.896 291.231 124.906 291.211 124.916L291.184 124.928H291.18L291.253 124.911C290.298 125.107 289.698 125.919 289.913 126.724C290.131 127.528 291.082 128.021 292.037 127.825V127.827Z" fill="#F99370"/>
<path d="M292.262 124.882C292.397 124.825 292.436 124.806 292.509 124.769L292.695 124.671C292.815 124.604 292.931 124.533 293.043 124.46C293.268 124.31 293.486 124.138 293.692 123.935C293.898 123.734 294.089 123.491 294.243 123.221C294.4 122.951 294.505 122.64 294.557 122.326C294.679 121.502 293.988 120.761 293.016 120.67C292.044 120.579 291.155 121.173 291.033 121.997C291.033 121.958 291.062 121.948 291.003 122.009C290.974 122.036 290.932 122.073 290.876 122.112C290.849 122.132 290.817 122.149 290.788 122.166L290.746 122.188C290.746 122.188 290.704 122.208 290.758 122.184C289.869 122.547 289.487 123.444 289.901 124.19C290.315 124.936 291.373 125.245 292.262 124.882Z" fill="#F99370"/>
<path d="M292.595 121.803L293.895 120.751C294.608 120.175 294.642 119.223 293.971 118.63C293.298 118.036 292.176 118.021 291.461 118.6L290.161 119.652C289.448 120.229 289.414 121.18 290.085 121.774C290.758 122.368 291.88 122.382 292.595 121.803Z" fill="#F99370"/>
<path d="M292.465 119.086L293.765 118.033C294.478 117.457 294.512 116.505 293.841 115.912C293.17 115.318 292.046 115.304 291.331 115.882L290.031 116.935C289.318 117.511 289.284 118.463 289.955 119.056C290.626 119.65 291.75 119.665 292.465 119.086Z" fill="#F99370"/>
<path d="M271.079 130.962C271.98 131.999 275.247 132.066 275.247 130.66C275.247 126.14 277.279 122.522 278.391 121.05C279.579 119.525 277.546 117.744 276.013 119.245C276.013 119.245 269.636 124.46 271.079 130.962Z" fill="#F99370"/>
<path d="M151.141 125.257C151.141 125.257 126.258 152.279 139.262 185.653C151.56 217.215 194.602 225.611 220.955 204.343C220.955 204.343 214.957 196.688 218.143 192.438C218.143 192.438 196.892 195.231 183.589 184.081C172.258 174.584 174.869 157.277 176.169 144.447C176.169 144.447 154.085 134.685 151.141 125.257Z" fill="#42B297"/>
<path d="M228.054 186.571C228.054 186.571 233.41 182.999 233.99 184.616C234.683 186.544 228.894 189.698 228.894 189.698C230.902 189.484 233.353 188.449 235.67 187.409C237.911 186.404 240.117 185.423 242.26 184.079C247.785 184.28 235.925 191.228 234.749 192.31C234.764 192.337 234.762 192.335 234.779 192.364C238.513 191.501 242.201 190.414 245.767 189.001C251.436 190.539 236.843 194.974 235.325 195.665C235.33 195.68 235.33 195.678 235.335 195.692C238.993 195.521 242.627 194.871 246.134 193.811C251.737 195.884 236.554 199.173 234.867 199.34C234.864 199.354 234.86 199.369 234.857 199.384C237.764 199.695 240.71 199.617 243.624 199.374C248.659 202.072 235.007 202.928 233.471 202.886C232.526 203.333 224.907 204.328 220.955 204.343C217.056 204.358 215.192 194.93 218.143 192.438C218.143 192.438 221.969 190.458 228.057 186.571H228.054Z" fill="#F99370"/>
</g>
<defs>
<clipPath id="clip0_107_1285">
<rect width="555" height="395" fill="white"/>
</clipPath>
</defs>
</svg>
