<svg width="107" height="56" viewBox="0 0 107 56" fill="none" xmlns="http://www.w3.org/2000/svg">
<path d="M98.7406 46.692C98.9814 46.0043 99.2565 44.8007 99.2565 44.8007H99.2908C99.2908 44.8007 99.5487 46.0043 99.7724 46.692L100.356 48.4517C101.03 48.2726 101.691 48.1436 102.315 48.0514L100.426 42.6861H98.1047L95.1106 51.1892C95.9492 50.4174 96.8874 49.8202 97.8567 49.3589L98.741 46.6924L98.7406 46.692Z" fill="url(#paint0_linear_107_543)"/>
<path d="M98.5104 43.2589H100.02L101.548 47.5979C101.272 47.6491 101 47.7057 100.733 47.7674L100.316 46.5117C100.106 45.8637 99.854 44.6924 99.8512 44.6807C99.7946 44.4166 99.561 44.2276 99.2907 44.2276H99.2564C98.9892 44.2276 98.7574 44.4125 98.6977 44.6731C98.6949 44.6848 98.4267 45.8538 98.1996 46.5027L97.3884 48.949C97.006 49.1401 96.6386 49.3473 96.2881 49.5699L98.5104 43.2589Z" fill="url(#paint1_linear_107_543)"/>
<path d="M101.001 50.413L102.437 54.8937H104.724L102.851 49.5754C102.198 49.8062 101.581 50.0851 101.001 50.4127V50.413Z" fill="url(#paint2_linear_107_543)"/>
<path d="M102.856 54.3205L101.693 50.6925C101.955 50.5591 102.227 50.4346 102.506 50.3204L103.915 54.3205H102.855H102.856Z" fill="url(#paint3_linear_107_543)"/>
<path d="M106.636 48.3488C106.636 48.3488 96.0117 47.222 92.9971 55.1303H96.1633C96.1633 55.1303 98.2066 48.9634 106.636 48.3488ZM98.0883 51.9507C96.9461 53.1327 96.3269 54.281 96.046 54.9012H94.3996C95.6924 52.3914 97.9137 51.0201 100.125 50.2796C99.2816 50.8266 98.6103 51.4108 98.0886 51.9507H98.0883Z" fill="url(#paint4_linear_107_543)"/>
<path d="M100.124 50.2795C97.9136 51.0201 95.692 52.3914 94.3992 54.9012H96.0456C96.3269 54.2807 96.9456 53.1327 98.0878 51.9507C98.6099 51.4108 99.2808 50.8266 100.124 50.2795H100.124Z" fill="url(#paint5_linear_107_543)"/>
<path d="M100.124 50.2795C97.9136 51.0201 95.692 52.3914 94.3992 54.9012H96.0456C96.3269 54.2807 96.9456 53.1327 98.0878 51.9507C98.6099 51.4108 99.2808 50.8266 100.124 50.2795H100.124Z" fill="url(#paint6_linear_107_543)"/>
<path d="M71.6729 50.7096C71.8904 49.7496 70.9372 48.4633 69.1234 47.2683C69.0198 47.2 68.9495 47.0992 68.9179 46.987C67.9195 46.5483 67.1498 46.0835 67.1498 45.2572C67.1498 44.3236 68.0275 43.6702 69.1478 43.6702C70.8096 43.6702 72.0794 44.8278 72.0794 44.8278L73.1252 42.8672C73.1252 42.8672 71.7807 41.4482 69.1666 41.4482C66.5526 41.4482 64.7227 43.0912 64.7227 45.2946C64.7227 49.3651 70.9777 48.9545 70.9777 51.3257C70.9777 51.4039 70.9715 51.4783 70.9622 51.551C71.3409 51.3548 71.593 51.0636 71.6729 50.7096Z" fill="url(#paint7_linear_107_543)"/>
<path d="M70.9244 49.8721C70.3663 49.3579 69.5362 49.0002 68.7223 48.6493C67.0618 47.9334 65.3447 47.1935 65.3447 45.2943C65.3447 43.3951 66.9877 42.0704 69.1661 42.0704C70.7789 42.0704 71.8371 42.6553 72.3386 43.0182L71.868 43.9007C71.2708 43.5207 70.297 43.0477 69.1473 43.0477C67.6535 43.0477 66.5271 43.9974 66.5271 45.2573C66.5271 46.5171 67.6874 47.116 68.4585 47.4645C68.5419 47.5925 68.6513 47.7033 68.7809 47.7887C69.9568 48.5632 70.6397 49.3027 70.924 49.8724L70.9244 49.8721Z" fill="url(#paint8_linear_107_543)"/>
<path d="M69.3973 46.8523C73.4019 49.4903 72.5911 51.9606 70.2236 52.2872C68.3803 52.5413 65.8376 50.9522 65.8376 50.9522L63.7717 53.463C64.5665 54.5119 71.1137 56.8639 73.2116 53.3042C75.8527 48.8221 69.3977 46.8523 69.3977 46.8523H69.3973ZM72.9413 53.4232C72.3437 54.4371 71.2245 54.9513 69.6148 54.9513C67.7876 54.9513 66.0393 54.2985 65.211 53.8413L66.3888 52.4096C67.21 52.8449 68.7717 53.5597 70.177 53.5597C70.3571 53.5597 70.5327 53.5481 70.699 53.5251C72.0553 53.3381 73.0129 52.5743 73.2603 51.4821C73.2966 51.322 73.322 51.1323 73.3206 50.9165C73.6115 51.6763 73.4873 52.4964 72.9413 53.4232Z" fill="url(#paint9_linear_107_543)"/>
<path d="M73.3211 50.6726C73.3224 50.8884 73.2971 51.0784 73.2607 51.2383C73.0134 52.3304 72.0561 53.0939 70.6995 53.2812C70.5331 53.3042 70.3575 53.3158 70.1774 53.3158C68.7722 53.3158 67.2101 52.601 66.3893 52.1657L65.2114 53.5974C66.0398 54.0547 67.7881 54.7077 69.6153 54.7074C71.225 54.7074 72.3442 54.1932 72.9417 53.1793C73.4878 52.2525 73.6119 51.4327 73.3211 50.6726Z" fill="url(#paint10_linear_107_543)"/>
<path d="M73.3211 50.6726C73.3224 50.8884 73.2971 51.0784 73.2607 51.2383C73.0134 52.3304 72.0561 53.0939 70.6995 53.2812C70.5331 53.3042 70.3575 53.3158 70.1774 53.3158C68.7722 53.3158 67.2101 52.601 66.3893 52.1657L65.2114 53.5974C66.0398 54.0547 67.7881 54.7077 69.6153 54.7074C71.225 54.7074 72.3442 54.1932 72.9417 53.1793C73.4878 52.2525 73.6119 51.4327 73.3211 50.6726Z" fill="url(#paint11_linear_107_543)"/>
<path d="M42.1919 42.3712H39.8303V53.8475C40.447 53.4897 41.2298 53.1083 42.1919 52.765V42.3716V42.3712Z" fill="url(#paint12_linear_107_543)"/>
<path d="M40.4404 42.9814H41.5816V52.3403C41.1872 52.493 40.8061 52.6579 40.4404 52.8342V42.9814Z" fill="url(#paint13_linear_107_543)"/>
<path d="M38.3745 55.5227C44.3593 53.8393 48.4311 55.3691 48.4311 55.3691V52.1558C41.3219 52.3637 38.3745 55.5227 38.3745 55.5227ZM48.0651 54.8909C47.248 54.7023 45.9553 54.4882 44.2937 54.4882C43.7213 54.4882 43.1447 54.5136 42.565 54.564C43.9312 54.0283 45.7481 53.5539 48.0651 53.4102V54.8909Z" fill="url(#paint14_linear_107_543)"/>
<path d="M42.5652 54.564C43.1449 54.5136 43.7214 54.4882 44.2939 54.4882C45.9554 54.4882 47.2482 54.7023 48.0653 54.8909V53.4102C45.7483 53.5539 43.931 54.0282 42.5652 54.564Z" fill="url(#paint15_linear_107_543)"/>
<path d="M42.5652 54.564C43.1449 54.5136 43.7214 54.4882 44.2939 54.4882C45.9554 54.4882 47.2482 54.7023 48.0653 54.8909V53.4102C45.7483 53.5539 43.931 54.0282 42.5652 54.564Z" fill="url(#paint16_linear_107_543)"/>
<path d="M17.6324 49.1706L15.1666 42.6316H12.7182L11.6892 55.8585H13.9777L14.5101 48.4627C14.5632 47.587 14.5279 46.3947 14.5279 46.3947H14.5636C14.5636 46.3947 14.9539 47.6988 15.2554 48.4627L16.6494 51.9936C17.0109 51.1309 17.3917 50.3341 17.783 49.599C17.7323 49.4505 17.6815 49.3051 17.6328 49.1706H17.6324Z" fill="url(#paint17_linear_107_543)"/>
<path d="M12.3307 54.7979L13.2633 42.813H14.7646L17.0826 48.9597C17.0995 49.0063 17.117 49.0554 17.1351 49.1065C16.9801 49.4049 16.8292 49.7088 16.6827 50.0171L15.8015 47.7852C15.5131 47.0553 15.1313 45.7817 15.1275 45.769C15.05 45.5104 14.8216 45.3341 14.5633 45.3341H14.5276C14.3674 45.3341 14.2145 45.4024 14.103 45.5228C13.9915 45.6435 13.9315 45.8064 13.9363 45.9745C13.9366 45.9862 13.9702 47.1483 13.9195 47.9835L13.429 54.7979H12.3303H12.3307Z" fill="url(#paint18_linear_107_543)"/>
<path d="M22.582 55.2658H24.8527L23.9866 43.9374C23.2111 45.3163 22.5742 46.7658 22.0662 48.0998L22.582 55.2662V55.2658Z" fill="url(#paint19_linear_107_543)"/>
<path d="M23.1306 54.6446L22.6665 48.1968C22.9502 47.4601 23.2482 46.7562 23.5583 46.0894L24.2124 54.6446H23.1306Z" fill="url(#paint20_linear_107_543)"/>
<path d="M24.8526 41.6791C24.8526 41.6791 19.5865 44.4698 16.4861 53.1371H20.0293C20.0293 53.1371 21.462 46.3721 24.8526 41.6791ZM19.8266 52.8888H17.8862C19.273 49.4138 21.0107 47.0046 22.4791 45.4178C20.975 48.5402 20.1346 51.6283 19.8269 52.8888H19.8266Z" fill="url(#paint21_linear_107_543)"/>
<path d="M22.4791 45.4178C21.0107 47.0046 19.273 49.4142 17.8862 52.8888H19.8266C20.1346 51.6283 20.975 48.5402 22.4787 45.4178H22.4791Z" fill="url(#paint22_linear_107_543)"/>
<path d="M22.4791 45.4178C21.0107 47.0046 19.273 49.4142 17.8862 52.8888H19.8266C20.1346 51.6283 20.975 48.5402 22.4787 45.4178H22.4791Z" fill="url(#paint23_linear_107_543)"/>
<path d="M55.6981 45.6634C55.9619 44.9095 56.2634 43.5906 56.2634 43.5906H56.3011C56.3011 43.5906 56.5837 44.9098 56.8286 45.6634L57.468 47.5918C58.2068 47.3956 58.9309 47.2543 59.6152 47.1531L57.5445 41.2726H55.0004L51.7192 50.5917C52.6385 49.7459 53.6668 49.0914 54.7288 48.5858L55.6977 45.6634H55.6981Z" fill="url(#paint24_linear_107_543)"/>
<path d="M55.4457 41.9007H57.1L58.7745 46.6561C58.4723 46.712 58.1739 46.7741 57.8814 46.842L57.4252 45.4659C57.1943 44.7555 56.9182 43.472 56.9155 43.4589C56.8534 43.1694 56.5975 42.9623 56.3011 42.9623H56.2634C55.9705 42.9623 55.7163 43.165 55.6511 43.4504C55.6481 43.4631 55.3541 44.7442 55.1051 45.4556L54.216 48.1365C53.7969 48.3461 53.3942 48.5731 53.01 48.817L55.4453 41.9003L55.4457 41.9007Z" fill="url(#paint25_linear_107_543)"/>
<path d="M58.1755 49.7414L59.7496 54.6522H62.2559L60.2037 48.8235C59.4875 49.0763 58.8108 49.3822 58.1755 49.7414Z" fill="url(#paint26_linear_107_543)"/>
<path d="M60.208 53.5422L58.9333 49.5661C59.2215 49.4197 59.5195 49.2835 59.8252 49.1583L61.3687 53.5422H60.208Z" fill="url(#paint27_linear_107_543)"/>
<path d="M64.3511 47.7232C64.3511 47.7232 52.7071 46.4883 49.4033 55.1557H52.8735C52.8735 55.1557 55.113 48.3968 64.3511 47.7232ZM54.983 51.6708C53.731 52.9663 53.0529 54.2248 52.7445 54.9046H50.94C52.3566 52.1541 54.7912 50.651 57.2146 49.8395C56.2905 50.4391 55.5548 51.0791 54.983 51.6711V51.6708Z" fill="url(#paint28_linear_107_543)"/>
<path d="M57.2145 49.5949C54.7915 50.4068 52.3569 51.9095 50.9399 54.6601H52.7445C53.0525 53.9802 53.731 52.7217 54.9829 51.4262C55.5551 50.8345 56.2905 50.1941 57.2145 49.5946V49.5949Z" fill="url(#paint29_linear_107_543)"/>
<path d="M57.2145 49.5949C54.7915 50.4068 52.3569 51.9095 50.9399 54.6601H52.7445C53.0525 53.9802 53.731 52.7217 54.9829 51.4262C55.5551 50.8345 56.2905 50.1941 57.2145 49.5946V49.5949Z" fill="url(#paint30_linear_107_543)"/>
<path d="M1.75342 55.4953H10.0637V53.4037H4.18429V50.4343C3.20501 50.627 2.38317 50.9364 1.75342 51.2369V55.4956V55.4953Z" fill="url(#paint31_linear_107_543)"/>
<path d="M2.38145 54.8672V51.6423C2.76218 51.4797 3.15492 51.3418 3.55589 51.2293V53.4036C3.55589 53.7504 3.83716 54.0317 4.18394 54.0317H9.43533V54.8672H2.3811H2.38145Z" fill="url(#paint32_linear_107_543)"/>
<path d="M4.18429 44.2073H9.76223V42.1157H1.75342V48.8715C2.53581 48.2524 3.36863 47.8229 4.18429 47.5273V44.2073Z" fill="url(#paint33_linear_107_543)"/>
<path d="M2.38135 42.7437H9.13373V43.5793H4.18384C3.83706 43.5793 3.55579 43.8606 3.55579 44.2073V47.0975C3.14693 47.2669 2.75488 47.4621 2.38135 47.682V42.7437Z" fill="url(#paint34_linear_107_543)"/>
<path d="M9.54135 50.2456V47.5609C9.54135 47.5609 3.11139 46.2215 0 51.7068C0 51.7068 3.8173 48.5313 9.54135 50.2459V50.2456ZM8.1858 48.6729C8.57031 48.6729 8.90405 48.6942 9.16439 48.7196V49.7746C8.28836 49.5829 7.41061 49.4862 6.54418 49.4862C5.44622 49.4862 4.46043 49.6392 3.60532 49.8631C5.12448 48.9267 6.80761 48.6729 8.18546 48.6729H8.1858Z" fill="url(#paint35_linear_107_543)"/>
<path d="M9.16444 49.7746V48.7196C8.9041 48.6942 8.57036 48.6729 8.18585 48.6729C6.808 48.6729 5.12488 48.9267 3.60571 49.8631C4.46082 49.6392 5.44661 49.4862 6.54457 49.4862C7.411 49.4862 8.28875 49.5829 9.16479 49.7746H9.16444Z" fill="url(#paint36_linear_107_543)"/>
<path d="M9.16444 49.7746V48.7196C8.9041 48.6942 8.57036 48.6729 8.18585 48.6729C6.808 48.6729 5.12488 48.9267 3.60571 49.8631C4.46082 49.6392 5.44661 49.4862 6.54457 49.4862C7.411 49.4862 8.28875 49.5829 9.16479 49.7746H9.16444Z" fill="url(#paint37_linear_107_543)"/>
<path d="M28.7195 55.2058H31.1504V51.1745C30.1478 51.0599 29.281 50.8616 28.7195 50.7121V55.2058Z" fill="url(#paint38_linear_107_543)"/>
<path d="M29.3477 54.5778V51.5099C29.6951 51.5857 30.092 51.6612 30.5221 51.7253V54.5778H29.3477Z" fill="url(#paint39_linear_107_543)"/>
<path d="M31.1504 44.5305C30.2194 44.6131 29.3307 44.7922 28.7195 44.9369V49.5342C29.6302 49.527 30.4393 49.4865 31.1504 49.4124V44.5305Z" fill="url(#paint40_linear_107_543)"/>
<path d="M29.3477 45.4405C29.6931 45.3681 30.0947 45.294 30.5221 45.2346V48.8376C30.1551 48.8647 29.7627 48.8839 29.3477 48.8952V45.4405Z" fill="url(#paint41_linear_107_543)"/>
<path d="M35.3057 41.6002C33.5314 40.9598 31.2861 41.0562 27.7576 41.3769V44.6701C27.7576 44.6701 35.3057 42.3713 35.6731 46.1793C35.9101 48.6383 34.6221 50.0697 28.2069 50.0374C28.2069 50.0374 34.121 52.0409 37.0921 49.396C39.7223 47.0543 37.9688 42.5743 35.3057 41.6002ZM36.9676 49.3356C36.452 49.7946 35.7887 50.1208 34.985 50.3118C35.3983 50.093 35.7358 49.8357 36.0065 49.538C36.6613 48.8174 36.9209 47.8594 36.8002 46.6098C36.6966 45.5348 36 43.7313 32.4989 43.7313C31.1581 43.7313 29.7796 43.9896 28.8885 44.1971V42.5695C30.0838 42.4666 31.2885 42.3829 32.3161 42.3829C33.6274 42.3829 34.6159 42.5191 35.4268 42.8117C36.6157 43.2466 37.6495 44.6077 37.9379 46.12C38.081 46.8708 38.1455 48.2871 36.9679 49.3353L36.9676 49.3356Z" fill="url(#paint42_linear_107_543)"/>
<path d="M37.9379 46.1203C37.6494 44.6076 36.6156 43.2469 35.4268 42.812C34.6159 42.5194 33.6274 42.3832 32.3161 42.3832C31.2884 42.3832 30.0838 42.4669 28.8884 42.5698V44.1974C29.7796 43.9899 31.1581 43.7316 32.4989 43.7316C35.9999 43.7316 36.6966 45.5351 36.8002 46.6101C36.9206 47.8597 36.6609 48.8173 36.0065 49.5383C35.7358 49.836 35.3983 50.0936 34.985 50.3121C35.7887 50.1211 36.452 49.7952 36.9676 49.3359C38.1451 48.2877 38.0809 46.8715 37.9376 46.1206L37.9379 46.1203Z" fill="url(#paint43_linear_107_543)"/>
<path d="M37.9379 46.1203C37.6494 44.6076 36.6156 43.2469 35.4268 42.812C34.6159 42.5194 33.6274 42.3832 32.3161 42.3832C31.2884 42.3832 30.0838 42.4669 28.8884 42.5698V44.1974C29.7796 43.9899 31.1581 43.7316 32.4989 43.7316C35.9999 43.7316 36.6966 45.5351 36.8002 46.6101C36.9206 47.8597 36.6609 48.8173 36.0065 49.5383C35.7358 49.836 35.3983 50.0936 34.985 50.3121C35.7887 50.1211 36.452 49.7952 36.9676 49.3359C38.1451 48.2877 38.0809 46.8715 37.9376 46.1206L37.9379 46.1203Z" fill="url(#paint44_linear_107_543)"/>
<path d="M88.0585 50.7862C88.2759 49.8261 87.3227 48.5398 85.5089 47.3448C85.4053 47.2765 85.335 47.1757 85.3034 47.0635C84.305 46.6248 83.5353 46.16 83.5353 45.3338C83.5353 44.4001 84.413 43.7467 85.5333 43.7467C87.1951 43.7467 88.4649 44.9043 88.4649 44.9043L89.5107 42.9437C89.5107 42.9437 88.1662 41.5247 85.5521 41.5247C82.9381 41.5247 81.1082 43.1677 81.1082 45.3711C81.1082 49.4416 87.3632 49.031 87.3632 51.4022C87.3632 51.4804 87.357 51.5548 87.3478 51.6275C87.7264 51.4313 87.9785 51.1401 88.0585 50.7862Z" fill="url(#paint45_linear_107_543)"/>
<path d="M87.3101 49.9485C86.7521 49.4344 85.922 49.0766 85.108 48.7257C83.4476 48.0099 81.7305 47.27 81.7305 45.3708C81.7305 43.4716 83.3735 42.1469 85.5519 42.1469C87.1647 42.1469 88.2229 42.7317 88.7243 43.0946L88.2537 43.9772C87.6566 43.5971 86.6828 43.1241 85.533 43.1241C84.0392 43.1241 82.9128 44.0739 82.9128 45.3338C82.9128 46.5936 84.0732 47.1925 84.8443 47.541C84.9276 47.6689 85.037 47.7797 85.1667 47.8651C86.3425 48.6396 87.0254 49.3792 87.3098 49.9489L87.3101 49.9485Z" fill="url(#paint46_linear_107_543)"/>
<path d="M85.7831 46.9291C89.7877 49.5671 88.9768 52.0374 86.6094 52.364C84.7661 52.6182 82.2234 51.029 82.2234 51.029L80.1575 53.5398C80.9522 54.5887 87.4995 56.9407 89.5973 53.381C92.2384 48.899 85.7834 46.9291 85.7834 46.9291H85.7831ZM89.327 53.5C88.7295 54.5139 87.6103 55.0281 86.0006 55.0281C84.1734 55.0281 82.4251 54.3754 81.5967 53.9181L82.7746 52.4864C83.5957 52.9217 85.1574 53.6365 86.5627 53.6365C86.7428 53.6365 86.9184 53.6249 87.0848 53.6019C88.441 53.4149 89.3987 52.6511 89.646 51.5589C89.6824 51.3988 89.7077 51.2091 89.7064 50.9933C89.9972 51.7531 89.8731 52.5732 89.327 53.5Z" fill="url(#paint47_linear_107_543)"/>
<path d="M89.7063 50.9933C89.7077 51.2091 89.6823 51.3991 89.646 51.5589C89.3987 52.6511 88.4413 53.4146 87.0848 53.6019C86.9184 53.6248 86.7428 53.6365 86.5627 53.6365C85.1574 53.6365 83.5954 52.9217 82.7746 52.4864L81.5967 53.9181C82.425 54.3753 84.1733 55.0284 86.0005 55.0281C87.6102 55.0281 88.7295 54.5139 89.327 53.5C89.873 52.5732 89.9972 51.7534 89.7063 50.9933Z" fill="url(#paint48_linear_107_543)"/>
<path d="M89.7063 50.9933C89.7077 51.2091 89.6823 51.3991 89.646 51.5589C89.3987 52.6511 88.4413 53.4146 87.0848 53.6019C86.9184 53.6248 86.7428 53.6365 86.5627 53.6365C85.1574 53.6365 83.5954 52.9217 82.7746 52.4864L81.5967 53.9181C82.425 54.3753 84.1733 55.0284 86.0005 55.0281C87.6102 55.0281 88.7295 54.5139 89.327 53.5C89.873 52.5732 89.9972 51.7534 89.7063 50.9933Z" fill="url(#paint49_linear_107_543)"/>
<path d="M92.253 54.4416C92.6639 54.4416 92.997 54.0769 92.997 53.627C92.997 53.177 92.6639 52.8123 92.253 52.8123C91.8421 52.8123 91.509 53.177 91.509 53.627C91.509 54.0769 91.8421 54.4416 92.253 54.4416Z" fill="white"/>
<path d="M91.3283 54.9804C91.7833 54.9804 92.1522 54.6116 92.1522 54.1565C92.1522 53.7015 91.7833 53.3326 91.3283 53.3326C90.8732 53.3326 90.5044 53.7015 90.5044 54.1565C90.5044 54.6116 90.8732 54.9804 91.3283 54.9804Z" fill="url(#paint50_linear_107_543)"/>
<path d="M91.0231 55.0686C91.4781 55.0686 91.847 54.6997 91.847 54.2447C91.847 53.7897 91.4781 53.4208 91.0231 53.4208C90.5681 53.4208 90.1992 53.7897 90.1992 54.2447C90.1992 54.6997 90.5681 55.0686 91.0231 55.0686Z" fill="url(#paint51_linear_107_543)"/>
<path d="M61.6546 35.5321C62.688 34.8364 62.9617 33.4347 62.266 32.4013C61.5703 31.368 60.1686 31.0942 59.1352 31.7899C58.1019 32.4856 57.8281 33.8873 58.5238 34.9207C59.2195 35.9541 60.6212 36.2278 61.6546 35.5321Z" fill="url(#paint52_linear_107_543)"/>
<path d="M41.7034 5.00185C42.7368 4.30614 43.0105 2.90446 42.3148 1.87109C41.6191 0.837724 40.2174 0.563994 39.1841 1.2597C38.1507 1.9554 37.877 3.35709 38.5727 4.39045C39.2684 5.42382 40.6701 5.69755 41.7034 5.00185Z" fill="url(#paint53_linear_107_543)"/>
<path d="M45.7261 10.9769C46.7595 10.2812 47.0332 8.87955 46.3375 7.84619C45.6418 6.81282 44.2401 6.53909 43.2068 7.23479C42.1734 7.9305 41.8997 9.33218 42.5954 10.3655C43.2911 11.3989 44.6928 11.6726 45.7261 10.9769Z" fill="url(#paint54_linear_107_543)"/>
<path d="M50.929 18.5834C51.9624 17.8877 52.2361 16.486 51.5404 15.4526C50.8447 14.4193 49.443 14.1455 48.4096 14.8412C47.3763 15.5369 47.1026 16.9386 47.7983 17.972C48.494 19.0054 49.8956 19.2791 50.929 18.5834Z" fill="url(#paint55_linear_107_543)"/>
<path d="M55.3397 26.1525C56.373 25.4568 56.6468 24.0551 55.951 23.0217C55.2553 21.9884 53.8537 21.7146 52.8203 22.4103C51.7869 23.106 51.5132 24.5077 52.2089 25.5411C52.9046 26.5745 54.3063 26.8482 55.3397 26.1525Z" fill="url(#paint56_linear_107_543)"/>
<path d="M86.498 16.3056C86.7462 15.0848 85.9577 13.894 84.7369 13.6459C83.5162 13.3977 82.3254 14.1862 82.0772 15.4069C81.8291 16.6277 82.6176 17.8185 83.8383 18.0666C85.0591 18.3148 86.2499 17.5263 86.498 16.3056Z" fill="url(#paint57_linear_107_543)"/>
<path d="M81.324 21.4891C81.5721 20.2683 80.7836 19.0775 79.5629 18.8294C78.3421 18.5812 77.1513 19.3697 76.9032 20.5905C76.655 21.8113 77.4435 23.002 78.6643 23.2502C79.885 23.4983 81.0758 22.7099 81.324 21.4891Z" fill="url(#paint58_linear_107_543)"/>
<path d="M75.3308 25.5246C75.5789 24.3039 74.7905 23.1131 73.5697 22.8649C72.3489 22.6168 71.1581 23.4053 70.91 24.626C70.6619 25.8468 71.4503 27.0376 72.6711 27.2857C73.8919 27.5339 75.0826 26.7454 75.3308 25.5246Z" fill="url(#paint59_linear_107_543)"/>
<path d="M69.4409 29.491C69.689 28.2702 68.9006 27.0794 67.6798 26.8313C66.459 26.5831 65.2683 27.3716 65.0201 28.5923C64.772 29.8131 65.5604 31.0039 66.7812 31.252C68.002 31.5002 69.1927 30.7117 69.4409 29.491Z" fill="url(#paint60_linear_107_543)"/>
<path d="M59.3878 2.3471C58.7807 2.15055 58.2716 2.30594 58.0758 2.74464C56.3844 6.53244 43.6936 15.4965 37.2547 13.0636C33.8878 11.7914 34.8462 7.92606 37.3309 6.31566L36.7474 6.47756C34.0967 7.93841 32.4534 12.7357 35.4457 15.0702C38.3187 17.3113 43.9917 16.3358 48.3393 14.3749C53.7697 11.9255 58.9906 7.71957 61.0184 5.1244C61.6122 4.36431 60.7022 2.77345 59.4392 2.3639C59.4221 2.35841 59.4053 2.35293 59.3881 2.34744L59.3878 2.3471Z" fill="#29A9E0"/>
<path d="M66.9034 8.16651C68.0837 8.86658 68.7574 10.3024 68.2573 11.0718C64.2911 17.1759 41.8624 31.4078 32.9206 23.0635C29.9221 20.2656 29.8336 15.0684 32.6997 10.1316C32.9755 9.82013 33.3597 9.41882 33.6886 9.16156C30.2565 13.5654 30.0257 20.7006 37.4757 21.8575C47.8533 23.4693 62.5507 12.4777 64.8114 8.27215C65.1321 7.67532 65.9924 7.62593 66.853 8.13598C66.8698 8.14593 66.8866 8.15587 66.9038 8.16616L66.9034 8.16651Z" fill="#1F76BA"/>
<path d="M74.8659 14.3166C73.9154 13.4961 72.7794 13.3647 72.3088 14.0144C70.2127 16.9069 63.0827 23.2772 54.6118 26.8959C42.2644 32.1706 29.4302 31.0487 29.9649 18.5805C29.9279 19.1639 29.92 19.9614 29.9062 20.5555C29.9357 21.4823 30.0352 22.7421 30.1189 23.6895C30.2788 24.7871 30.6111 27.0712 32.2167 29.2143C36.3036 34.6687 45.2794 34.3257 52.3168 32.1857C64.0331 28.6229 73.3073 20.5802 75.8205 17.0994C76.299 16.4363 75.9035 15.2128 74.9352 14.3763C74.9122 14.3564 74.8889 14.3365 74.8659 14.3162V14.3166Z" fill="url(#paint61_linear_107_543)"/>
<defs>
<linearGradient id="paint0_linear_107_543" x1="98.3359" y1="51.7575" x2="99.95" y2="42.6021" gradientUnits="userSpaceOnUse">
<stop stop-color="#524F5A"/>
<stop offset="1" stop-color="#080808"/>
</linearGradient>
<linearGradient id="paint1_linear_107_543" x1="98.6699" y1="49.9901" x2="99.8615" y2="43.2312" gradientUnits="userSpaceOnUse">
<stop offset="0.36" stop-color="#524F5A"/>
<stop offset="0.57" stop-color="#38363D"/>
<stop offset="1" stop-color="#080808"/>
</linearGradient>
<linearGradient id="paint2_linear_107_543" x1="102.467" y1="54.8988" x2="103.389" y2="49.6704" gradientUnits="userSpaceOnUse">
<stop stop-color="#524F5A"/>
<stop offset="1" stop-color="#080808"/>
</linearGradient>
<linearGradient id="paint3_linear_107_543" x1="102.495" y1="54.257" x2="103.169" y2="50.4373" gradientUnits="userSpaceOnUse">
<stop offset="0.36" stop-color="#524F5A"/>
<stop offset="0.57" stop-color="#38363D"/>
<stop offset="1" stop-color="#080808"/>
</linearGradient>
<linearGradient id="paint4_linear_107_543" x1="92.9974" y1="51.7119" x2="106.636" y2="51.7119" gradientUnits="userSpaceOnUse">
<stop offset="0.45" stop-color="#297AA6"/>
<stop offset="0.73" stop-color="#1B516E"/>
<stop offset="1" stop-color="#0F345C"/>
</linearGradient>
<linearGradient id="paint5_linear_107_543" x1="92.9973" y1="52.5904" x2="106.636" y2="52.5904" gradientUnits="userSpaceOnUse">
<stop offset="0.45" stop-color="#297AA6"/>
<stop offset="0.73" stop-color="#1B516E"/>
<stop offset="1" stop-color="#0F345C"/>
</linearGradient>
<linearGradient id="paint6_linear_107_543" x1="94.3995" y1="52.5904" x2="100.124" y2="52.5904" gradientUnits="userSpaceOnUse">
<stop stop-color="#85CCF2"/>
<stop offset="1" stop-color="#36A0D9"/>
</linearGradient>
<linearGradient id="paint7_linear_107_543" x1="67.68" y1="50.972" x2="69.3717" y2="41.3775" gradientUnits="userSpaceOnUse">
<stop stop-color="#524F5A"/>
<stop offset="1" stop-color="#080808"/>
</linearGradient>
<linearGradient id="paint8_linear_107_543" x1="67.9046" y1="49.3394" x2="69.2025" y2="41.9789" gradientUnits="userSpaceOnUse">
<stop offset="0.36" stop-color="#524F5A"/>
<stop offset="0.57" stop-color="#38363D"/>
<stop offset="1" stop-color="#080808"/>
</linearGradient>
<linearGradient id="paint9_linear_107_543" x1="63.7717" y1="51.0263" x2="73.8461" y2="51.0263" gradientUnits="userSpaceOnUse">
<stop offset="0.46" stop-color="#297AA6"/>
<stop offset="0.73" stop-color="#1B516E"/>
<stop offset="1" stop-color="#0F345C"/>
</linearGradient>
<linearGradient id="paint10_linear_107_543" x1="63.7718" y1="52.6898" x2="73.8462" y2="52.6898" gradientUnits="userSpaceOnUse">
<stop offset="0.46" stop-color="#297AA6"/>
<stop offset="0.73" stop-color="#1B516E"/>
<stop offset="1" stop-color="#0F345C"/>
</linearGradient>
<linearGradient id="paint11_linear_107_543" x1="65.2114" y1="52.6898" x2="73.4734" y2="52.6898" gradientUnits="userSpaceOnUse">
<stop stop-color="#85CCF2"/>
<stop offset="1" stop-color="#36A0D9"/>
</linearGradient>
<linearGradient id="paint12_linear_107_543" x1="39.9017" y1="53.8598" x2="41.9353" y2="42.326" gradientUnits="userSpaceOnUse">
<stop stop-color="#524F5A"/>
<stop offset="1" stop-color="#080808"/>
</linearGradient>
<linearGradient id="paint13_linear_107_543" x1="40.1091" y1="52.7759" x2="41.8286" y2="43.025" gradientUnits="userSpaceOnUse">
<stop offset="0.36" stop-color="#524F5A"/>
<stop offset="0.57" stop-color="#38363D"/>
<stop offset="1" stop-color="#080808"/>
</linearGradient>
<linearGradient id="paint14_linear_107_543" x1="36.809" y1="51.3206" x2="53.0445" y2="57.5221" gradientUnits="userSpaceOnUse">
<stop offset="0.46" stop-color="#297AA6"/>
<stop offset="0.73" stop-color="#1B516E"/>
<stop offset="1" stop-color="#0F345C"/>
</linearGradient>
<linearGradient id="paint15_linear_107_543" x1="37.0034" y1="50.8126" x2="53.2388" y2="57.0138" gradientUnits="userSpaceOnUse">
<stop offset="0.46" stop-color="#297AA6"/>
<stop offset="0.73" stop-color="#1B516E"/>
<stop offset="1" stop-color="#0F345C"/>
</linearGradient>
<linearGradient id="paint16_linear_107_543" x1="42.5652" y1="54.1507" x2="48.0653" y2="54.1507" gradientUnits="userSpaceOnUse">
<stop stop-color="#85CCF2"/>
<stop offset="1" stop-color="#36A0D9"/>
</linearGradient>
<linearGradient id="paint17_linear_107_543" x1="13.4769" y1="56.1737" x2="15.8437" y2="42.751" gradientUnits="userSpaceOnUse">
<stop stop-color="#524F5A"/>
<stop offset="1" stop-color="#080808"/>
</linearGradient>
<linearGradient id="paint18_linear_107_543" x1="13.6012" y1="55.0219" x2="15.724" y2="42.9821" gradientUnits="userSpaceOnUse">
<stop offset="0.36" stop-color="#524F5A"/>
<stop offset="0.57" stop-color="#38363D"/>
<stop offset="1" stop-color="#080808"/>
</linearGradient>
<linearGradient id="paint19_linear_107_543" x1="22.8204" y1="55.3077" x2="24.7999" y2="44.0804" gradientUnits="userSpaceOnUse">
<stop stop-color="#524F5A"/>
<stop offset="1" stop-color="#080808"/>
</linearGradient>
<linearGradient id="paint20_linear_107_543" x1="22.8788" y1="54.6004" x2="24.3548" y2="46.23" gradientUnits="userSpaceOnUse">
<stop offset="0.36" stop-color="#524F5A"/>
<stop offset="0.57" stop-color="#38363D"/>
<stop offset="1" stop-color="#080808"/>
</linearGradient>
<linearGradient id="paint21_linear_107_543" x1="16.4861" y1="47.4083" x2="24.8526" y2="47.4083" gradientUnits="userSpaceOnUse">
<stop offset="0.46" stop-color="#297AA6"/>
<stop offset="0.73" stop-color="#1B516E"/>
<stop offset="1" stop-color="#0F345C"/>
</linearGradient>
<linearGradient id="paint22_linear_107_543" x1="16.4861" y1="49.1535" x2="24.8526" y2="49.1535" gradientUnits="userSpaceOnUse">
<stop offset="0.46" stop-color="#297AA6"/>
<stop offset="0.73" stop-color="#1B516E"/>
<stop offset="1" stop-color="#0F345C"/>
</linearGradient>
<linearGradient id="paint23_linear_107_543" x1="17.8862" y1="49.1535" x2="22.4791" y2="49.1535" gradientUnits="userSpaceOnUse">
<stop stop-color="#85CCF2"/>
<stop offset="1" stop-color="#36A0D9"/>
</linearGradient>
<linearGradient id="paint24_linear_107_543" x1="55.2542" y1="51.2149" x2="57.0238" y2="41.1807" gradientUnits="userSpaceOnUse">
<stop stop-color="#524F5A"/>
<stop offset="1" stop-color="#080808"/>
</linearGradient>
<linearGradient id="paint25_linear_107_543" x1="55.6206" y1="49.2777" x2="56.9268" y2="41.8701" gradientUnits="userSpaceOnUse">
<stop offset="0.36" stop-color="#524F5A"/>
<stop offset="0.57" stop-color="#38363D"/>
<stop offset="1" stop-color="#080808"/>
</linearGradient>
<linearGradient id="paint26_linear_107_543" x1="59.7818" y1="54.6576" x2="60.792" y2="48.9274" gradientUnits="userSpaceOnUse">
<stop stop-color="#524F5A"/>
<stop offset="1" stop-color="#080808"/>
</linearGradient>
<linearGradient id="paint27_linear_107_543" x1="59.8128" y1="53.4726" x2="60.551" y2="49.2862" gradientUnits="userSpaceOnUse">
<stop offset="0.36" stop-color="#524F5A"/>
<stop offset="0.57" stop-color="#38363D"/>
<stop offset="1" stop-color="#080808"/>
</linearGradient>
<linearGradient id="paint28_linear_107_543" x1="49.4033" y1="51.4091" x2="64.3511" y2="51.4091" gradientUnits="userSpaceOnUse">
<stop offset="0.45" stop-color="#297AA6"/>
<stop offset="0.73" stop-color="#1B516E"/>
<stop offset="1" stop-color="#0F345C"/>
</linearGradient>
<linearGradient id="paint29_linear_107_543" x1="49.4033" y1="52.1277" x2="64.3511" y2="52.1277" gradientUnits="userSpaceOnUse">
<stop offset="0.45" stop-color="#297AA6"/>
<stop offset="0.73" stop-color="#1B516E"/>
<stop offset="1" stop-color="#0F345C"/>
</linearGradient>
<linearGradient id="paint30_linear_107_543" x1="50.9403" y1="52.1277" x2="57.2145" y2="52.1277" gradientUnits="userSpaceOnUse">
<stop stop-color="#85CCF2"/>
<stop offset="1" stop-color="#36A0D9"/>
</linearGradient>
<linearGradient id="paint31_linear_107_543" x1="5.41911" y1="56.1415" x2="6.35791" y2="50.8174" gradientUnits="userSpaceOnUse">
<stop stop-color="#524F5A"/>
<stop offset="1" stop-color="#080808"/>
</linearGradient>
<linearGradient id="paint32_linear_107_543" x1="5.52645" y1="55.4215" x2="6.18399" y2="51.6924" gradientUnits="userSpaceOnUse">
<stop offset="0.36" stop-color="#524F5A"/>
<stop offset="0.57" stop-color="#38363D"/>
<stop offset="1" stop-color="#080808"/>
</linearGradient>
<linearGradient id="paint33_linear_107_543" x1="4.66072" y1="49.3843" x2="6.05744" y2="41.4626" gradientUnits="userSpaceOnUse">
<stop stop-color="#524F5A"/>
<stop offset="1" stop-color="#080808"/>
</linearGradient>
<linearGradient id="paint34_linear_107_543" x1="4.88288" y1="48.1231" x2="5.9311" y2="42.1792" gradientUnits="userSpaceOnUse">
<stop offset="0.36" stop-color="#524F5A"/>
<stop offset="0.57" stop-color="#38363D"/>
<stop offset="1" stop-color="#080808"/>
</linearGradient>
<linearGradient id="paint35_linear_107_543" x1="0.222953" y1="51.206" x2="12.6047" y2="47.3568" gradientUnits="userSpaceOnUse">
<stop offset="0.46" stop-color="#297AA6"/>
<stop offset="0.73" stop-color="#1B516E"/>
<stop offset="1" stop-color="#0F345C"/>
</linearGradient>
<linearGradient id="paint36_linear_107_543" x1="0.338595" y1="51.5771" x2="12.72" y2="47.7279" gradientUnits="userSpaceOnUse">
<stop offset="0.46" stop-color="#297AA6"/>
<stop offset="0.73" stop-color="#1B516E"/>
<stop offset="1" stop-color="#0F345C"/>
</linearGradient>
<linearGradient id="paint37_linear_107_543" x1="3.60537" y1="49.268" x2="9.16444" y2="49.268" gradientUnits="userSpaceOnUse">
<stop stop-color="#85CCF2"/>
<stop offset="1" stop-color="#36A0D9"/>
</linearGradient>
<linearGradient id="paint38_linear_107_543" x1="29.5142" y1="55.3461" x2="30.2826" y2="50.9875" gradientUnits="userSpaceOnUse">
<stop stop-color="#524F5A"/>
<stop offset="1" stop-color="#080808"/>
</linearGradient>
<linearGradient id="paint39_linear_107_543" x1="29.6546" y1="54.6319" x2="30.1794" y2="51.6567" gradientUnits="userSpaceOnUse">
<stop offset="0.36" stop-color="#524F5A"/>
<stop offset="0.57" stop-color="#38363D"/>
<stop offset="1" stop-color="#080808"/>
</linearGradient>
<linearGradient id="paint40_linear_107_543" x1="29.495" y1="49.6711" x2="30.4239" y2="44.4025" gradientUnits="userSpaceOnUse">
<stop stop-color="#524F5A"/>
<stop offset="1" stop-color="#080808"/>
</linearGradient>
<linearGradient id="paint41_linear_107_543" x1="29.6169" y1="48.9425" x2="30.2782" y2="45.1918" gradientUnits="userSpaceOnUse">
<stop offset="0.36" stop-color="#524F5A"/>
<stop offset="0.57" stop-color="#38363D"/>
<stop offset="1" stop-color="#080808"/>
</linearGradient>
<linearGradient id="paint42_linear_107_543" x1="26.8524" y1="39.6746" x2="38.6888" y2="53.5639" gradientUnits="userSpaceOnUse">
<stop offset="0.46" stop-color="#297AA6"/>
<stop offset="0.73" stop-color="#1B516E"/>
<stop offset="1" stop-color="#0F345C"/>
</linearGradient>
<linearGradient id="paint43_linear_107_543" x1="28.1908" y1="38.534" x2="40.0272" y2="52.4233" gradientUnits="userSpaceOnUse">
<stop offset="0.46" stop-color="#297AA6"/>
<stop offset="0.73" stop-color="#1B516E"/>
<stop offset="1" stop-color="#0F345C"/>
</linearGradient>
<linearGradient id="paint44_linear_107_543" x1="28.8884" y1="46.3473" x2="38.0141" y2="46.3473" gradientUnits="userSpaceOnUse">
<stop stop-color="#85CCF2"/>
<stop offset="1" stop-color="#36A0D9"/>
</linearGradient>
<linearGradient id="paint45_linear_107_543" x1="84.0652" y1="51.0485" x2="85.7572" y2="41.454" gradientUnits="userSpaceOnUse">
<stop stop-color="#524F5A"/>
<stop offset="1" stop-color="#080808"/>
</linearGradient>
<linearGradient id="paint46_linear_107_543" x1="84.2903" y1="49.4162" x2="85.5882" y2="42.0553" gradientUnits="userSpaceOnUse">
<stop offset="0.36" stop-color="#524F5A"/>
<stop offset="0.57" stop-color="#38363D"/>
<stop offset="1" stop-color="#080808"/>
</linearGradient>
<linearGradient id="paint47_linear_107_543" x1="80.1575" y1="51.1031" x2="90.2319" y2="51.1031" gradientUnits="userSpaceOnUse">
<stop offset="0.46" stop-color="#297AA6"/>
<stop offset="0.73" stop-color="#1B516E"/>
<stop offset="1" stop-color="#0F345C"/>
</linearGradient>
<linearGradient id="paint48_linear_107_543" x1="80.1574" y1="53.0105" x2="90.2318" y2="53.0105" gradientUnits="userSpaceOnUse">
<stop offset="0.46" stop-color="#297AA6"/>
<stop offset="0.73" stop-color="#1B516E"/>
<stop offset="1" stop-color="#0F345C"/>
</linearGradient>
<linearGradient id="paint49_linear_107_543" x1="81.5967" y1="53.0105" x2="89.859" y2="53.0105" gradientUnits="userSpaceOnUse">
<stop stop-color="#85CCF2"/>
<stop offset="1" stop-color="#36A0D9"/>
</linearGradient>
<linearGradient id="paint50_linear_107_543" x1="90.5044" y1="54.1565" x2="92.1525" y2="54.1565" gradientUnits="userSpaceOnUse">
<stop stop-color="#85CCF2"/>
<stop offset="1" stop-color="#36A0D9"/>
</linearGradient>
<linearGradient id="paint51_linear_107_543" x1="90.1992" y1="54.2447" x2="91.8474" y2="54.2447" gradientUnits="userSpaceOnUse">
<stop stop-color="white"/>
<stop offset="1"/>
</linearGradient>
<linearGradient id="paint52_linear_107_543" x1="58.1799" y1="33.2182" x2="62.6008" y2="34.1177" gradientUnits="userSpaceOnUse">
<stop stop-color="#6CDDFF"/>
<stop offset="0.17" stop-color="#61D5F9"/>
<stop offset="0.47" stop-color="#45C2E9"/>
<stop offset="0.5" stop-color="#43C1E8"/>
<stop offset="1" stop-color="#0088C0"/>
</linearGradient>
<linearGradient id="paint53_linear_107_543" x1="38.2307" y1="2.68644" x2="42.6517" y2="3.58589" gradientUnits="userSpaceOnUse">
<stop stop-color="#6CDDFF"/>
<stop offset="0.17" stop-color="#61D5F9"/>
<stop offset="0.47" stop-color="#45C2E9"/>
<stop offset="0.5" stop-color="#43C1E8"/>
<stop offset="1" stop-color="#0088C0"/>
</linearGradient>
<linearGradient id="paint54_linear_107_543" x1="42.2528" y1="8.6616" x2="46.6738" y2="9.56106" gradientUnits="userSpaceOnUse">
<stop stop-color="#6CDDFF"/>
<stop offset="0.17" stop-color="#61D5F9"/>
<stop offset="0.47" stop-color="#45C2E9"/>
<stop offset="0.5" stop-color="#43C1E8"/>
<stop offset="1" stop-color="#0088C0"/>
</linearGradient>
<linearGradient id="paint55_linear_107_543" x1="47.4556" y1="16.2685" x2="51.8763" y2="17.1679" gradientUnits="userSpaceOnUse">
<stop stop-color="#6CDDFF"/>
<stop offset="0.17" stop-color="#61D5F9"/>
<stop offset="0.47" stop-color="#45C2E9"/>
<stop offset="0.5" stop-color="#43C1E8"/>
<stop offset="1" stop-color="#0088C0"/>
</linearGradient>
<linearGradient id="paint56_linear_107_543" x1="51.8657" y1="23.8378" x2="56.2867" y2="24.7373" gradientUnits="userSpaceOnUse">
<stop stop-color="#6CDDFF"/>
<stop offset="0.17" stop-color="#61D5F9"/>
<stop offset="0.47" stop-color="#45C2E9"/>
<stop offset="0.5" stop-color="#43C1E8"/>
<stop offset="1" stop-color="#0088C0"/>
</linearGradient>
<linearGradient id="paint57_linear_107_543" x1="82.077" y1="15.4065" x2="86.4981" y2="16.3052" gradientUnits="userSpaceOnUse">
<stop stop-color="#6CDDFF"/>
<stop offset="0.17" stop-color="#61D5F9"/>
<stop offset="0.47" stop-color="#45C2E9"/>
<stop offset="0.5" stop-color="#43C1E8"/>
<stop offset="1" stop-color="#0088C0"/>
</linearGradient>
<linearGradient id="paint58_linear_107_543" x1="76.9028" y1="20.5904" x2="81.324" y2="21.4891" gradientUnits="userSpaceOnUse">
<stop stop-color="#6CDDFF"/>
<stop offset="0.17" stop-color="#61D5F9"/>
<stop offset="0.47" stop-color="#45C2E9"/>
<stop offset="0.5" stop-color="#43C1E8"/>
<stop offset="1" stop-color="#0088C0"/>
</linearGradient>
<linearGradient id="paint59_linear_107_543" x1="70.91" y1="24.626" x2="75.3311" y2="25.5247" gradientUnits="userSpaceOnUse">
<stop stop-color="#6CDDFF"/>
<stop offset="0.17" stop-color="#61D5F9"/>
<stop offset="0.47" stop-color="#45C2E9"/>
<stop offset="0.5" stop-color="#43C1E8"/>
<stop offset="1" stop-color="#0088C0"/>
</linearGradient>
<linearGradient id="paint60_linear_107_543" x1="65.0198" y1="28.5923" x2="69.4409" y2="29.491" gradientUnits="userSpaceOnUse">
<stop stop-color="#6CDDFF"/>
<stop offset="0.17" stop-color="#61D5F9"/>
<stop offset="0.47" stop-color="#45C2E9"/>
<stop offset="0.5" stop-color="#43C1E8"/>
<stop offset="1" stop-color="#0088C0"/>
</linearGradient>
<linearGradient id="paint61_linear_107_543" x1="29.9059" y1="23.6192" x2="76.0235" y2="23.6192" gradientUnits="userSpaceOnUse">
<stop offset="0.46" stop-color="#297AA6"/>
<stop offset="0.73" stop-color="#1B516E"/>
<stop offset="1" stop-color="#0F345C"/>
</linearGradient>
</defs>
</svg>
