<svg width="747" height="381" viewBox="0 0 747 381" fill="none" xmlns="http://www.w3.org/2000/svg">
<g clip-path="url(#clip0_108_1655)">
<path d="M48.0241 380.067C48.0241 380.067 -42.3052 289.516 32.7471 191.478C99.3391 104.494 176.979 110.439 233.941 145.74C258.202 160.775 328.149 147.592 387.684 59.0819C468.871 -61.6206 750.3 11.5848 698.988 197.291C674.156 287.159 774.561 290.425 723.402 380.257L48.0241 380.067Z" fill="#EBF3FA"/>
<path d="M450.854 342.08C450.854 342.028 451.139 336.182 448.311 334.834L448.51 334.643C449.807 335.093 451.24 336.492 451.816 338.464C452.244 339.93 451.92 340.251 451.92 340.306L450.854 342.078V342.08Z" fill="#A4C8FC"/>
<path d="M432.11 326.928C432.11 326.928 433.077 334.456 437.672 336.658C442.266 338.86 448.749 334.907 448.749 334.907C448.749 334.907 447.781 327.379 443.187 325.177C438.592 322.973 432.11 326.928 432.11 326.928Z" fill="#A4C8FC"/>
<path d="M450.372 353.051C450.317 352.756 449.298 345.87 451.907 338.197C454.414 330.824 453.024 324.571 453.014 324.509H454.858C454.904 324.775 455.034 330.912 453.068 339.321C451.3 346.888 454.601 353.051 453.898 353.051H450.369H450.372Z" fill="#A4C8FC"/>
<path d="M454.245 332.721C454.256 332.682 455.135 327.635 457.504 327.063C456.447 327.2 455.101 327.959 454.349 329.368C453.789 330.418 453.986 330.713 453.976 330.754L454.248 332.721H454.245Z" fill="#A4C8FC"/>
<path d="M461.845 333.241C458.303 332.526 456.327 327.524 456.327 327.524C456.327 327.524 460.092 323.68 463.631 324.392C467.173 325.107 469.149 330.109 469.149 330.109C469.149 330.109 465.384 333.954 461.845 333.241Z" fill="#A4C8FC"/>
<path d="M434.343 316.937C428.706 308.385 431.073 296.883 439.635 291.252C448.196 285.62 459.706 287.985 465.343 296.539C470.98 305.09 468.612 316.592 460.051 322.224C451.489 327.856 439.98 325.49 434.343 316.937Z" fill="#FFB93E"/>
<path d="M459.263 321.032C455.49 323.514 450.976 324.379 446.553 323.47C442.129 322.561 438.323 319.983 435.839 316.214C433.355 312.445 432.489 307.935 433.399 303.515C434.309 299.096 436.889 295.293 440.662 292.811C444.434 290.329 448.949 289.464 453.372 290.373C457.795 291.283 461.602 293.86 464.086 297.629C466.57 301.399 467.436 305.909 466.525 310.328C465.615 314.748 463.035 318.55 459.263 321.032ZM441.217 293.656C433.895 298.474 431.862 308.346 436.684 315.662C441.507 322.978 451.388 325.009 458.711 320.193C466.033 315.374 468.066 305.502 463.246 298.186C458.423 290.871 448.542 288.84 441.219 293.656H441.217Z" fill="#FFA412"/>
<path d="M454.606 309.738C454.443 309.409 454.251 309.144 454.033 308.94C453.815 308.735 453.551 308.585 453.237 308.486C452.923 308.388 452.56 308.336 452.14 308.331C451.723 308.326 451.233 308.362 450.67 308.437C449.7 308.561 448.801 308.631 447.968 308.652C447.136 308.673 446.376 308.595 445.689 308.422C445.002 308.248 444.388 307.95 443.843 307.528C443.301 307.106 442.837 306.512 442.453 305.746C442.122 305.082 441.935 304.417 441.896 303.753C441.857 303.09 441.956 302.445 442.189 301.818C442.422 301.194 442.783 300.601 443.265 300.041C443.747 299.482 444.351 298.977 445.072 298.528L443.815 296.021L445.834 295.01L447.11 297.552C447.88 297.282 448.635 297.148 449.369 297.14C450.102 297.135 450.792 297.259 451.435 297.513C452.078 297.767 452.669 298.153 453.206 298.671C453.745 299.189 454.209 299.837 454.601 300.619L450.953 302.445C450.483 301.507 449.923 300.912 449.273 300.655C448.624 300.399 447.948 300.445 447.25 300.795C446.872 300.984 446.571 301.202 446.35 301.443C446.13 301.686 445.977 301.943 445.892 302.215C445.806 302.487 445.785 302.769 445.827 303.062C445.868 303.354 445.962 303.645 446.107 303.935C446.252 304.225 446.426 304.463 446.625 304.658C446.828 304.849 447.082 304.994 447.388 305.09C447.694 305.186 448.062 305.238 448.49 305.243C448.917 305.248 449.433 305.22 450.032 305.152C451.002 305.049 451.902 304.989 452.731 304.974C453.561 304.961 454.321 305.041 455.011 305.22C455.7 305.398 456.315 305.696 456.859 306.119C457.401 306.541 457.863 307.131 458.244 307.888C458.589 308.574 458.778 309.253 458.812 309.919C458.845 310.587 458.744 311.227 458.506 311.846C458.267 312.463 457.899 313.048 457.404 313.6C456.906 314.152 456.297 314.652 455.576 315.102L456.745 317.434L454.738 318.439L453.577 316.121C452.843 316.4 452.091 316.584 451.321 316.677C450.551 316.771 449.804 316.722 449.078 316.532C448.352 316.343 447.67 315.988 447.03 315.47C446.389 314.95 445.834 314.222 445.365 313.284L449.013 311.458C449.291 312.012 449.602 312.437 449.942 312.73C450.284 313.022 450.639 313.217 451.012 313.307C451.386 313.4 451.759 313.408 452.138 313.331C452.516 313.253 452.877 313.128 453.221 312.958C453.618 312.761 453.94 312.535 454.186 312.284C454.435 312.033 454.614 311.766 454.725 311.486C454.837 311.206 454.881 310.916 454.86 310.621C454.837 310.326 454.754 310.033 454.609 309.743L454.606 309.738Z" fill="#FFA412"/>
<path d="M468.919 351.258L468.916 351.274L468.548 356.955L467.174 378.044H441.486L439.975 357.242L439.557 351.51L439.539 351.258H468.919Z" fill="#B4C9F7"/>
<path d="M468.916 351.274L468.545 356.955C466.611 356.281 461.233 354.662 454.225 354.662C445.378 354.662 439.969 357.242 439.969 357.242L439.552 351.51L468.913 351.274H468.916Z" fill="#9BB8EA"/>
<path d="M469.81 354.261H438.608L438.25 350.637H470.207L469.81 354.261Z" fill="#B4C9F7"/>
<path d="M467.567 379.171H440.933L440.63 377.907H467.907L467.567 379.171Z" fill="#B4C9F7"/>
<path d="M746.155 379.021H0.845266C0.378439 379.021 0 379.399 0 379.865V380.155C0 380.622 0.378439 381 0.845266 381H746.155C746.622 381 747 380.622 747 380.155V379.865C747 379.399 746.622 379.021 746.155 379.021Z" fill="#2E3552"/>
<path d="M628.409 243.374L625.915 245.397C625.915 245.397 619.093 242.951 617.553 251.052C617.553 251.052 617.143 254.505 619.332 254.51C621.52 254.516 620.618 254.132 623.716 254.223C626.814 254.313 629.384 252.681 629.838 250.169L631.321 248.039L628.409 243.371V243.374Z" fill="#EA8E50"/>
<path d="M628.692 247.718C626.703 245.643 626.861 244.107 626.861 244.107C626.861 244.107 649.901 225.261 652.238 223.725C653.83 222.678 670.797 207.648 678.729 198.488C682.662 193.944 687.536 195.706 693.111 197.304L697.703 198.62C703.246 200.208 704.688 207.956 700.14 211.72C687.329 222.323 666.016 234.25 662.026 236.755C652.126 242.977 632.747 250.371 632.747 250.371C632.747 250.371 630.395 249.498 628.687 247.715L628.692 247.718Z" fill="#1E3D70"/>
<path d="M602.397 363.506C602.397 363.506 596.804 367.693 588.238 365.48C588.238 365.48 581.33 363.908 579.813 367.351C579.813 367.351 590.408 372.728 593.089 374.197C595.109 375.306 597.219 377.055 598.708 378.407C599.887 379.477 601.726 379.332 602.732 378.096C603.198 377.524 603.73 376.842 604.316 376.05C605.949 373.837 609.756 366.693 609.756 366.693L602.397 363.504V363.506Z" fill="#233862"/>
<path d="M665.815 215.859C668.73 194.484 653.751 174.795 632.357 171.882C610.963 168.97 591.257 183.936 588.341 205.311C585.426 226.685 600.406 246.374 621.799 249.287C643.193 252.199 662.9 237.233 665.815 215.859Z" fill="#E2810E"/>
<path d="M658.154 238.215C673.422 222.961 673.422 198.23 658.154 182.976C642.887 167.723 618.133 167.723 602.866 182.976C587.598 198.23 587.598 222.961 602.866 238.215C618.133 253.469 642.887 253.469 658.154 238.215Z" fill="#FFB93E"/>
<path d="M605.322 236.221C598.594 229.499 594.889 220.564 594.889 211.057C594.889 201.55 598.594 192.615 605.322 185.893C612.051 179.17 620.993 175.469 630.509 175.469C640.025 175.469 648.968 179.17 655.696 185.893C662.424 192.615 666.13 201.55 666.13 211.057C666.13 220.564 662.424 229.499 655.696 236.221C648.968 242.944 640.025 246.646 630.509 246.646C620.993 246.646 612.051 242.944 605.322 236.221ZM597.015 211.057C597.015 229.509 612.04 244.521 630.509 244.521C648.978 244.521 664.003 229.509 664.003 211.057C664.003 192.605 648.978 177.593 630.509 177.593C612.04 177.593 597.015 192.605 597.015 211.057Z" fill="#FFA412"/>
<path d="M626.181 223.219C626.485 223.766 626.9 224.222 627.421 224.587C627.944 224.953 628.569 225.212 629.295 225.367C630.024 225.522 630.848 225.543 631.774 225.434C632.583 225.339 633.361 225.139 634.115 224.839C634.867 224.535 635.518 224.087 636.068 223.497C636.617 222.903 637.022 222.152 637.281 221.24C637.543 220.328 637.595 219.225 637.442 217.927L645.978 216.914C646.237 219.106 646.107 221.031 645.584 222.686C645.062 224.341 644.272 225.756 643.214 226.929C642.156 228.103 640.896 229.053 639.433 229.781C637.974 230.509 636.436 231.053 634.821 231.411L635.466 236.838L630.771 237.395L630.122 231.942C628.331 231.988 626.677 231.812 625.165 231.418C623.651 231.025 622.326 230.421 621.193 229.61C620.06 228.799 619.134 227.789 618.421 226.577C617.708 225.364 617.257 223.955 617.065 222.346C616.855 220.575 616.982 219.002 617.449 217.632C617.915 216.261 618.652 215.021 619.658 213.909C620.664 212.798 621.906 211.777 623.381 210.842C624.856 209.907 626.508 208.972 628.333 208.031C629.464 207.454 630.402 206.91 631.149 206.404C631.899 205.899 632.487 205.384 632.912 204.861C633.34 204.337 633.62 203.791 633.75 203.218C633.882 202.646 633.908 202.024 633.828 201.348C633.747 200.672 633.574 200.053 633.309 199.49C633.042 198.928 632.676 198.459 632.212 198.076C631.748 197.695 631.18 197.421 630.511 197.25C629.842 197.079 629.065 197.045 628.178 197.151C626.544 197.345 625.305 198.045 624.457 199.247C623.612 200.449 623.319 202.148 623.581 204.34L615.045 205.353C614.827 203.526 614.895 201.845 615.24 200.312C615.587 198.778 616.178 197.415 617.016 196.224C617.853 195.032 618.921 194.014 620.218 193.175C621.517 192.335 622.997 191.706 624.664 191.286L623.959 185.338L628.683 184.779L629.381 190.644C631.173 190.597 632.816 190.789 634.315 191.211C635.814 191.636 637.131 192.263 638.267 193.092C639.402 193.921 640.323 194.941 641.025 196.156C641.728 197.371 642.171 198.755 642.355 200.306C642.568 202.096 642.441 203.679 641.974 205.05C641.508 206.42 640.771 207.656 639.765 208.759C638.759 209.86 637.512 210.876 636.024 211.803C634.538 212.73 632.868 213.645 631.02 214.552C629.944 215.067 629.039 215.575 628.31 216.067C627.581 216.562 626.998 217.075 626.562 217.608C626.127 218.142 625.836 218.715 625.689 219.323C625.541 219.935 625.512 220.621 625.606 221.391C625.686 222.067 625.878 222.678 626.184 223.227L626.181 223.219Z" fill="#FFA412"/>
<path d="M599.117 361.379C599.117 361.379 602.522 369.224 610.381 367.781C610.381 367.781 626.417 354.548 637.419 340.803C640.992 336.337 644.033 331.819 645.822 327.685C653.116 310.81 672.806 285.643 685.324 272.887L654.005 261.567C654.005 261.567 643.973 281.729 630.625 306.494C621.006 324.338 609.667 344.572 599.12 361.379H599.117Z" fill="#2B478B"/>
<path d="M630.623 306.494L637.419 340.803C640.992 336.337 644.033 331.819 645.822 327.685C653.116 310.81 672.806 285.643 685.324 272.887L654.005 261.567C654.005 261.567 643.974 281.729 630.626 306.494H630.623Z" fill="#233862"/>
<path d="M656.225 368.058C656.225 368.058 656.567 374.316 648.973 375.151C648.973 375.151 644.632 375.174 644.622 379.156L666.695 379.226C666.695 379.226 667.335 377.619 667.491 374.177C667.61 371.534 664.927 364.625 664.927 364.625L656.228 368.055L656.225 368.058Z" fill="#233862"/>
<path d="M664.275 261.567C664.275 261.567 650.323 276.885 641.466 304.481C636.646 319.496 650.297 357.248 652.96 370.363C652.96 370.363 662.118 371.14 668.38 368.721C668.38 368.721 668.857 341.629 665.193 320.75C663.145 309.064 683.564 295.759 692.488 274.644C698.558 260.279 691.174 260.523 682.099 260.178L664.278 261.567H664.275Z" fill="#2B478B"/>
<path d="M680.382 193.229C688.145 197.61 704.037 193.568 704.037 193.568C704.037 193.568 697.583 186.196 700.516 174.324L694.42 177.417L687.873 180.738C687.873 180.738 687.451 182.833 687.155 186.6C687.08 187.569 687.012 188.654 686.966 189.838C682.98 191.045 680.38 193.227 680.38 193.227L680.382 193.229Z" fill="#FFB07B"/>
<path d="M651.915 260.777C651.915 262.139 653.486 262.792 653.821 262.86C656.953 263.432 665.693 266.828 673.57 267.608C680.203 268.302 686.358 267.644 693.123 266.287C694.02 266.105 696.12 265.541 696.271 264.683C696.457 263.746 722.36 211.925 702.224 189.662C701.752 189.139 697.777 190.082 694.142 190.942C690.784 191.737 687.707 191.294 684.956 190.19L681.546 191.983C677.359 194.315 669.437 202.594 668.512 209.091C668.04 212.396 666.15 214.842 665.603 217.748C665.4 218.823 665.193 219.875 664.98 220.898C664.568 222.906 664.143 224.815 663.705 226.634C662.52 231.548 661.27 235.778 660.044 239.434C658.737 243.314 657.456 246.542 656.31 249.241C654.824 252.744 653.572 255.36 652.786 257.362C652.231 258.774 651.915 259.88 651.915 260.777Z" fill="#D2E3FC"/>
<path d="M652.786 257.362C689.353 240.151 702.016 207.099 702.016 207.099C702.016 207.099 672.308 218.049 664.98 220.898C664.568 222.906 664.143 224.815 663.705 226.634C662.52 231.548 661.27 235.778 660.043 239.434C658.737 243.314 657.456 246.542 656.31 249.241C654.824 252.744 653.572 255.36 652.786 257.362Z" fill="#A4C8FC"/>
<path d="M631.393 247.386L628.233 248.544C628.233 248.544 621.906 244.073 617.965 251.345C617.965 251.345 616.539 254.521 618.795 255.21C621.051 255.899 620.231 255.251 623.4 256.306C626.571 257.36 629.693 256.601 630.89 254.337L633.037 252.762L631.388 247.386H631.393Z" fill="#FFB07B"/>
<path d="M628.793 251.852C627.623 248.806 627.092 247.428 627.092 247.428C627.092 247.428 650.967 227.983 653.401 226.315C655.058 225.178 671.564 212.852 679.61 203.247C683.6 198.483 689.896 196.304 695.981 197.579L700.993 198.628C707.045 199.894 709.01 207.549 704.317 211.57C691.096 222.896 668.795 236.03 664.636 238.763C654.314 245.545 631.481 255.049 631.481 255.049C631.481 255.049 629.711 254.241 628.793 251.85V251.852Z" fill="#D2E3FC"/>
<path d="M687.157 186.603C694.791 187.03 699.756 180.735 699.756 180.735C699.756 180.735 696.305 178.826 694.422 177.419L687.875 180.74C687.875 180.74 687.453 182.836 687.157 186.603Z" fill="#EA8E50"/>
<path d="M683.903 178.771C683.903 178.771 695.47 187.064 700.528 179.79C705.587 172.513 710.487 168.684 703.316 163.081C696.144 157.477 692.763 159.249 690.484 161.267C688.204 163.285 681.025 176.43 683.903 178.774V178.771Z" fill="#FFB07B"/>
<path d="M689.263 154.695C689.677 151.897 690.611 149.931 690.611 149.931C690.611 149.931 691.337 152.936 696.831 152.522C702.325 152.107 711.035 153.061 713.939 159.317C714.123 159.716 714.289 160.125 714.434 160.545C714.96 159.159 715.085 157.078 715.085 157.078C716.13 159.773 715.085 163.14 715.085 163.14C715.1 163.239 715.113 163.337 715.129 163.436C716.342 164.459 717.361 167.645 717.361 167.645C716.996 166.757 716.101 166.176 715.308 165.821C715.331 170.689 713.355 175.448 709.889 176.865C704.817 178.937 704.859 177.357 699.756 180.735C699.756 180.735 698.387 179.038 699.32 177.898C700.254 176.759 703.777 175.101 701.809 173.445C699.839 171.787 699.113 173.653 698.387 172.513C697.661 171.373 701.291 168.06 696.624 164.951C691.959 161.842 688.848 157.493 689.263 154.695Z" fill="#233862"/>
<path d="M191.237 372.785V377.298C191.237 377.658 191.107 377.992 190.882 378.27C190.646 378.562 190.306 378.793 189.91 378.92C189.788 378.961 189.661 378.99 189.531 379.008C189.412 379.026 189.29 379.036 189.165 379.036H103.464C102.36 379.036 101.45 378.301 101.393 377.386C101.393 377.358 101.393 377.327 101.393 377.298V372.785C101.393 372.754 101.393 372.726 101.393 372.695C101.45 371.78 102.36 371.045 103.464 371.045H189.163C189.287 371.045 189.409 371.055 189.528 371.073C189.658 371.091 189.785 371.122 189.907 371.161C190.304 371.291 190.643 371.519 190.879 371.811C191.105 372.089 191.235 372.423 191.235 372.783L191.237 372.785Z" fill="#FFB93E"/>
<path d="M149.156 379.039H103.244C102.259 379.039 101.445 378.303 101.396 377.389C101.396 377.36 101.396 377.329 101.396 377.301V372.788C101.396 372.757 101.396 372.729 101.396 372.697C101.445 371.783 102.259 371.047 103.244 371.047H143.519C144.162 373.399 145.66 376.656 149.156 379.042V379.039Z" fill="#FFA412"/>
<path d="M180.808 371.047H179.833V379.042H180.808V371.047Z" fill="#FFA412"/>
<path d="M177.513 371.047H176.538V379.042H177.513V371.047Z" fill="#FFA412"/>
<path d="M173.559 371.047H172.584V379.042H173.559V371.047Z" fill="#FFA412"/>
<path d="M167.499 371.047H166.524V379.042H167.499V371.047Z" fill="#FFA412"/>
<path d="M161.09 371.047H160.115V379.042H161.09V371.047Z" fill="#FFA412"/>
<path d="M151.265 371.047H150.29V379.042H151.265V371.047Z" fill="#FFA412"/>
<path d="M142.066 371.047H141.091V379.042H142.066V371.047Z" fill="#FFA412"/>
<path d="M133.852 371.047H132.877V379.042H133.852V371.047Z" fill="#FFA412"/>
<path d="M183.949 371.047H182.974V379.042H183.949V371.047Z" fill="#FFA412"/>
<path d="M186.02 371.047H185.045V379.042H186.02V371.047Z" fill="#FFA412"/>
<path d="M188.022 371.047H187.047V379.042H188.022V371.047Z" fill="#FFA412"/>
<path d="M189.528 371.076V379.013C189.408 379.031 189.287 379.042 189.162 379.042H188.553V371.047H189.162C189.287 371.047 189.408 371.058 189.528 371.076Z" fill="#FFA412"/>
<path d="M190.881 371.814V378.27C190.646 378.562 190.306 378.793 189.909 378.92V371.161C190.306 371.291 190.646 371.519 190.881 371.811V371.814Z" fill="#FFA412"/>
<path d="M182.074 364.794V369.306C182.074 369.666 181.945 370.001 181.719 370.278C181.483 370.571 181.144 370.801 180.747 370.928C180.625 370.97 180.498 370.998 180.368 371.016C180.249 371.034 180.127 371.045 180.003 371.045H94.3041C93.1995 371.045 92.2895 370.309 92.2324 369.394C92.2324 369.363 92.2324 369.335 92.2324 369.306V364.794C92.2324 364.763 92.2324 364.734 92.2324 364.703C92.2895 363.789 93.1995 363.053 94.3041 363.053H180.003C180.057 363.053 180.112 363.053 180.166 363.058C180.189 363.058 180.213 363.061 180.236 363.063C180.262 363.063 180.288 363.068 180.314 363.071C180.332 363.071 180.35 363.076 180.368 363.079C180.498 363.097 180.628 363.128 180.747 363.169C180.765 363.175 180.783 363.18 180.801 363.188C180.819 363.193 180.838 363.201 180.853 363.206C180.887 363.219 180.923 363.234 180.957 363.247C180.978 363.255 180.996 363.265 181.016 363.276C181.035 363.283 181.053 363.291 181.068 363.302C181.102 363.317 181.133 363.335 181.167 363.353C181.203 363.374 181.239 363.397 181.273 363.421C181.302 363.439 181.328 363.457 181.354 363.475C181.354 363.475 181.356 363.475 181.359 363.48C181.377 363.493 181.395 363.506 181.411 363.519C181.462 363.561 181.514 363.605 181.561 363.649C181.577 363.662 181.589 363.675 181.602 363.69C181.615 363.703 181.628 363.719 181.641 363.732C181.667 363.76 181.693 363.791 181.719 363.82C181.945 364.097 182.074 364.431 182.074 364.791V364.794Z" fill="#FFB93E"/>
<path d="M139.993 371.047H94.0811C93.0932 371.047 92.2817 370.312 92.2324 369.397C92.2324 369.366 92.2324 369.338 92.2324 369.309V364.796C92.2324 364.765 92.2324 364.737 92.2324 364.706C92.2817 363.791 93.0932 363.056 94.0811 363.056H134.353C134.371 363.12 134.389 363.185 134.41 363.252C135.082 365.586 136.593 368.729 139.993 371.047Z" fill="#FFA412"/>
<path d="M171.646 363.053H170.671V371.047H171.646V363.053Z" fill="#FFA412"/>
<path d="M168.35 363.053H167.375V371.047H168.35V363.053Z" fill="#FFA412"/>
<path d="M164.396 363.053H163.421V371.047H164.396V363.053Z" fill="#FFA412"/>
<path d="M158.336 363.053H157.361V371.047H158.336V363.053Z" fill="#FFA412"/>
<path d="M151.927 363.053H150.952V371.047H151.927V363.053Z" fill="#FFA412"/>
<path d="M142.103 363.053H141.128V371.047H142.103V363.053Z" fill="#FFA412"/>
<path d="M132.904 363.053H131.929V371.047H132.904V363.053Z" fill="#FFA412"/>
<path d="M124.692 363.053H123.717V371.047H124.692V363.053Z" fill="#FFA412"/>
<path d="M174.785 363.053H173.811V371.047H174.785V363.053Z" fill="#FFA412"/>
<path d="M176.857 363.053H175.882V371.047H176.857V363.053Z" fill="#FFA412"/>
<path d="M178.859 363.053H177.884V371.047H178.859V363.053Z" fill="#FFA412"/>
<path d="M180.366 363.081V371.019C180.246 371.037 180.124 371.047 180 371.047H179.391V363.053H180C180.124 363.053 180.246 363.063 180.366 363.081Z" fill="#FFA412"/>
<path d="M181.718 363.822V370.278C181.482 370.571 181.143 370.801 180.746 370.928V363.169C181.143 363.299 181.482 363.527 181.718 363.82V363.822Z" fill="#FFA412"/>
<path d="M186.503 356.996V361.509C186.503 361.869 186.373 362.203 186.148 362.48C185.912 362.773 185.572 363.004 185.175 363.131C185.053 363.172 184.926 363.201 184.797 363.219C184.677 363.237 184.556 363.247 184.431 363.247H98.7299C98.385 363.247 98.0609 363.177 97.7731 363.05C97.1664 362.783 96.7334 362.273 96.666 361.675C96.6634 361.649 96.6608 361.623 96.6582 361.597C96.6582 361.569 96.6582 361.537 96.6582 361.509V356.996C96.6582 356.965 96.6582 356.937 96.6582 356.906C96.7152 355.991 97.6253 355.255 98.7299 355.255H184.428C184.553 355.255 184.675 355.266 184.794 355.284C184.924 355.302 185.051 355.333 185.173 355.375C185.569 355.504 185.909 355.732 186.145 356.025C186.37 356.302 186.5 356.636 186.5 356.996H186.503Z" fill="#FFB93E"/>
<path d="M144.418 363.25H98.5069C98.2009 363.25 97.9105 363.18 97.6539 363.053C97.1119 362.786 96.7256 362.276 96.666 361.677C96.6634 361.652 96.6608 361.626 96.6582 361.6C96.6582 361.571 96.6582 361.54 96.6582 361.512V356.999C96.6582 356.968 96.6582 356.939 96.6582 356.908C96.7075 355.994 97.5216 355.258 98.5069 355.258H138.781C139.406 357.546 140.843 360.688 144.138 363.053C144.232 363.12 144.325 363.185 144.421 363.25H144.418Z" fill="#FFA412"/>
<path d="M176.074 355.258H175.099V363.252H176.074V355.258Z" fill="#FFA412"/>
<path d="M172.779 355.258H171.804V363.252H172.779V355.258Z" fill="#FFA412"/>
<path d="M168.825 355.258H167.85V363.252H168.825V355.258Z" fill="#FFA412"/>
<path d="M162.762 355.258H161.787V363.252H162.762V355.258Z" fill="#FFA412"/>
<path d="M156.356 355.258H155.381V363.252H156.356V355.258Z" fill="#FFA412"/>
<path d="M146.531 355.258H145.556V363.252H146.531V355.258Z" fill="#FFA412"/>
<path d="M137.331 355.258H136.356V363.252H137.331V355.258Z" fill="#FFA412"/>
<path d="M129.117 355.258H128.143V363.252H129.117V355.258Z" fill="#FFA412"/>
<path d="M179.211 355.258H178.236V363.252H179.211V355.258Z" fill="#FFA412"/>
<path d="M181.285 355.258H180.311V363.252H181.285V355.258Z" fill="#FFA412"/>
<path d="M183.287 355.258H182.312V363.252H183.287V355.258Z" fill="#FFA412"/>
<path d="M184.793 355.284V363.221C184.674 363.239 184.552 363.25 184.428 363.25H183.818V355.255H184.428C184.552 355.255 184.674 355.266 184.793 355.284Z" fill="#FFA412"/>
<path d="M186.147 356.025V362.48C185.911 362.773 185.572 363.004 185.175 363.131V355.372C185.572 355.502 185.911 355.73 186.147 356.022V356.025Z" fill="#FFA412"/>
<path d="M188.554 349.005V353.52C188.554 353.88 188.424 354.214 188.199 354.491C187.963 354.784 187.623 355.015 187.226 355.141C187.104 355.183 186.977 355.211 186.848 355.232C186.728 355.25 186.607 355.261 186.482 355.261H100.784C99.679 355.261 98.769 354.525 98.7119 353.61C98.7119 353.579 98.7119 353.551 98.7119 353.522V349.007C98.7119 348.976 98.7119 348.948 98.7119 348.919C98.7638 348.072 99.5468 347.38 100.537 347.282C100.618 347.274 100.698 347.269 100.784 347.269H186.482C186.607 347.269 186.728 347.279 186.848 347.297C186.977 347.316 187.104 347.347 187.226 347.388C187.623 347.518 187.963 347.746 188.199 348.038C188.424 348.315 188.554 348.65 188.554 349.01V349.005Z" fill="#FFB93E"/>
<path d="M146.472 355.258H100.561C99.5753 355.258 98.7612 354.522 98.7119 353.608C98.7119 353.577 98.7119 353.548 98.7119 353.52V349.005C98.7119 348.974 98.7119 348.945 98.7119 348.917C98.7586 348.069 99.4561 347.378 100.343 347.279C100.413 347.272 100.488 347.266 100.561 347.266H140.835C140.835 347.266 140.835 347.274 140.838 347.279C141.483 349.632 142.982 352.877 146.472 355.261V355.258Z" fill="#FFA412"/>
<path d="M178.128 347.264H177.153V355.255H178.128V347.264Z" fill="#FFA412"/>
<path d="M174.83 347.264H173.855V355.255H174.83V347.264Z" fill="#FFA412"/>
<path d="M170.876 347.264H169.901V355.255H170.876V347.264Z" fill="#FFA412"/>
<path d="M164.817 347.264H163.842V355.255H164.817V347.264Z" fill="#FFA412"/>
<path d="M158.409 347.264H157.435V355.255H158.409V347.264Z" fill="#FFA412"/>
<path d="M148.583 347.264H147.608V355.255H148.583V347.264Z" fill="#FFA412"/>
<path d="M139.386 347.264H138.411V355.255H139.386V347.264Z" fill="#FFA412"/>
<path d="M131.172 347.264H130.197V355.255H131.172V347.264Z" fill="#FFA412"/>
<path d="M181.266 347.264H180.291V355.255H181.266V347.264Z" fill="#FFA412"/>
<path d="M183.34 347.264H182.365V355.255H183.34V347.264Z" fill="#FFA412"/>
<path d="M185.342 347.264H184.367V355.255H185.342V347.264Z" fill="#FFA412"/>
<path d="M186.848 347.292V355.23C186.729 355.248 186.607 355.258 186.482 355.258H185.873V347.264H186.482C186.607 347.264 186.729 347.274 186.848 347.292Z" fill="#FFA412"/>
<path d="M188.199 348.033V354.489C187.963 354.781 187.623 355.012 187.227 355.139V347.38C187.623 347.51 187.963 347.738 188.199 348.031V348.033Z" fill="#FFA412"/>
<path d="M182.253 341.023V345.536C182.253 345.896 182.123 346.23 181.898 346.507C181.662 346.8 181.322 347.031 180.926 347.158C180.804 347.199 180.677 347.227 180.547 347.246C180.508 347.251 180.467 347.256 180.428 347.261C180.407 347.261 180.384 347.264 180.36 347.266C180.34 347.266 180.316 347.269 180.293 347.269C180.257 347.269 180.22 347.272 180.184 347.272H94.4828C93.3783 347.272 92.4682 346.536 92.4111 345.621C92.4111 345.59 92.4111 345.562 92.4111 345.533V341.021C92.4111 340.99 92.4111 340.961 92.4111 340.93C92.4111 340.904 92.4137 340.881 92.4163 340.857C92.4993 340.122 93.1371 339.513 93.9694 339.334C93.9902 339.329 94.0109 339.326 94.0317 339.321C94.1769 339.295 94.3272 339.28 94.4802 339.28H180.179C180.241 339.28 180.303 339.282 180.365 339.288C180.394 339.29 180.42 339.293 180.448 339.295C180.48 339.298 180.513 339.303 180.544 339.308C180.674 339.326 180.801 339.357 180.923 339.399C181.32 339.528 181.659 339.756 181.895 340.049C182.121 340.326 182.25 340.661 182.25 341.021L182.253 341.023Z" fill="#FFB93E"/>
<path d="M140.171 347.277H94.2598C93.2746 347.277 92.4604 346.541 92.4111 345.627C92.4111 345.595 92.4111 345.567 92.4111 345.538V341.026C92.4111 340.995 92.4111 340.966 92.4111 340.935C92.4111 340.909 92.4137 340.886 92.4163 340.863C92.4915 340.109 93.0827 339.492 93.8528 339.329C93.8787 339.321 93.9046 339.316 93.9331 339.313C94.0394 339.295 94.1483 339.285 94.2598 339.285H134.534C134.54 339.303 134.545 339.321 134.55 339.342C135.201 341.686 136.699 344.901 140.153 347.266C140.158 347.269 140.166 347.274 140.171 347.279V347.277Z" fill="#FFA412"/>
<path d="M171.827 339.282H170.853V347.277H171.827V339.282Z" fill="#FFA412"/>
<path d="M168.53 339.282H167.555V347.277H168.53V339.282Z" fill="#FFA412"/>
<path d="M164.575 339.282H163.601V347.277H164.575V339.282Z" fill="#FFA412"/>
<path d="M158.516 339.282H157.541V347.277H158.516V339.282Z" fill="#FFA412"/>
<path d="M152.11 339.282H151.135V347.277H152.11V339.282Z" fill="#FFA412"/>
<path d="M142.284 339.282H141.31V347.277H142.284V339.282Z" fill="#FFA412"/>
<path d="M133.085 339.282H132.11V347.277H133.085V339.282Z" fill="#FFA412"/>
<path d="M124.871 339.282H123.896V347.277H124.871V339.282Z" fill="#FFA412"/>
<path d="M174.965 339.282H173.99V347.277H174.965V339.282Z" fill="#FFA412"/>
<path d="M177.039 339.282H176.064V347.277H177.039V339.282Z" fill="#FFA412"/>
<path d="M179.041 339.282H178.066V347.277H179.041V339.282Z" fill="#FFA412"/>
<path d="M180.547 339.311V347.248C180.428 347.266 180.306 347.277 180.182 347.277H179.572V339.282H180.182C180.306 339.282 180.428 339.293 180.547 339.311Z" fill="#FFA412"/>
<path d="M181.898 340.052V346.507C181.662 346.8 181.322 347.031 180.926 347.158V339.399C181.322 339.528 181.662 339.756 181.898 340.049V340.052Z" fill="#FFA412"/>
<path d="M182.075 333.086V337.599C182.075 337.959 181.945 338.293 181.719 338.57C181.484 338.863 181.144 339.093 180.747 339.22C180.651 339.251 180.553 339.277 180.452 339.295C180.423 339.3 180.397 339.306 180.371 339.311C180.252 339.329 180.13 339.339 180.006 339.339H94.3044C94.2137 339.339 94.1229 339.334 94.0374 339.324C94.0037 339.321 93.9674 339.316 93.9363 339.311C93.0054 339.171 92.2846 338.5 92.2354 337.689C92.2354 337.658 92.2354 337.63 92.2354 337.601V333.088C92.2354 333.057 92.2354 333.029 92.2354 332.998C92.2924 332.083 93.2025 331.348 94.307 331.348H180.006C180.06 331.348 180.114 331.348 180.169 331.353C180.192 331.353 180.216 331.355 180.239 331.358C180.265 331.358 180.291 331.363 180.317 331.366C180.335 331.366 180.353 331.371 180.371 331.374C180.501 331.392 180.63 331.423 180.75 331.464C180.768 331.469 180.786 331.475 180.804 331.482C180.822 331.487 180.84 331.495 180.856 331.5C180.892 331.513 180.926 331.529 180.96 331.542C180.999 331.56 181.035 331.576 181.071 331.596C181.105 331.612 181.136 331.63 181.17 331.648C181.206 331.669 181.242 331.692 181.276 331.715C181.305 331.734 181.331 331.752 181.356 331.77C181.356 331.77 181.359 331.77 181.362 331.775C181.38 331.788 181.398 331.801 181.413 331.814C181.465 331.855 181.517 331.899 181.564 331.943C181.579 331.956 181.592 331.969 181.605 331.985C181.618 332 181.631 332.013 181.644 332.026C181.67 332.055 181.696 332.086 181.722 332.114C181.948 332.392 182.077 332.726 182.077 333.086H182.075Z" fill="#FFB93E"/>
<path d="M139.993 339.339H94.0811C94.0448 339.339 94.0085 339.339 93.9722 339.337C93.9333 339.337 93.8918 339.332 93.8529 339.326C92.9714 339.225 92.2765 338.534 92.2324 337.689C92.2324 337.658 92.2324 337.63 92.2324 337.601V333.088C92.2324 333.057 92.2324 333.029 92.2324 332.998C92.2817 332.083 93.0932 331.348 94.0811 331.348H134.353C134.371 331.412 134.389 331.477 134.41 331.544C135.077 333.86 136.567 336.969 139.91 339.285C139.938 339.303 139.964 339.321 139.993 339.342V339.339Z" fill="#FFA412"/>
<path d="M171.646 331.348H170.671V339.339H171.646V331.348Z" fill="#FFA412"/>
<path d="M168.35 331.348H167.375V339.339H168.35V331.348Z" fill="#FFA412"/>
<path d="M164.396 331.348H163.421V339.339H164.396V331.348Z" fill="#FFA412"/>
<path d="M158.336 331.348H157.361V339.339H158.336V331.348Z" fill="#FFA412"/>
<path d="M151.927 331.348H150.952V339.339H151.927V331.348Z" fill="#FFA412"/>
<path d="M142.103 331.348H141.128V339.339H142.103V331.348Z" fill="#FFA412"/>
<path d="M132.904 331.348H131.929V339.339H132.904V331.348Z" fill="#FFA412"/>
<path d="M124.692 331.348H123.717V339.339H124.692V331.348Z" fill="#FFA412"/>
<path d="M174.785 331.348H173.811V339.339H174.785V331.348Z" fill="#FFA412"/>
<path d="M176.857 331.348H175.882V339.339H176.857V331.348Z" fill="#FFA412"/>
<path d="M178.859 331.348H177.884V339.339H178.859V331.348Z" fill="#FFA412"/>
<path d="M180.366 331.376V339.313C180.246 339.332 180.124 339.342 180 339.342H179.391V331.348H180C180.124 331.348 180.246 331.358 180.366 331.376Z" fill="#FFA412"/>
<path d="M181.718 332.114V338.57C181.482 338.863 181.143 339.093 180.746 339.22V331.462C181.143 331.591 181.482 331.819 181.718 332.112V332.114Z" fill="#FFA412"/>
<path d="M186.503 325.291V329.804C186.503 330.164 186.373 330.498 186.148 330.775C185.912 331.068 185.572 331.298 185.175 331.425C185.053 331.467 184.926 331.495 184.797 331.513C184.677 331.532 184.556 331.542 184.431 331.542H98.7299C98.385 331.542 98.0609 331.472 97.7731 331.345C97.1664 331.078 96.7334 330.568 96.666 329.969C96.6634 329.944 96.6608 329.918 96.6582 329.892C96.6582 329.863 96.6582 329.832 96.6582 329.804V325.291C96.6582 325.26 96.6582 325.231 96.6582 325.2C96.7152 324.286 97.6253 323.55 98.7299 323.55H184.428C184.553 323.55 184.675 323.56 184.794 323.579C184.924 323.597 185.051 323.628 185.173 323.669C185.569 323.799 185.909 324.027 186.145 324.32C186.37 324.597 186.5 324.931 186.5 325.291H186.503Z" fill="#FFB93E"/>
<path d="M144.418 331.545H98.5069C98.2009 331.545 97.9105 331.475 97.6539 331.348C97.1119 331.081 96.7256 330.571 96.666 329.972C96.6634 329.946 96.6608 329.92 96.6582 329.894C96.6582 329.866 96.6582 329.835 96.6582 329.806V325.294C96.6582 325.263 96.6582 325.234 96.6582 325.203C96.7075 324.288 97.5216 323.553 98.5069 323.553H138.781C139.406 325.84 140.843 328.982 144.138 331.348C144.232 331.415 144.325 331.48 144.421 331.545H144.418Z" fill="#FFA412"/>
<path d="M176.074 323.55H175.099V331.544H176.074V323.55Z" fill="#FFA412"/>
<path d="M172.779 323.55H171.804V331.544H172.779V323.55Z" fill="#FFA412"/>
<path d="M168.825 323.55H167.85V331.544H168.825V323.55Z" fill="#FFA412"/>
<path d="M162.762 323.55H161.787V331.544H162.762V323.55Z" fill="#FFA412"/>
<path d="M156.356 323.55H155.381V331.544H156.356V323.55Z" fill="#FFA412"/>
<path d="M146.531 323.55H145.556V331.544H146.531V323.55Z" fill="#FFA412"/>
<path d="M137.331 323.55H136.356V331.544H137.331V323.55Z" fill="#FFA412"/>
<path d="M129.117 323.55H128.143V331.544H129.117V323.55Z" fill="#FFA412"/>
<path d="M179.211 323.55H178.236V331.544H179.211V323.55Z" fill="#FFA412"/>
<path d="M181.285 323.55H180.311V331.544H181.285V323.55Z" fill="#FFA412"/>
<path d="M183.287 323.55H182.312V331.544H183.287V323.55Z" fill="#FFA412"/>
<path d="M184.793 323.579V331.516C184.674 331.534 184.552 331.544 184.428 331.544H183.818V323.55H184.428C184.552 323.55 184.674 323.56 184.793 323.579Z" fill="#FFA412"/>
<path d="M186.147 324.32V330.775C185.911 331.068 185.572 331.298 185.175 331.425V323.667C185.572 323.796 185.911 324.024 186.147 324.317V324.32Z" fill="#FFA412"/>
<path d="M193.504 317.297V321.812C193.504 322.172 193.374 322.506 193.149 322.783C192.913 323.076 192.573 323.307 192.176 323.434C192.055 323.475 191.928 323.504 191.798 323.524C191.679 323.542 191.557 323.553 191.432 323.553H105.734C104.629 323.553 103.719 322.817 103.662 321.903C103.662 321.871 103.662 321.843 103.662 321.815V317.299C103.662 317.271 103.662 317.24 103.662 317.211C103.714 316.364 104.497 315.672 105.487 315.574C105.568 315.566 105.651 315.561 105.734 315.561H191.432C191.557 315.561 191.679 315.571 191.798 315.589C191.928 315.608 192.055 315.639 192.176 315.68C192.573 315.81 192.913 316.038 193.149 316.33C193.374 316.608 193.504 316.942 193.504 317.302V317.297Z" fill="#FFB93E"/>
<path d="M151.422 323.55H105.511C104.526 323.55 103.711 322.814 103.662 321.9C103.662 321.869 103.662 321.84 103.662 321.812V317.297C103.662 317.268 103.662 317.237 103.662 317.209C103.709 316.362 104.406 315.67 105.293 315.571C105.363 315.564 105.438 315.558 105.511 315.558H145.785C145.785 315.558 145.785 315.566 145.788 315.571C146.434 317.924 147.932 321.17 151.422 323.553V323.55Z" fill="#FFA412"/>
<path d="M183.077 315.558H182.103V323.553H183.077V315.558Z" fill="#FFA412"/>
<path d="M179.783 315.558H178.808V323.553H179.783V315.558Z" fill="#FFA412"/>
<path d="M175.828 315.558H174.854V323.553H175.828V315.558Z" fill="#FFA412"/>
<path d="M169.769 315.558H168.794V323.553H169.769V315.558Z" fill="#FFA412"/>
<path d="M163.36 315.558H162.385V323.553H163.36V315.558Z" fill="#FFA412"/>
<path d="M153.534 315.558H152.56V323.553H153.534V315.558Z" fill="#FFA412"/>
<path d="M144.335 315.558H143.36V323.553H144.335V315.558Z" fill="#FFA412"/>
<path d="M136.121 315.558H135.146V323.553H136.121V315.558Z" fill="#FFA412"/>
<path d="M186.218 315.558H185.243V323.553H186.218V315.558Z" fill="#FFA412"/>
<path d="M188.289 315.558H187.314V323.553H188.289V315.558Z" fill="#FFA412"/>
<path d="M190.291 315.558H189.316V323.553H190.291V315.558Z" fill="#FFA412"/>
<path d="M191.797 315.584V323.522C191.678 323.54 191.556 323.55 191.432 323.55H190.822V315.556H191.432C191.556 315.556 191.678 315.566 191.797 315.584Z" fill="#FFA412"/>
<path d="M193.151 316.325V322.781C192.915 323.073 192.575 323.304 192.179 323.431V315.672C192.575 315.802 192.915 316.03 193.151 316.323V316.325Z" fill="#FFA412"/>
<path d="M182.253 309.318V313.831C182.253 314.191 182.123 314.525 181.898 314.802C181.662 315.095 181.322 315.325 180.926 315.452C180.804 315.494 180.677 315.522 180.547 315.54C180.508 315.545 180.467 315.551 180.428 315.556C180.397 315.558 180.363 315.561 180.332 315.564C180.316 315.564 180.301 315.564 180.283 315.566C180.249 315.566 180.215 315.566 180.181 315.566H94.4828C93.3783 315.566 92.4682 314.83 92.4111 313.916C92.4111 313.885 92.4111 313.856 92.4111 313.828V309.315C92.4111 309.284 92.4111 309.256 92.4111 309.225C92.4682 308.31 93.3783 307.574 94.4828 307.574H180.181C180.218 307.574 180.254 307.574 180.29 307.577C180.378 307.582 180.461 307.59 180.547 307.603C180.677 307.621 180.804 307.652 180.926 307.694C180.988 307.714 181.047 307.735 181.104 307.761C181.141 307.777 181.177 307.792 181.211 307.81C181.213 307.81 181.219 307.813 181.221 307.815C181.257 307.833 181.291 307.852 181.325 307.87C181.333 307.872 181.338 307.878 181.343 307.88C181.374 307.898 181.405 307.916 181.436 307.937C181.509 307.984 181.579 308.033 181.644 308.087C181.664 308.103 181.683 308.121 181.703 308.139C181.706 308.142 181.711 308.144 181.714 308.15C181.727 308.16 181.737 308.17 181.75 308.183C181.75 308.183 181.755 308.188 181.758 308.191C181.779 308.212 181.799 308.232 181.817 308.256C181.846 308.287 181.875 308.318 181.9 308.349C182.126 308.626 182.256 308.96 182.256 309.32L182.253 309.318Z" fill="#FFB93E"/>
<path d="M140.171 315.571H94.2598C93.2746 315.571 92.4604 314.836 92.4111 313.921C92.4111 313.89 92.4111 313.862 92.4111 313.833V309.32C92.4111 309.289 92.4111 309.261 92.4111 309.23C92.4604 308.315 93.2746 307.58 94.2598 307.58H134.534C134.55 307.639 134.568 307.701 134.586 307.764C135.255 310.095 136.762 313.237 140.153 315.558C140.158 315.561 140.166 315.566 140.171 315.571Z" fill="#FFA412"/>
<path d="M171.827 307.577H170.853V315.571H171.827V307.577Z" fill="#FFA412"/>
<path d="M168.53 307.577H167.555V315.571H168.53V307.577Z" fill="#FFA412"/>
<path d="M164.575 307.577H163.601V315.571H164.575V307.577Z" fill="#FFA412"/>
<path d="M158.516 307.577H157.541V315.571H158.516V307.577Z" fill="#FFA412"/>
<path d="M152.11 307.577H151.135V315.571H152.11V307.577Z" fill="#FFA412"/>
<path d="M142.284 307.577H141.31V315.571H142.284V307.577Z" fill="#FFA412"/>
<path d="M133.085 307.577H132.11V315.571H133.085V307.577Z" fill="#FFA412"/>
<path d="M124.871 307.577H123.896V315.571H124.871V307.577Z" fill="#FFA412"/>
<path d="M174.965 307.577H173.99V315.571H174.965V307.577Z" fill="#FFA412"/>
<path d="M177.039 307.577H176.064V315.571H177.039V307.577Z" fill="#FFA412"/>
<path d="M179.041 307.577H178.066V315.571H179.041V307.577Z" fill="#FFA412"/>
<path d="M180.547 307.606V315.543C180.428 315.561 180.306 315.571 180.182 315.571H179.572V307.577H180.182C180.306 307.577 180.428 307.587 180.547 307.606Z" fill="#FFA412"/>
<path d="M181.898 308.346V314.802C181.662 315.095 181.322 315.325 180.926 315.452V307.694C181.322 307.823 181.662 308.051 181.898 308.344V308.346Z" fill="#FFA412"/>
<path d="M188.554 301.508V306.023C188.554 306.383 188.425 306.717 188.199 306.994C187.963 307.287 187.623 307.518 187.227 307.645C187.105 307.686 186.978 307.715 186.848 307.735C186.729 307.753 186.607 307.764 186.482 307.764H100.784C100.452 307.764 100.136 307.696 99.8583 307.58C99.2334 307.318 98.7874 306.795 98.72 306.186C98.72 306.163 98.7148 306.139 98.7148 306.116C98.7148 306.085 98.7148 306.057 98.7148 306.028V301.513C98.7148 301.482 98.7148 301.453 98.7148 301.425C98.7667 300.578 99.5497 299.886 100.54 299.788C100.621 299.78 100.701 299.775 100.787 299.775H186.485C186.61 299.775 186.731 299.785 186.851 299.803C186.98 299.821 187.107 299.852 187.229 299.891C187.626 300.021 187.966 300.249 188.202 300.541C188.427 300.819 188.557 301.153 188.557 301.513L188.554 301.508Z" fill="#FFB93E"/>
<path d="M146.472 307.761H100.561C100.265 307.761 99.9824 307.694 99.7335 307.577C99.176 307.315 98.7767 306.792 98.7171 306.183C98.7171 306.16 98.7119 306.137 98.7119 306.113C98.7119 306.082 98.7119 306.054 98.7119 306.025V301.51C98.7119 301.479 98.7119 301.45 98.7119 301.422C98.7586 300.575 99.4561 299.883 100.343 299.785C100.413 299.777 100.488 299.772 100.561 299.772H140.835C140.835 299.772 140.835 299.78 140.838 299.785C141.465 302.077 142.907 305.217 146.208 307.58C146.293 307.642 146.381 307.704 146.472 307.764V307.761Z" fill="#FFA412"/>
<path d="M178.128 299.769H177.153V307.764H178.128V299.769Z" fill="#FFA412"/>
<path d="M174.83 299.769H173.855V307.764H174.83V299.769Z" fill="#FFA412"/>
<path d="M170.876 299.769H169.901V307.764H170.876V299.769Z" fill="#FFA412"/>
<path d="M164.817 299.769H163.842V307.764H164.817V299.769Z" fill="#FFA412"/>
<path d="M158.409 299.769H157.435V307.764H158.409V299.769Z" fill="#FFA412"/>
<path d="M148.583 299.769H147.608V307.764H148.583V299.769Z" fill="#FFA412"/>
<path d="M139.386 299.769H138.411V307.764H139.386V299.769Z" fill="#FFA412"/>
<path d="M131.172 299.769H130.197V307.764H131.172V299.769Z" fill="#FFA412"/>
<path d="M181.266 299.769H180.291V307.764H181.266V299.769Z" fill="#FFA412"/>
<path d="M183.34 299.769H182.365V307.764H183.34V299.769Z" fill="#FFA412"/>
<path d="M185.342 299.769H184.367V307.764H185.342V299.769Z" fill="#FFA412"/>
<path d="M186.848 299.795V307.732C186.729 307.751 186.607 307.761 186.482 307.761H185.873V299.767H186.482C186.607 299.767 186.729 299.777 186.848 299.795Z" fill="#FFA412"/>
<path d="M188.199 300.536V306.992C187.963 307.284 187.623 307.515 187.227 307.642V299.883C187.623 300.013 187.963 300.241 188.199 300.533V300.536Z" fill="#FFA412"/>
<path d="M191.237 293.526V298.041C191.237 298.401 191.107 298.736 190.882 299.013C190.646 299.306 190.306 299.536 189.91 299.663C189.788 299.704 189.661 299.733 189.531 299.754C189.492 299.759 189.451 299.764 189.412 299.769C189.391 299.769 189.368 299.772 189.344 299.774C189.324 299.774 189.3 299.777 189.277 299.777C189.241 299.777 189.204 299.78 189.168 299.78H103.464C102.36 299.78 101.45 299.044 101.393 298.129C101.393 298.098 101.393 298.07 101.393 298.041V293.526C101.393 293.495 101.393 293.466 101.393 293.438C101.45 292.524 102.36 291.788 103.464 291.788H189.163C189.287 291.788 189.409 291.798 189.528 291.816C189.658 291.834 189.785 291.866 189.907 291.907C190.304 292.037 190.643 292.264 190.879 292.557C191.105 292.834 191.235 293.169 191.235 293.529L191.237 293.526Z" fill="#FFB93E"/>
<path d="M149.156 299.78H103.244C102.259 299.78 101.445 299.044 101.396 298.129C101.396 298.098 101.396 298.07 101.396 298.041V293.526C101.396 293.495 101.396 293.466 101.396 293.438C101.445 292.524 102.259 291.788 103.244 291.788H143.519C144.162 294.137 145.655 297.383 149.137 299.769C149.143 299.772 149.15 299.777 149.156 299.782V299.78Z" fill="#FFA412"/>
<path d="M180.808 291.788H179.833V299.782H180.808V291.788Z" fill="#FFA412"/>
<path d="M177.513 291.788H176.538V299.782H177.513V291.788Z" fill="#FFA412"/>
<path d="M173.559 291.788H172.584V299.782H173.559V291.788Z" fill="#FFA412"/>
<path d="M167.499 291.788H166.524V299.782H167.499V291.788Z" fill="#FFA412"/>
<path d="M161.09 291.788H160.115V299.782H161.09V291.788Z" fill="#FFA412"/>
<path d="M151.265 291.788H150.29V299.782H151.265V291.788Z" fill="#FFA412"/>
<path d="M142.066 291.788H141.091V299.782H142.066V291.788Z" fill="#FFA412"/>
<path d="M133.852 291.788H132.877V299.782H133.852V291.788Z" fill="#FFA412"/>
<path d="M183.949 291.788H182.974V299.782H183.949V291.788Z" fill="#FFA412"/>
<path d="M186.02 291.788H185.045V299.782H186.02V291.788Z" fill="#FFA412"/>
<path d="M188.022 291.788H187.047V299.782H188.022V291.788Z" fill="#FFA412"/>
<path d="M189.528 291.816V299.754C189.408 299.772 189.287 299.782 189.162 299.782H188.553V291.788H189.162C189.287 291.788 189.408 291.798 189.528 291.816Z" fill="#FFA412"/>
<path d="M190.881 292.555V299.01C190.646 299.303 190.306 299.533 189.909 299.66V291.902C190.306 292.031 190.646 292.259 190.881 292.552V292.555Z" fill="#FFA412"/>
<path d="M125.221 367.141C141.127 351.25 141.127 325.486 125.221 309.594C109.316 293.703 83.5279 293.703 67.6225 309.594C51.7171 325.486 51.7171 351.25 67.6225 367.141C83.5279 383.032 109.316 383.032 125.221 367.141Z" fill="#E2810E"/>
<path d="M121.669 367.141C137.575 351.25 137.575 325.485 121.669 309.594C105.764 293.703 79.9762 293.703 64.0708 309.594C48.1654 325.485 48.1654 351.25 64.0708 367.141C79.9762 383.032 105.764 383.032 121.669 367.141Z" fill="#FFB93E"/>
<path d="M92.8705 375.923C82.958 375.923 73.6394 372.065 66.6309 365.063C59.6225 358.061 55.7617 348.751 55.7617 338.847C55.7617 328.944 59.6225 319.633 66.6309 312.631C73.6394 305.629 82.958 301.772 92.8705 301.772C102.783 301.772 112.102 305.629 119.11 312.631C126.118 319.633 129.979 328.944 129.979 338.847C129.979 348.751 126.118 358.061 119.11 365.063C112.102 372.065 102.783 375.923 92.8705 375.923ZM92.8705 303.984C73.629 303.984 57.976 319.623 57.976 338.847C57.976 358.071 73.629 373.71 92.8705 373.71C112.112 373.71 127.765 358.071 127.765 338.847C127.765 319.623 112.112 303.984 92.8705 303.984Z" fill="#FFA412"/>
<path d="M97.9781 349.608C98.074 348.808 98.0429 348.09 97.8899 347.455C97.737 346.818 97.4336 346.222 96.9799 345.668C96.5261 345.111 95.9194 344.577 95.1571 344.062C94.3974 343.546 93.4562 343.02 92.3335 342.482C90.407 341.539 88.6698 340.585 87.1193 339.619C85.5688 338.653 84.2697 337.596 83.2222 336.448C82.1721 335.301 81.4047 334.013 80.9198 332.586C80.4349 331.158 80.3027 329.511 80.5231 327.646C80.715 326.027 81.1765 324.586 81.9103 323.322C82.6414 322.058 83.6008 320.993 84.7857 320.131C85.9707 319.268 87.3423 318.615 88.9032 318.172C90.464 317.729 92.1779 317.532 94.0448 317.579L94.7708 311.468L99.6946 312.051L98.9582 318.247C100.695 318.685 102.238 319.341 103.592 320.216C104.942 321.092 106.055 322.149 106.929 323.392C107.8 324.636 108.417 326.055 108.777 327.651C109.138 329.247 109.205 330.998 108.98 332.902L100.089 331.848C100.361 329.563 100.055 327.793 99.1734 326.542C98.2918 325.291 97.0006 324.56 95.2971 324.361C94.3741 324.252 93.5625 324.286 92.8676 324.465C92.1701 324.641 91.579 324.928 91.0967 325.325C90.6118 325.721 90.2307 326.211 89.9558 326.796C89.6784 327.382 89.4969 328.027 89.4139 328.731C89.331 329.436 89.3569 330.086 89.4943 330.679C89.6317 331.275 89.9221 331.845 90.3681 332.392C90.8115 332.936 91.426 333.472 92.2038 334C92.9843 334.526 93.9618 335.091 95.1389 335.694C97.0395 336.674 98.7611 337.648 100.299 338.622C101.836 339.596 103.13 340.661 104.178 341.818C105.225 342.976 105.993 344.269 106.477 345.696C106.962 347.124 107.097 348.764 106.877 350.608C106.677 352.284 106.208 353.753 105.464 355.015C104.719 356.279 103.758 357.333 102.575 358.175C101.393 359.019 100.013 359.649 98.4344 360.058C96.858 360.47 95.1338 360.652 93.2695 360.605L92.5954 366.288L87.7027 365.708L88.3742 360.053C86.6915 359.68 85.0891 359.113 83.5671 358.354C82.0451 357.595 80.7331 356.605 79.6286 355.382C78.5266 354.162 77.7021 352.688 77.1576 350.963C76.6131 349.238 76.4783 347.233 76.7479 344.95L85.6388 346.005C85.478 347.357 85.5325 348.507 85.8073 349.455C86.0796 350.406 86.4996 351.188 87.0726 351.808C87.643 352.427 88.3224 352.893 89.1054 353.206C89.8884 353.522 90.7026 353.727 91.5427 353.828C92.5072 353.942 93.368 353.919 94.1251 353.758C94.8822 353.598 95.533 353.326 96.0775 352.947C96.622 352.569 97.0525 352.092 97.3688 351.523C97.6851 350.953 97.8874 350.315 97.9703 349.611L97.9781 349.608Z" fill="#FFA412"/>
<path d="M167.762 282.496C163.593 289.747 158.348 292.547 158.348 292.547H136.526C136.526 292.547 170.946 276.962 167.765 282.496H167.762Z" fill="#233862"/>
<path d="M151.002 338.604C150.434 339.254 150.361 339.982 150.641 340.759C150.641 340.762 150.641 340.767 150.646 340.769C151.168 342.207 152.887 343.811 154.883 345.414C155.137 345.619 155.365 345.808 155.562 345.981C155.614 346.028 155.666 346.072 155.715 346.119C155.757 346.155 155.793 346.191 155.832 346.225C157.694 347.94 156.994 348.334 160.341 351.815C164.158 355.781 166.784 355.854 167.531 355.491C168.164 355.183 166.878 353.079 165.457 350.714C165.387 350.6 165.319 350.484 165.249 350.37C165.06 350.056 164.871 349.735 164.684 349.419C163.017 346.575 163.445 345.238 163.839 341.002C164.16 337.562 169.198 321.778 169.198 321.778L161.886 320.519C161.886 320.519 159.685 333.088 157.258 335.024C155.962 336.055 154.51 336.068 153.263 336.832C153.174 336.884 153.089 336.941 153.003 336.995C152.295 337.464 151.572 337.948 151.002 338.601V338.604Z" fill="#FFB27D"/>
<path d="M151.002 338.604C150.434 339.254 150.361 339.982 150.641 340.759C150.641 340.762 150.641 340.767 150.646 340.769C151.284 342.204 152.959 343.8 154.891 345.399C155.142 345.608 155.365 345.8 155.565 345.979C155.617 346.025 155.669 346.069 155.718 346.116C155.759 346.152 155.796 346.189 155.835 346.222C157.696 347.937 156.996 348.331 160.344 351.813C164.16 355.779 166.787 355.851 167.534 355.489C168.166 355.18 166.88 353.077 165.459 350.712C164.715 350.44 161.267 349.038 158.658 345.704C156.361 342.774 154.829 339.013 153.265 336.832C153.177 336.884 153.091 336.941 153.006 336.995C152.298 337.464 151.575 337.948 151.004 338.601L151.002 338.604Z" fill="#233862"/>
<path d="M209.961 334.042C210.412 336.295 213.63 335.92 217.223 335.044C220.817 334.166 219.964 335.21 225.08 334.645C230.195 334.081 231.746 332.174 231.901 331.415C232.041 330.741 229.513 330.503 226.801 330.19C226.462 330.151 226.117 330.109 225.775 330.068C222.712 329.684 220.472 327.711 217.693 326.089C215.058 324.553 211.128 318.299 211.128 318.299L204.111 318.854C204.111 318.854 207.793 324.441 209.217 326.869C210.054 328.296 210.01 330.187 209.906 331.646C209.852 332.438 209.8 333.249 209.961 334.044V334.042Z" fill="#FFB27D"/>
<path d="M217.223 335.042C220.817 334.163 219.964 335.207 225.079 334.643C230.195 334.078 231.746 332.171 231.901 331.412C232.041 330.739 229.513 330.5 226.801 330.187L226.775 330.239C226.775 330.239 223.708 332.412 219.45 332.513C215.981 332.599 212.304 331.604 209.906 331.643C209.852 332.436 209.8 333.246 209.96 334.042C210.412 336.295 213.629 335.92 217.223 335.044V335.042Z" fill="#233862"/>
<path d="M183.076 289.223L176.518 306.854L167.957 329.876C167.957 329.876 165.633 330.102 163.409 329.462C161.36 328.871 159.009 327.322 159.009 327.322C159.009 327.322 161.386 302.603 165.82 288.415C166.956 284.773 168.232 281.827 169.637 280.169C176.513 272.051 183.076 289.226 183.076 289.226V289.223Z" fill="#233862"/>
<path d="M176.409 261.222C172.113 259.839 159.859 261.616 147.549 264.023L144.971 259.774L118.384 257.699C118.384 257.699 109.61 277.138 114.415 289.524C115.12 291.345 116.867 292.112 119.258 292.151C119.258 292.151 119.258 292.151 119.261 292.153C119.261 292.153 135.126 292.539 140.265 292.539C153.489 292.539 168.25 283.457 170.158 283.076C173.282 282.452 174.535 288.697 177.659 295.254C180.784 301.811 207.039 324.296 207.039 324.296C207.039 324.296 211.073 324.335 212.74 323.711C214.532 323.04 215.188 322.167 215.188 322.167C215.188 322.167 186.096 264.339 176.407 261.217L176.409 261.222Z" fill="#2B478B"/>
<path d="M142.145 181.769C140.151 180.582 138.209 180.411 137.032 180.45C136.184 180.479 135.333 180.396 134.493 180.284C124.417 178.932 118.353 193.558 117.997 197.99C117.339 206.161 113.014 207.404 106.926 212.521C94.719 222.779 98.2971 234.701 104.974 239.128C108.98 241.786 116.04 239.128 116.04 239.128C116.138 239.198 135.346 228.401 144.815 223.191C159.008 221.176 147.849 185.16 142.147 181.769H142.145Z" fill="#233862"/>
<path d="M136.878 218.759C136.92 218.785 132.219 220.388 129.076 218.997C126.121 217.691 123.88 212.832 123.924 212.829C125.27 212.767 126.745 211.593 127.884 203.884L128.457 204.089L138.087 207.549C138.087 207.549 137.389 210.637 136.938 213.575C136.557 216.044 136.355 218.406 136.881 218.756L136.878 218.759Z" fill="#FFB27D"/>
<path d="M138.087 207.552C138.087 207.552 137.389 210.64 136.938 213.578C131.408 212.583 129.237 207.078 128.457 204.091L138.087 207.552Z" fill="#ED975D"/>
<path d="M139.521 210.617C139.521 210.617 126.346 208.85 127.573 200.669C128.799 192.488 127.925 186.75 136.391 187.533C144.854 188.315 146.016 191.68 146.272 194.511C146.529 197.343 142.979 210.865 139.521 210.617Z" fill="#FFB27D"/>
<path d="M145.79 190.027C145.79 190.027 137.355 197.288 131.62 197.874C125.885 198.459 123.712 196.62 123.712 196.62C123.712 196.62 127.093 193.815 129.128 189.289C129.727 187.955 130.995 187.038 132.455 186.913C136.552 186.561 144.317 186.398 145.793 190.027H145.79Z" fill="#233862"/>
<path d="M140.52 189.377C140.52 189.377 143.341 192.102 144.23 194.125C145.088 196.076 145.345 200.742 144.66 202.596C144.66 202.596 149.055 194.055 146.569 189.908C143.929 185.509 140.52 189.38 140.52 189.38V189.377Z" fill="#233862"/>
<path d="M147.973 238.151C147.574 264.797 147.865 259.228 144.948 261.756C144.245 262.365 142.269 262.727 139.669 262.898C131.491 263.44 117.116 262.095 116.569 260.585C114.684 255.36 116.014 253.738 114.44 245.739C114.277 244.889 114.072 243.967 113.836 242.964C112.524 237.47 111.246 235.602 115.903 226.776C120.124 218.782 124.511 212.293 124.905 212.528C136.044 219.134 136.941 213.583 136.941 213.583C136.941 213.583 148.173 225.155 147.976 238.151H147.973Z" fill="white"/>
<path d="M176.518 306.854L167.957 329.876C167.957 329.876 165.633 330.102 163.409 329.462C161.36 328.871 159.009 327.322 159.009 327.322C159.009 327.322 161.386 302.603 165.82 288.415L176.518 306.857V306.854Z" fill="#2B478B"/>
<path d="M136.936 213.58C136.936 213.58 148.396 215.52 149.742 220.453C151.087 225.383 159.006 254.365 159.006 254.365C159.006 254.365 153.18 255.412 150.488 252.723C147.797 250.034 141.123 227.774 141.123 227.774L136.936 213.583V213.58Z" fill="white"/>
<path d="M139.666 262.898C131.488 263.44 117.113 262.095 116.566 260.585C114.681 255.36 116.011 253.738 114.438 245.739L118.381 234.641C118.381 234.641 117.728 246.998 121.376 250.249C125.019 253.5 136.311 256.523 138.082 259.238C138.937 260.541 139.5 261.849 139.663 262.898H139.666Z" fill="#EBF3FF"/>
<path d="M130.296 257.702C130.296 257.702 138.365 255.907 139.666 256.622C140.968 257.337 144.149 259.943 144.549 260.849C144.948 261.756 141.65 260.16 140.579 259.873C139.884 259.686 138.056 260.321 137.151 260.621C133.342 261.888 131.012 261.238 131.012 261.238L130.298 257.699L130.296 257.702Z" fill="#FFB27D"/>
<path d="M124.895 212.521C124.895 212.521 114.062 213.186 110.312 218.414C105.033 225.771 94.561 257.119 100.563 261.3C107.323 266.01 131.325 262.531 131.325 262.531C131.325 262.531 132.123 258.8 131.011 256.997C129.899 255.194 111.84 252.277 111.007 251.446C110.175 250.614 121.425 235.206 121.425 232.709C121.425 230.211 124.895 212.521 124.895 212.521Z" fill="white"/>
<path d="M140.058 258.865C140.058 258.865 141.748 261.044 142.303 261.303C142.858 261.562 143.216 261.497 143.216 261.497L142.077 259.448L140.06 258.862L140.058 258.865Z" fill="#FFB27D"/>
<path d="M139.666 256.622L144.582 259.007C144.582 259.007 144.372 259.349 143.768 259.321C143.164 259.292 141.637 258.735 141.637 258.735L139.669 256.622H139.666Z" fill="#FFB27D"/>
<path d="M142.301 264.642H181.178L192.874 235.587H154.057L142.301 264.642Z" fill="#F99746"/>
<path d="M181.634 263.51H130.296V264.642H181.178L181.634 263.51Z" fill="#ED7D2B"/>
<path d="M171.364 250.114C171.657 249.094 171.065 248.265 170.044 248.265C169.022 248.265 167.954 249.094 167.661 250.114C167.368 251.135 167.959 251.964 168.981 251.964C170.002 251.964 171.071 251.135 171.364 250.114Z" fill="white"/>
<path d="M365.388 267.424C365.383 267.269 366.247 249.651 357.727 245.596L358.328 245.019C362.23 246.381 366.555 250.588 368.287 256.531C369.573 260.948 368.596 261.917 368.601 262.085L365.388 267.424Z" fill="#A4C8FC"/>
<path d="M343.142 232.53C343.142 232.53 342.169 241.591 346.919 245.446C351.672 249.301 360.348 246.488 360.348 246.488C360.348 246.488 361.32 237.426 356.57 233.571C351.817 229.717 343.142 232.53 343.142 232.53Z" fill="#A4C8FC"/>
<path d="M363.934 300.474C363.773 299.588 360.7 278.838 368.559 255.715C376.11 233.499 371.93 214.663 371.896 214.477H377.453C377.595 215.282 377.982 233.771 372.065 259.106C366.739 281.905 376.685 300.471 374.567 300.471H363.934V300.474Z" fill="#A4C8FC"/>
<path d="M375.604 239.221C375.632 239.102 378.285 223.901 385.42 222.17C382.231 222.585 378.178 224.867 375.912 229.116C374.227 232.273 374.818 233.17 374.787 233.294L375.606 239.219L375.604 239.221Z" fill="#A4C8FC"/>
<path d="M347.047 198.9C347.047 198.9 339.351 188.043 330.608 184.854C330.608 184.854 333.878 210.321 329.096 210.635C324.315 210.951 327.502 181.994 327.502 181.994C327.502 181.994 304.731 169.363 295.483 169.712C295.483 169.712 308.574 195.159 303.863 194.289C299.152 193.418 284.297 167.57 284.297 167.57C284.297 167.57 260.534 161.718 255.843 175.717C251.153 189.716 256.966 197.193 260.472 198.291C263.98 199.389 286.836 200.428 286.068 203.358C285.301 206.288 269.598 210.124 261.154 206.954C261.154 206.954 269.272 230.921 281.8 230.463C294.326 230.007 298.636 222.528 306.38 222.385C314.128 222.243 319.64 224.649 315.663 226.497C311.685 228.346 298.716 226.186 292.177 231.113C285.638 236.04 280.405 239.004 291.832 242.05C303.261 245.099 320.511 241.656 328.697 236.206C328.72 236.19 335.4 235.659 340.658 266.548C342.685 278.457 341.127 296.122 341.127 296.122L345.369 295.477C347.723 260.852 335.215 232.069 335.215 232.069C335.215 232.069 356.435 216.394 347.047 198.895V198.9Z" fill="#A4C8FC"/>
<path d="M416.447 244.594C416.447 244.594 390.879 233.861 400.032 214.334C400.032 214.334 407.737 202.109 417.028 198.138C417.028 198.138 414.982 225.942 420.186 226.004C425.387 226.064 420.227 194.856 420.227 194.856C420.227 194.856 444.175 179.821 454.222 179.657C454.222 179.657 441.525 208.018 446.583 206.798C451.639 205.578 466.224 176.678 466.224 176.678C466.224 176.678 491.647 168.938 497.556 183.841C503.465 198.744 497.605 207.192 493.866 208.588C490.128 209.985 465.407 212.456 466.411 215.585C467.414 218.715 484.667 221.955 493.636 218.02C493.636 218.02 486.243 244.485 472.634 244.726C459.024 244.967 453.913 237.112 445.505 237.413C437.096 237.716 431.26 240.646 435.681 242.418C440.101 244.19 454.038 241.086 461.417 246.042C468.796 250.998 474.646 253.907 462.433 257.883C450.221 261.86 427.599 262.795 422.021 253.694L416.444 244.594H416.447Z" fill="#D2E3FC"/>
<path d="M486.238 189.988C486.238 189.988 421.384 219.383 416.447 244.594C416.447 244.594 418.002 255.448 412.685 268.701L413.229 273.507C413.229 273.507 418.43 256.373 422.024 253.697C422.024 253.697 404.561 234.26 486.238 189.988Z" fill="#A4C8FC"/>
<path d="M412.685 268.701C412.685 268.701 404.087 285.628 412.179 304.132L414.769 303.114C414.769 303.114 409.783 282.288 414.012 271.051C418.241 259.816 412.685 268.701 412.685 268.701Z" fill="#A4C8FC"/>
<path d="M318.963 128.329C329.441 139.471 323.991 161.596 323.991 161.596C323.991 161.596 301.55 165.658 291.069 154.516C280.592 143.375 286.042 121.249 286.042 121.249C286.042 121.249 308.483 117.187 318.963 128.329Z" fill="#A4C8FC"/>
<path d="M318.963 128.329C329.441 139.471 323.991 161.596 323.991 161.596L286.042 121.252C286.042 121.252 308.483 117.19 318.963 128.332V128.329Z" fill="#D2E3FC"/>
<path d="M454.111 170.764C448.642 177.093 436.285 175.391 436.285 175.391C436.285 175.391 432.795 163.425 438.263 157.097C443.731 150.768 456.089 152.47 456.089 152.47C456.089 152.47 459.579 164.436 454.111 170.764Z" fill="#A4C8FC"/>
<path d="M389.478 226.44C385.812 227.455 381.57 223.699 381.57 223.699C381.57 223.699 383.271 218.295 386.937 217.279C390.604 216.264 394.846 220.02 394.846 220.02C394.846 220.02 393.145 225.424 389.481 226.44H389.478Z" fill="#A4C8FC"/>
<path d="M324.742 107.667C327.255 113.62 321.841 121.586 321.841 121.586C321.841 121.586 312.351 119.899 309.839 113.946C307.326 107.993 312.743 100.028 312.743 100.028C312.743 100.028 322.233 101.714 324.745 107.667H324.742Z" fill="#A4C8FC"/>
<path d="M414.743 197.496C436.58 175.679 436.58 140.306 414.743 118.488C392.906 96.6708 357.501 96.6708 335.664 118.488C313.827 140.306 313.827 175.679 335.664 197.496C357.501 219.314 392.906 219.314 414.743 197.496Z" fill="#E2810E"/>
<path d="M409.902 198.106C431.74 176.288 431.74 140.915 409.902 119.098C388.065 97.2805 352.661 97.2804 330.824 119.098C308.987 140.915 308.987 176.288 330.824 198.106C352.661 219.923 388.065 219.923 409.902 198.106Z" fill="#FFB93E"/>
<path d="M376.812 209.759C363.312 211.459 349.956 207.801 339.206 199.464C328.456 191.126 321.601 179.106 319.9 165.617C318.199 152.128 321.86 138.784 330.204 128.044C338.55 117.304 350.581 110.454 364.082 108.755C377.583 107.056 390.938 110.713 401.688 119.05C412.438 127.389 419.294 139.409 420.994 152.897C422.695 166.386 419.034 179.733 410.69 190.47C402.344 201.21 390.313 208.06 376.812 209.759ZM364.463 111.765C338.254 115.063 319.614 139.048 322.915 165.236C326.216 191.421 350.223 210.044 376.434 206.746C402.642 203.449 421.282 179.463 417.982 153.276C414.681 127.091 390.674 108.467 364.465 111.765H364.463Z" fill="#FFA412"/>
<path d="M379.252 173.039C379.244 171.932 379.081 170.961 378.762 170.122C378.443 169.282 377.927 168.521 377.214 167.842C376.501 167.163 375.58 166.536 374.458 165.967C373.332 165.397 371.961 164.84 370.34 164.298C367.553 163.345 365.022 162.342 362.746 161.293C360.469 160.244 358.517 159.027 356.891 157.643C355.265 156.26 353.997 154.638 353.093 152.776C352.185 150.913 351.724 148.693 351.705 146.113C351.69 143.877 352.071 141.833 352.851 139.984C353.632 138.137 354.755 136.523 356.22 135.142C357.684 133.764 359.442 132.64 361.491 131.769C363.542 130.899 365.842 130.337 368.393 130.083L368.333 121.635L375.139 121.586L375.202 130.153C377.642 130.451 379.858 131.08 381.852 132.039C383.844 132.997 385.539 134.251 386.942 135.792C388.342 137.336 389.426 139.165 390.194 141.276C390.961 143.39 391.353 145.763 391.371 148.395L379.078 148.483C379.055 145.325 378.336 142.968 376.921 141.411C375.505 139.857 373.62 139.085 371.268 139.103C369.993 139.113 368.893 139.297 367.975 139.66C367.055 140.02 366.3 140.515 365.709 141.136C365.118 141.761 364.683 142.494 364.405 143.338C364.128 144.183 363.993 145.092 364.001 146.066C364.008 147.04 364.156 147.921 364.444 148.709C364.732 149.496 365.227 150.224 365.927 150.89C366.627 151.555 367.553 152.18 368.707 152.765C369.86 153.351 371.289 153.952 372.995 154.571C375.751 155.579 378.264 156.612 380.525 157.674C382.786 158.739 384.73 159.967 386.359 161.363C387.984 162.759 389.252 164.389 390.16 166.251C391.067 168.114 391.529 170.321 391.547 172.875C391.563 175.191 391.174 177.274 390.38 179.121C389.584 180.971 388.454 182.569 386.989 183.921C385.524 185.274 383.753 186.367 381.673 187.198C379.594 188.03 377.281 188.571 374.73 188.828L374.787 196.685L368.022 196.734L367.965 188.918C365.608 188.698 363.329 188.201 361.128 187.429C358.924 186.654 356.966 185.53 355.255 184.056C353.544 182.582 352.17 180.717 351.132 178.461C350.095 176.204 349.566 173.497 349.543 170.339L361.836 170.251C361.849 172.119 362.121 173.678 362.655 174.925C363.189 176.171 363.897 177.165 364.781 177.911C365.665 178.655 366.669 179.176 367.791 179.468C368.914 179.764 370.055 179.906 371.219 179.898C372.552 179.888 373.721 179.709 374.725 179.359C375.728 179.01 376.568 178.531 377.245 177.919C377.922 177.31 378.427 176.588 378.762 175.756C379.096 174.925 379.26 174.023 379.252 173.049V173.039Z" fill="#FFA412"/>
<path d="M419.817 295.078L419.812 295.122L418.7 312.237L414.559 375.778H337.165L332.607 313.108L331.352 295.834L331.298 295.078H419.817Z" fill="#739AF0"/>
<path d="M419.812 295.122L418.697 312.235C412.866 310.204 396.663 305.331 375.555 305.331C348.898 305.331 332.605 313.105 332.605 313.105L331.35 295.832L419.81 295.119L419.812 295.122Z" fill="#618DD8"/>
<path d="M422.507 304.124H328.493L327.414 293.205H423.702L422.507 304.124Z" fill="#739AF0"/>
<path d="M415.75 379.171H335.504L334.586 375.366H416.769L415.75 379.171Z" fill="#618DD8"/>
<path d="M276.936 343.772C276.864 343.373 275.482 334.039 279.018 323.638C282.415 313.644 280.535 305.173 280.52 305.088H283.019C283.084 305.45 283.258 313.766 280.595 325.161C278.199 335.417 282.672 343.769 281.72 343.769H276.936V343.772Z" fill="#A4C8FC"/>
<path d="M282.184 316.219C282.197 316.167 283.39 309.328 286.6 308.551C285.166 308.738 283.343 309.763 282.324 311.675C281.567 313.095 281.832 313.499 281.819 313.556L282.187 316.222L282.184 316.219Z" fill="#A4C8FC"/>
<path d="M276.254 314.621C276.254 314.621 273.114 309.525 269.282 307.841C269.282 307.841 270.011 319.366 267.856 319.369C265.701 319.372 267.97 306.468 267.97 306.468C267.97 306.468 258.115 300.14 253.953 300.028C253.953 300.028 259.092 311.831 257.002 311.302C254.912 310.774 248.996 298.743 248.996 298.743C248.996 298.743 238.497 295.43 235.987 301.577C233.477 307.725 235.868 311.25 237.411 311.844C238.954 312.437 249.182 313.566 248.754 314.859C248.324 316.152 241.165 317.421 237.468 315.753C237.468 315.753 240.418 326.744 246.053 326.902C251.69 327.06 253.839 323.827 257.321 323.988C260.803 324.149 263.207 325.387 261.369 326.102C259.53 326.817 253.772 325.472 250.694 327.495C247.616 329.516 245.181 330.697 250.222 332.394C255.262 334.094 263.106 333.047 266.938 330.837C266.948 330.829 269.961 330.785 271.426 344.803C271.991 350.207 270.778 358.089 270.778 358.089L272.702 357.921C274.763 342.448 269.982 329.166 269.982 329.166C269.982 329.166 279.962 322.744 276.254 314.618V314.621Z" fill="#A4C8FC"/>
<path d="M288.425 310.471C286.776 310.927 284.867 309.238 284.867 309.238C284.867 309.238 285.632 306.808 287.281 306.349C288.93 305.893 290.838 307.582 290.838 307.582C290.838 307.582 290.074 310.012 288.425 310.471Z" fill="#A4C8FC"/>
<path d="M307.394 273.323C301.635 277.089 301.685 287.34 301.685 287.34C301.685 287.34 311.068 291.482 316.827 287.713C322.585 283.946 322.536 273.696 322.536 273.696C322.536 273.696 313.153 269.553 307.394 273.323Z" fill="#A4C8FC"/>
<path d="M307.394 273.323C301.635 277.089 301.685 287.34 301.685 287.34L322.536 273.696C322.536 273.696 313.153 269.553 307.394 273.323Z" fill="#D2E3FC"/>
<path d="M307.047 263.678C305.32 266.017 306.847 270.069 306.847 270.069C306.847 270.069 311.174 270.331 312.901 267.994C314.628 265.655 313.101 261.601 313.101 261.601C313.101 261.601 308.773 261.339 307.047 263.676V263.678Z" fill="#A4C8FC"/>
<path d="M257.048 282.822C255.314 269.051 265.078 256.484 278.862 254.749C292.645 253.016 305.223 262.771 306.96 276.543C308.695 290.314 298.93 302.88 285.147 304.616C271.363 306.349 258.785 296.593 257.048 282.822Z" fill="#E2810E"/>
<path d="M254.87 283.097C253.136 269.325 262.901 256.759 276.684 255.023C290.468 253.29 303.045 263.046 304.783 276.817C306.517 290.588 296.753 303.155 282.969 304.891C269.186 306.624 256.608 296.868 254.87 283.097Z" fill="#FFB93E"/>
<path d="M282.726 302.969C276.653 303.733 270.646 302.088 265.81 298.337C260.974 294.586 257.891 289.179 257.127 283.112C256.362 277.045 258.008 271.043 261.763 266.212C265.517 261.38 270.928 258.3 277.001 257.536C283.073 256.772 289.081 258.417 293.916 262.168C298.752 265.919 301.835 271.325 302.6 277.392C303.365 283.459 301.718 289.462 297.964 294.293C294.209 299.124 288.798 302.204 282.726 302.969ZM277.172 258.891C265.382 260.375 257 271.162 258.483 282.941C259.966 294.72 270.765 303.095 282.555 301.614C294.344 300.132 302.727 289.342 301.244 277.563C299.758 265.784 288.961 257.409 277.172 258.891Z" fill="#FFA412"/>
<path d="M283.825 286.451C283.822 285.954 283.747 285.516 283.605 285.138C283.462 284.76 283.229 284.418 282.907 284.112C282.586 283.806 282.173 283.527 281.668 283.268C281.162 283.011 280.545 282.76 279.817 282.516C278.564 282.086 277.426 281.636 276.402 281.164C275.378 280.693 274.499 280.146 273.767 279.522C273.036 278.9 272.466 278.169 272.059 277.333C271.652 276.496 271.442 275.496 271.434 274.336C271.426 273.33 271.6 272.411 271.95 271.579C272.3 270.748 272.805 270.022 273.464 269.403C274.123 268.784 274.913 268.276 275.837 267.885C276.76 267.494 277.794 267.24 278.94 267.126L278.912 263.326L281.974 263.305L282.002 267.16C283.099 267.295 284.097 267.577 284.994 268.009C285.889 268.442 286.654 269.004 287.284 269.699C287.914 270.393 288.401 271.217 288.746 272.165C289.091 273.115 289.267 274.183 289.275 275.367L283.745 275.405C283.734 273.986 283.41 272.924 282.775 272.224C282.137 271.525 281.292 271.178 280.231 271.185C279.658 271.191 279.163 271.274 278.751 271.437C278.339 271.6 277.999 271.82 277.732 272.1C277.465 272.38 277.27 272.711 277.146 273.089C277.021 273.47 276.959 273.877 276.964 274.317C276.967 274.755 277.034 275.152 277.164 275.506C277.294 275.861 277.517 276.188 277.83 276.488C278.144 276.789 278.562 277.069 279.08 277.33C279.599 277.592 280.242 277.864 281.009 278.141C282.249 278.594 283.379 279.061 284.396 279.537C285.412 280.017 286.288 280.568 287.019 281.198C287.751 281.825 288.321 282.558 288.728 283.397C289.135 284.236 289.343 285.229 289.353 286.376C289.361 287.418 289.184 288.355 288.827 289.184C288.469 290.016 287.961 290.736 287.302 291.345C286.644 291.954 285.845 292.446 284.911 292.819C283.975 293.192 282.936 293.435 281.787 293.552L281.813 297.085L278.772 297.106L278.746 293.591C277.685 293.492 276.661 293.27 275.671 292.92C274.68 292.573 273.799 292.068 273.028 291.402C272.258 290.739 271.641 289.899 271.175 288.884C270.708 287.868 270.469 286.651 270.459 285.231L275.99 285.192C275.995 286.034 276.119 286.734 276.358 287.293C276.596 287.853 276.915 288.301 277.314 288.635C277.711 288.969 278.162 289.203 278.668 289.335C279.174 289.467 279.687 289.532 280.211 289.529C280.81 289.524 281.336 289.443 281.787 289.288C282.238 289.13 282.617 288.915 282.92 288.64C283.224 288.366 283.452 288.042 283.602 287.666C283.752 287.293 283.825 286.887 283.822 286.449L283.825 286.451Z" fill="#FFA412"/>
<path d="M302.072 341.344L302.069 341.365L301.568 349.064L299.707 377.645H264.893L262.844 349.455L262.279 341.686L262.256 341.344H302.072Z" fill="#B4C9F7"/>
<path d="M302.068 341.365L301.568 349.064C298.944 348.152 291.658 345.958 282.163 345.958C270.171 345.958 262.844 349.455 262.844 349.455L262.278 341.686L302.068 341.365Z" fill="#9BB8EA"/>
<path d="M303.279 345.414H260.993L260.508 340.502H303.819L303.279 345.414Z" fill="#B4C9F7"/>
<path d="M300.241 379.171H264.146L263.733 377.459H300.7L300.241 379.171Z" fill="#B4C9F7"/>
<path d="M445.515 232.253C445.515 232.253 441.54 231.478 440.63 232.253C439.72 233.027 435.411 237.405 436.334 238.84C437.257 240.278 441.683 237.651 442.603 237.403C443.524 237.154 446.096 236.151 446.096 236.151L445.515 232.253Z" fill="#FFB27D"/>
<path d="M487.76 372.679L492.022 374.265C492.022 374.265 510.533 348.616 512.812 326.047C513.219 322.019 513.084 318.115 512.202 314.509C512.202 314.509 512.384 313.476 512.7 311.652C512.845 310.8 513.027 309.774 513.232 308.6C513.833 305.155 514.66 300.443 515.609 295.075C517.787 282.724 520.608 266.934 522.802 255.329L521.653 254.961L509.228 250.956L506.662 242.809L497.41 240.376C497.41 240.376 495.344 244.415 493.495 263.497C493.155 265.999 492.844 268.761 492.611 271.753C491.89 280.887 491.838 292.22 493.493 305.176C493.918 308.491 494.452 311.916 495.118 315.434C495.606 318.014 495.678 321.527 495.473 325.563C494.54 344.01 487.762 372.682 487.762 372.682L487.76 372.679Z" fill="#2B478B"/>
<path d="M492.608 271.75L512.698 311.655C512.843 310.802 513.024 309.776 513.229 308.603C513.831 305.157 514.658 300.445 515.607 295.078C517.785 282.726 520.606 266.937 522.799 255.332L521.651 254.964L509.226 250.959L506.659 242.812L497.408 240.379C497.408 240.379 495.341 244.418 493.493 263.499C493.153 266.002 492.842 268.763 492.608 271.755V271.75Z" fill="#233862"/>
<path d="M501.447 245.495L501.911 241.511C509.703 243.578 530.521 235.734 530.521 235.734C530.521 235.734 538.069 242.363 537.078 258.254C536.593 266.01 535.712 298.966 534.789 308.719C534.454 312.253 534.164 314.768 534.044 315.773C534.044 315.779 534.044 315.781 534.044 315.784C534.008 316.089 534.114 316.38 534.27 316.646C535.629 318.949 536.754 321.348 537.677 323.804C546.734 347.919 536.282 377.617 536.282 377.617L533.57 376.524C533.57 376.524 527.622 343.474 522.789 328.874C521.97 326.397 521.181 324.452 520.461 323.288C518.36 319.9 516.408 314.364 514.64 307.779C511.295 295.329 508.601 279.133 506.809 266.631C506.563 266.642 501.452 245.498 501.452 245.498L501.447 245.495Z" fill="#2B478B"/>
<path d="M445.515 232.253L446.096 236.151C446.096 236.151 446.352 236.151 446.806 236.12C448.224 236.024 451.676 235.83 455.578 235.41C461.448 234.83 468.412 233.799 471.187 232.092C475.41 229.514 482.346 221.621 486.86 213.725C486.99 213.531 487.086 213.339 487.182 213.145C489.536 208.956 491.18 204.798 491.31 201.48C491.406 199.449 491.18 197.711 490.763 196.195C490.216 194.198 489.311 192.618 488.375 191.426C488.245 191.232 488.115 191.04 487.923 190.877C486.376 189.04 484.859 188.268 484.859 188.268C484.083 187.944 483.246 188.333 482.375 189.266V189.297C481.664 190.038 480.892 191.164 480.15 192.584C480.119 192.615 480.085 192.649 480.085 192.68C479.925 192.97 479.764 193.291 479.569 193.646C479.504 193.711 479.473 193.807 479.44 193.872C479.084 194.612 478.729 195.387 478.374 196.193C474.407 204.827 470.183 217.912 466.667 221.81C465.151 223.486 458.217 226.774 452.702 229.222C448.735 230.963 445.51 232.25 445.51 232.25L445.515 232.253Z" fill="#FFB27D"/>
<path d="M486.562 197.164C489.007 198.299 491.963 199.068 495.536 199.265C508.931 199.998 511.972 188.266 512.524 180.479C510.593 179.779 508.902 179.847 507.927 179.898C506.978 179.95 505.985 180.049 505.168 180.15C503.53 179.295 500.587 175.14 498.886 168.192L498.308 168.459L488.642 172.997C488.642 172.997 489.668 176.139 490.425 179.147C491.017 181.499 491.442 183.774 491.087 184.411C490.324 184.719 489.868 184.916 489.868 184.916C489.868 184.916 489.868 184.919 489.865 184.927C489.767 185.173 487.667 190.522 486.56 197.167L486.562 197.164Z" fill="#FFB27D"/>
<path d="M483.213 205.946C483.314 206.213 483.425 206.474 483.547 206.741C486.938 214.041 493.218 244.28 493.218 244.28C492.324 249.718 534.113 243.213 534.222 238.263C535.694 233.014 529 224.58 525.224 220.349C524.752 219.818 524.327 219.248 523.959 218.645C523.026 217.137 522.434 215.432 522.248 213.653C521.506 206.635 521.789 200.06 521.727 196.061C520.99 195.514 520.275 195.011 519.611 194.532C518.594 193.791 517.697 193.1 517.036 192.398C516.31 191.633 515.854 190.851 515.802 189.968C515.763 189.299 515.784 188.615 515.854 187.932C515.885 187.608 515.926 187.284 515.976 186.963C516.497 183.566 517.918 180.486 517.918 180.486C514.324 179.033 507.933 179.898 507.933 179.898C507.933 179.898 507.94 180.253 507.943 180.833C507.964 183.165 507.943 189.154 507.194 190.289C506.258 191.701 489.137 197.884 488.232 195.97C487.34 194.087 489.78 185.261 489.871 184.927C489.874 184.919 489.874 184.916 489.874 184.916C484.141 187.165 482.09 189.053 482.09 189.053C485.546 191.291 480.542 198.866 483.213 205.949V205.946Z" fill="#F99746"/>
<path d="M494.745 142.869C494.766 142.289 495.214 136.036 504.748 135.709C504.748 135.709 500.06 136.269 499.251 138.326C499.251 138.326 502.443 135.782 505.041 136.6C507.639 137.419 509.166 141.968 509.182 143.465C509.197 144.963 507.753 149.786 506.104 150.195C505.479 150.351 504.761 150.309 504.105 150.195C504.543 150.879 504.974 151.636 505.386 152.478C509.19 160.278 505.267 167.902 502.046 167.06C499.982 166.518 499.396 170.041 499.396 170.041L479.333 153.814C479.333 153.814 486.702 138.58 494.745 142.867V142.869Z" fill="#2C3A64"/>
<path d="M488.642 173C488.642 173 489.668 176.139 490.425 179.15C496.075 177.575 497.792 171.642 498.308 168.461L488.642 173Z" fill="#ED985F"/>
<path d="M487.454 176.326C487.454 176.326 500.971 173.202 498.894 164.822C496.817 156.441 497.162 150.395 488.445 152.035C479.727 153.677 478.849 157.286 478.861 160.252C478.874 163.218 483.886 176.922 487.457 176.326H487.454Z" fill="#FFB27D"/>
<path d="M478.099 155.493C479.551 152.457 481.262 152.618 482.333 153.156C488.686 147.286 494.914 152.081 494.914 152.081C497.312 157.869 502.508 160.234 502.508 160.234C502.508 160.234 500.431 162.358 494.413 162.311C492.575 162.296 490.726 161.454 489.043 160.291C492.287 163.555 496.091 165.542 496.091 165.542C488.556 164.101 483.505 155.387 482.987 154.462C482.349 155.405 481.127 157.407 481.024 159.102C480.884 161.402 481.677 165.868 480.357 166.039C480.357 166.039 475.916 160.05 478.096 155.493H478.099Z" fill="#2C3A64"/>
<path d="M482.087 189.051C482.087 189.051 478.833 194.724 478.346 196.182C478.346 196.182 482.567 196.019 484.27 199.262C484.27 199.262 484.68 189.815 482.087 189.051Z" fill="#F99746"/>
<path d="M504.471 234.12C512.714 234.032 519.694 225.481 523.959 218.647C523.026 217.14 522.435 215.435 522.248 213.655C521.506 206.638 521.789 200.063 521.727 196.063C520.99 195.517 520.275 195.014 519.611 194.535C518.595 193.794 517.697 193.102 517.036 192.4C510.287 203.798 493.296 234.24 504.471 234.12Z" fill="#ED7D2B"/>
<path d="M473.316 238.599L474.444 242.723C474.444 242.723 475.862 242.467 478.12 242.047C478.797 241.918 479.183 241.822 479.183 241.822C480.988 241.467 483.15 240.985 485.505 240.47H485.536C489.568 239.503 494.082 238.343 497.888 237.053C500.564 236.118 502.887 235.12 504.466 234.12C504.627 234.025 504.757 233.926 504.917 233.797C508.69 231.058 513.173 223.002 516.658 214.368C517.143 213.176 517.594 211.984 518.045 210.824C519.658 206.505 520.946 202.252 521.722 198.579C522.206 196.387 522.528 194.39 522.593 192.747C522.624 192.167 522.658 191.62 522.624 191.105C522.559 181.761 517.915 180.471 517.915 180.471C517.819 180.44 517.721 180.406 517.594 180.375C516.787 180.245 515.95 180.795 515.079 181.857C513.982 183.178 512.82 185.336 511.628 187.947C509.789 192.105 507.855 197.485 506.048 202.835C505.047 205.767 504.08 208.7 503.113 211.404C502.566 213.047 502.016 214.593 501.5 216.013C500.499 218.72 499.597 220.911 498.79 222.295C498.274 223.196 496.791 224.453 494.823 225.872C491.406 228.354 486.407 231.351 482.051 233.799C480.244 234.83 478.535 235.765 477.117 236.537C474.827 237.794 473.311 238.599 473.311 238.599H473.316Z" fill="#FFB27D"/>
<path d="M511.641 187.96C517.85 186.25 522.639 191.092 522.639 191.092C522.562 181.763 517.913 180.486 517.913 180.486C516.043 179.712 513.876 182.947 511.641 187.96Z" fill="#F99746"/>
<path d="M520.508 379.826H541.971C541.971 379.826 542.485 376.557 541.365 374.078C540.291 371.697 538.608 370.617 539.01 367.739C537.647 369.143 535.424 370.713 532.321 370.296C531.94 370.913 529.865 374.208 528.597 375.12C527.195 376.127 520.941 375.767 520.508 379.826Z" fill="#233862"/>
<path d="M474.423 379.826H495.886C495.886 379.826 496.688 376.407 495.28 374.078C494.033 372.019 494.51 370.845 495.435 369.141C494.463 369.54 493.205 369.9 491.821 369.822C490.753 369.76 489.62 369.275 488.629 368.7C487.706 369.752 483.749 374.231 482.513 375.12C481.11 376.127 474.856 375.767 474.423 379.826Z" fill="#233862"/>
<path d="M472.038 257.71L466.937 245.278C466.274 243.656 464.492 242.814 462.838 243.27C461.15 240.097 458.822 237.517 456.182 235.706C453.403 233.794 450.281 232.74 447.201 232.753C445.575 232.76 443.954 233.066 442.407 233.701C435.154 236.669 431.903 245.824 434.566 254.816L434.169 254.977C434.169 254.977 432.93 254.891 430.85 254.891C424.283 254.891 409.35 255.764 398.873 263.033C398.873 263.033 398.214 263.733 398.188 264.802C398.175 265.155 398.235 265.551 398.409 265.976C398.409 265.976 415.226 255.096 430.778 266.276C431.734 266.96 432.657 267.595 433.562 268.183L434.957 271.584C437.27 277.227 443.781 279.947 449.425 277.636L463.67 271.802L466.639 270.587C471.667 268.53 474.096 262.733 472.035 257.71H472.038ZM444.421 247.633L438.618 250.011C437.042 250.656 436.212 252.368 436.619 253.977L435.997 254.231C433.638 246.039 436.516 237.778 442.993 235.128C443.903 234.755 444.836 234.512 445.782 234.392C448.764 233.999 451.87 234.802 454.666 236.543C457.321 238.195 459.688 240.695 461.394 243.832L460.538 244.182C459.698 242.755 457.907 242.115 456.33 242.757L450.525 245.135C450.071 244.029 448.995 243.358 447.864 243.358C447.507 243.358 447.141 243.428 446.791 243.571L445.987 243.9C444.53 244.498 443.825 246.177 444.424 247.633H444.421Z" fill="#C94C43"/>
<path d="M433.565 268.183C432.663 267.595 431.737 266.96 430.78 266.276C415.226 255.096 398.411 265.976 398.411 265.976C398.237 265.554 398.175 265.157 398.191 264.802C400.545 263.253 409.369 258.101 420.3 259.862C433.111 261.927 435.427 263.707 433.565 268.183Z" fill="#B23B38"/>
<path d="M466.644 270.587L463.675 271.802C468.125 269.375 462.615 259.119 459.392 252.35C456.169 245.578 451.292 248.674 451.292 248.674C450.174 246.405 447.781 246.526 447.781 246.526C447.657 244.34 445.987 243.9 445.987 243.9L446.791 243.571C447.141 243.428 447.509 243.358 447.864 243.358C448.995 243.358 450.073 244.029 450.525 245.135L456.33 242.757C457.906 242.112 459.698 242.755 460.538 244.182L461.394 243.832C459.688 240.695 457.32 238.195 454.665 236.543C451.873 234.802 448.764 233.999 445.782 234.392C446.249 234.017 446.752 233.491 447.201 232.755C450.281 232.742 453.403 233.797 456.182 235.708C458.819 237.519 461.147 240.097 462.838 243.273C464.492 242.817 466.273 243.659 466.937 245.28L472.037 257.712C474.101 262.735 471.669 268.533 466.642 270.59L466.644 270.587Z" fill="#B23B38"/>
<path d="M459.963 242.597C462.027 243.467 464.928 246.495 469.574 244.659C472.896 243.369 476.412 242.467 478.12 242.047C478.797 241.918 479.183 241.822 479.183 241.822L477.345 236.473C477.345 236.473 477.28 236.504 477.12 236.537C475.927 236.794 469.862 238.084 467.026 237.439C463.834 236.698 458.48 240.532 458.48 240.532C458.48 240.532 457.899 241.757 459.963 242.594V242.597Z" fill="#FFB27D"/>
<path d="M401.696 274.955C401.696 273.02 398.188 267.046 398.188 267.046C398.188 267.046 394.68 273.02 394.68 274.955C394.68 276.89 396.251 278.46 398.188 278.46C400.125 278.46 401.696 276.89 401.696 274.955Z" fill="#AFCDFB"/>
<path d="M496.936 42.8834L491.789 44.0051L491.667 44.0336C491.042 44.1735 490.62 44.7563 490.69 45.3884L491.154 49.7586C491.162 49.8311 491.164 49.9011 491.159 49.971C491.123 50.4555 490.809 50.8933 490.34 51.0513C487.586 52.0331 485.058 53.5434 482.898 55.5121C482.808 55.5925 482.709 55.6572 482.605 55.709C482.211 55.9007 481.729 55.8722 481.353 55.6235L478.309 53.5744C477.907 53.3076 477.389 53.3024 476.984 53.5278C476.862 53.6003 476.743 53.6936 476.644 53.8102L473.178 57.9213C472.75 58.4265 472.781 59.1829 473.256 59.6544L476.712 63.1024C477.051 63.4443 477.166 63.9469 477 64.4002C476.771 65.0556 476.569 65.7188 476.401 66.4027C476.082 67.685 475.887 68.9647 475.804 70.234V70.2392C475.768 70.7703 475.418 71.2158 474.912 71.3739L470.175 72.8401L469.937 72.9152C469.327 73.0966 468.951 73.7312 469.089 74.3607L470.232 79.6195C470.375 80.2593 470.974 80.6945 471.627 80.6246L476.497 80.1091C477.038 80.0495 477.554 80.3448 477.775 80.837C478.734 82.8965 480.005 84.8031 481.547 86.4766C481.936 86.9066 481.983 87.5413 481.659 88.0257L479.235 91.6369C478.866 92.1887 478.975 92.914 479.476 93.3337L483.604 96.8127C484.094 97.222 484.814 97.1884 485.26 96.7402L489.323 92.6886C489.666 92.3441 490.176 92.2249 490.641 92.3778C491.211 92.5695 491.792 92.7404 492.383 92.8855C493.503 93.1627 494.621 93.3492 495.725 93.4502C496.228 93.4917 496.659 93.8285 496.801 94.3129L498.556 100.004C498.754 100.631 499.389 100.999 500.027 100.862L505.308 99.7167C505.866 99.5924 506.27 99.1002 506.294 98.5432C506.294 98.4862 506.299 98.4214 506.286 98.3619L505.715 92.9632C505.661 92.4607 505.902 91.9762 506.343 91.7327C506.382 91.7094 506.418 91.6861 506.459 91.6731C506.581 91.6187 506.698 91.5721 506.817 91.5048C508.238 90.8545 509.589 90.0463 510.841 89.1059C511.256 88.7847 511.837 88.7744 512.275 89.0749L516.094 91.6317C516.634 91.997 517.368 91.8882 517.788 91.3882L518.56 90.4763L521.246 87.2848C521.672 86.7874 521.638 86.0465 521.174 85.5802L517.769 82.1841C517.404 81.824 517.313 81.2748 517.526 80.8085C518.086 79.5858 518.545 78.2802 518.882 76.9202C519.131 75.9099 519.307 74.8892 519.411 73.8815L520.406 73.5758L524.485 72.3116C524.99 72.1614 525.335 71.7003 525.353 71.1925C525.361 71.0863 525.348 70.9801 525.325 70.8713L524.184 65.5763C524.044 64.952 523.453 64.5349 522.82 64.5971L519.494 64.9546C518.934 65.0142 518.387 64.68 518.189 64.1515C517.378 61.9548 516.229 59.9057 514.785 58.0845C514.443 57.6519 514.414 57.0613 514.723 56.6261L517.788 52.0642C518.127 51.5512 518.034 50.8674 517.559 50.4684L513.38 46.9583C512.885 46.5412 512.159 46.5723 511.713 47.0282L507.486 51.2456C507.126 51.6108 506.579 51.7145 506.104 51.5124C505.088 51.0798 504.017 50.7326 502.902 50.4581C502.303 50.3104 501.704 50.186 501.105 50.0902C500.636 50.0125 500.25 49.6809 500.104 49.2276L498.419 43.7719C498.222 43.1398 497.584 42.7616 496.933 42.8963L496.936 42.8834ZM486.588 67.5295C487.094 66.1643 487.861 64.8276 488.921 63.5557C489.144 63.2837 489.424 63.0065 489.73 62.7293C491.068 61.5532 493.023 60.4885 494.543 60.1647C506.169 57.7063 513.878 70.2237 506.649 79.4356C506.529 79.5858 506.408 79.7361 506.281 79.8837C505.106 81.2748 502.671 82.7333 500.895 83.127C499.964 83.3343 499.057 83.4431 498.183 83.469C489.44 83.6995 483.718 75.3011 486.588 67.527V67.5295Z" fill="#DFEDFB"/>
<path d="M575.535 60.7113L567.435 61.4418L567.243 61.46C566.258 61.5558 565.501 62.3666 565.483 63.351L565.356 70.1356C565.356 70.247 565.343 70.3584 565.322 70.462C565.172 71.1977 564.609 71.8065 563.857 71.9593C559.449 72.9334 555.288 74.7674 551.603 77.3709C551.45 77.4771 551.284 77.5574 551.116 77.617C550.475 77.8346 549.744 77.6973 549.215 77.2466L544.945 73.524C544.38 73.0396 543.586 72.9282 542.925 73.2002C542.725 73.2883 542.526 73.4074 542.349 73.568L536.251 79.1998C535.499 79.8915 535.401 81.0572 536.038 81.8706L540.672 87.8159C541.126 88.4039 541.203 89.194 540.866 89.8598C540.392 90.8209 539.956 91.7975 539.565 92.813C538.831 94.717 538.287 96.6392 537.916 98.5691V98.5769C537.758 99.3825 537.138 100.002 536.329 100.144L528.789 101.481L528.41 101.551C527.441 101.714 526.743 102.61 526.836 103.605L527.581 111.879C527.679 112.884 528.511 113.669 529.525 113.687L537.083 113.83C537.923 113.843 538.66 114.395 538.901 115.187C539.977 118.529 541.556 121.689 543.599 124.547C544.113 125.28 544.063 126.262 543.472 126.94L539.067 132.007C538.398 132.782 538.426 133.914 539.111 134.652L544.769 140.774C545.44 141.497 546.552 141.582 547.32 140.981L554.321 135.551C554.912 135.088 555.716 135.007 556.397 135.329C557.232 135.733 558.091 136.103 558.97 136.442C560.632 137.082 562.307 137.58 563.981 137.945C564.746 138.106 565.34 138.704 565.467 139.473L567.067 148.53C567.251 149.527 568.151 150.214 569.154 150.126L577.464 149.382C578.343 149.297 579.056 148.623 579.199 147.771C579.212 147.683 579.23 147.587 579.225 147.491L579.386 139.113C579.396 138.333 579.86 137.637 580.581 137.347C580.643 137.318 580.705 137.292 580.773 137.277C580.97 137.22 581.156 137.165 581.351 137.087C583.651 136.365 585.875 135.383 587.978 134.183C588.673 133.772 589.565 133.865 590.18 134.411L595.539 139.059C596.296 139.719 597.44 139.696 598.179 139.012L599.537 137.761L604.266 133.383C605.013 132.702 605.101 131.559 604.484 130.756L599.921 124.902C599.428 124.28 599.397 123.422 599.812 122.746C600.904 120.982 601.858 119.07 602.636 117.05C603.214 115.55 603.678 114.019 604.028 112.493L605.61 112.216L612.099 111.061C612.903 110.926 613.52 110.289 613.645 109.511C613.676 109.348 613.678 109.185 613.66 109.014L612.927 100.683C612.831 99.6986 612.006 98.9473 611.026 98.9214L605.861 98.8333C604.99 98.8178 604.217 98.2012 604.018 97.3515C603.196 93.831 601.829 90.4711 599.968 87.404C599.524 86.6786 599.597 85.7668 600.152 85.1554L605.721 78.7516C606.338 78.0315 606.328 76.9642 605.68 76.2622L599.952 70.0812C599.275 69.3481 598.155 69.2574 597.382 69.8662L590.099 75.5187C589.477 76.0109 588.621 76.0627 587.929 75.6638C586.454 74.8089 584.88 74.0706 583.228 73.4333C582.339 73.0914 581.444 72.7883 580.545 72.5266C579.842 72.3168 579.313 71.7339 579.178 71.0112L577.641 62.3304C577.462 61.3227 576.554 60.6258 575.533 60.7061L575.535 60.7113ZM554.953 96.4889C555.988 94.4968 557.422 92.5928 559.291 90.8494C559.683 90.4737 560.167 90.1033 560.689 89.738C562.965 88.1915 566.162 86.9351 568.553 86.7304C586.835 85.1917 596.244 105.846 583.402 118.573C583.189 118.78 582.974 118.985 582.751 119.19C580.687 121.096 576.674 122.863 573.881 123.127C572.416 123.264 571.003 123.259 569.66 123.132C556.221 121.811 549.065 107.848 554.956 96.4863L554.953 96.4889Z" fill="#CDE3FD"/>
</g>
<defs>
<clipPath id="clip0_108_1655">
<rect width="747" height="381" fill="white"/>
</clipPath>
</defs>
</svg>
